<?xml version="1.0" encoding="utf-8"?>
<!-- Generator: Adobe Illustrator 19.1.0, SVG Export Plug-In . SVG Version: 6.00 Build 0)  -->
<svg version="1.1" id="Layer_1" xmlns="http://www.w3.org/2000/svg" xmlns:xlink="http://www.w3.org/1999/xlink" x="0px" y="0px"
	 viewBox="0 0 500 500" enable-background="new 0 0 500 500" xml:space="preserve">
<g>
	<g opacity="0.5">
		<path d="M4.8,205.3c0-4.6,0-8.8,0-13.3c1.3-1,2.7-2.1,4.2-3.1c3.8-2.8,6.9-6,7.3-11.3c0.2-2.5,1.8-4.9,2.9-7.3
			c1.2-2.7,2.7-5.3,4-8.1c2.5-5.3,6.2-9.4,11.3-12.1c4.4-2.3,6.1-6.6,7.1-10.9c1.6-7.3,6.1-12.1,12.5-15.2c3.7-1.8,5.8-4.7,6.7-8.2
			c1.9-7.8,6.6-13.3,13.3-17.2c3.2-1.9,4.1-5.1,5.8-7.8c2.3-3.7,4.8-7.1,7.8-10.2c3.8-3.8,8.3-5.6,13.6-6.5c5.6-1,11.2-0.8,16.9-0.8
			c91.1,0,182.3,0,273.4,0c6.1,0,12.1,0.8,17.9,3.4c5.2,2.3,8.1,6.7,11.4,10.8c1,1.3,1.8,2.8,2.6,4.2c2.1,3.6,4.4,6.8,8,9.3
			c4.7,3.3,8.1,7.9,9.6,13.6c1.4,5.2,4.6,8.6,9.4,10.7c4.7,2,7.6,5.8,9.4,10.5c0.2,0.5,0.2,1,0.3,1.5c1.4,7.3,5.5,12.5,12,16
			c3.6,2,5.2,6,7,9.4c2.6,4.8,4.7,9.9,7.1,14.8c0.6,1.3,1.4,2.9,2.5,3.6c4,2.4,4.8,6.6,6.3,10.4c0.8,2,1.2,4.2,2,7
			c-1.2,2.4-2.7,5.3-4.4,8.2c-0.6,1.1-1.7,2.2-2.8,2.6c-5.4,1.9-8.5,6.4-11.5,10.7c-2.8,4-6.2,6.6-10.8,8.4c-5,1.9-9.2,4.8-11,10.6
			c-1.1,3.8-3.7,6.8-7.7,8.6c-6.2,2.8-10.9,7.5-14.1,13.6c-1.7,3.2-4,5.6-7.1,7.5c-8.5,5.3-16.2,11.5-23.1,18.8
			c-4,4.2-8.6,7.8-13.9,10.2c-4.5,2.1-7.7,5.5-10.2,9.8c-2.7,4.7-6.5,8.7-11.6,11.2c-3,1.4-5.5,3.5-6.9,6.9
			c-2.7,6.7-7.5,11.5-13.9,15c-3.5,1.9-6.3,4.6-8.7,8c-3.3,4.7-7.9,8.1-13.4,9.9c-1.1,0.4-2.2,0.7-3.3,1c-3.3,0.9-5.6,3-6.5,6.3
			c-1.6,6.1-5.9,9.9-11.1,12.8c-4.4,2.4-7.6,5.7-10,10.1c-2.8,5-6.6,9-12,11.6c-3.9,1.8-7.1,4.5-9.2,8.7c-3.4,7-9.3,10.5-17.2,10.7
			c-3.1,0.1-6.3,1-9.3,0.8c-3.6-0.2-7.2-0.9-10.6-2.1c-3.9-1.3-6.5-4.6-8.1-8.3c-1.7-4.1-4.5-6.9-8.2-9.1c-1.6-0.9-3.1-2-4.6-2.9
			c-3.7-2.1-6.2-5.4-8.2-9.1c-2.3-4.1-4.9-7.6-9.4-9.9c-5.1-2.5-9.2-6.4-11.2-12.1c-0.6-1.7-1.6-3.3-2.6-5.2c-2.5-1.1-5.2-2.5-8-3.3
			c-6.7-2.1-11.5-6.4-15.1-12.2c-1.4-2.3-3.3-3.7-5.6-4.7c-7.2-3.4-12.4-8.8-15.6-16c-1-2.1-2.4-3.5-4.1-4.8c-1.6-1.2-3.3-2.3-5-3.3
			c-4.8-2.8-8-7-10.5-11.7c-1.6-3-3.6-5.2-6.5-6.5c-6.5-2.8-11.9-7.2-17.7-11c-2-1.4-4.1-3.1-5.4-5.1c-2.9-4.7-7.5-7.4-11.6-10.7
			c-0.6-0.5-1.2-1.2-1.9-1.5c-5.3-2.8-8.9-7.2-11.6-12.5c-2.3-4.6-6.2-7.7-10.9-9.7c-4.4-1.9-7.7-5-9.2-9.9
			c-1.1-3.8-4.1-6.3-7.5-8.4c-1.1-0.7-2.3-1.5-3.6-1.8c-5.8-1.4-9.4-5.5-12.3-10.1c-2.9-4.6-6.7-7.6-11.9-9.1
			C8.5,208.3,6.9,206.6,4.8,205.3z M188.4,208c-3.1,0-5.4,0-7.7,0c-7.3,0.1-13.5,6.8-12.5,14.1c0.6,4.5,1.8,9.1,3.4,13.4
			c1.5,4,3.5,7.6,7.9,9.7c4.2,2,7.1,6.2,8.4,10.7c1.5,4.9,2,10,3.2,14.9c1.5,6.4,2.4,13.2,9.6,16.3c0.7,0.3,1.3,1,1.9,1.6
			c4.3,3.6,6.2,8.5,7.4,13.7c1.1,4.8,2,9.7,3,14.5c1.1,5.4,3.6,10,8.7,12.6c2.9,1.5,4.8,3.9,6.3,6.8c2.3,4.5,3.1,9.4,4.1,14.2
			c0.9,4.2,1.8,8.4,3,12.5c1,3.3,3.3,5.5,6.5,7c3.8,1.8,7.7,1.9,11.7,1.8c7.7-0.1,12.3-3.1,14.6-10.3c1.4-4.4,2.2-8.9,3.2-13.4
			c1.2-5.5,2-11.1,6-15.4c1.7-1.8,3.7-3.3,5.6-4.7c2.7-2,5.1-3.9,5.7-7.7c0.9-5.5,2.5-10.9,3.7-16.4c1.6-7.3,4.2-14,11.3-17.8
			c3.1-1.7,5-4.1,5.9-7.6c1.5-6.4,3.2-12.8,4.8-19.2c1.6-6.2,3.7-12,10.3-14.8c1.4-0.6,2.8-2,3.6-3.4c3.2-5.6,6.5-11,7.3-17.7
			c1-8.3-4.7-16.3-13.9-15.5c-8.6,0.7-17.2,1.1-25.8,1C259.5,208.7,223.5,210,188.4,208z M177.5,182.4c4.1,2.7,8.4,3.7,13.2,3.7
			c40.3-0.1,80.7,0,121-0.1c2.9,0,5.9-0.4,8.8-1.1c4.5-1.1,5.8-3.5,4.9-8.5c-0.1-0.1-0.2-0.3-0.3-0.4c-0.4-0.3-0.8-0.6-1.2-0.9
			c-7.2-4.1-11.9-9.8-13.2-18.2c-0.6-3.7-3-6-6.8-7c-3.2-0.8-6.2-2.1-8.6-4.7c-2.6-2.7-4.4-5.7-5.6-9.3c-1.1-3.3-2.9-6-6.9-7.1
			c-4.1-1.1-7.9-3.5-10.2-7.4c-1.4-2.3-2.8-4.5-3.9-6.9c-2.1-4.3-5.5-6.5-10.3-6.5c-4.5,0-9-0.1-13.5,0c-5.8,0.1-10.1,2.4-12,8.4
			c-1.2,3.9-3.7,7.1-7.1,9.3c-1.9,1.3-4.1,2.3-6.2,3.2c-3.5,1.4-5.4,3.8-6.7,7.4c-2.1,6-5.7,11-12.3,12.7c-5.4,1.4-8.7,4.4-9.3,10.1
			c0,0.3-0.1,0.7-0.2,1c-1.4,5.3-3.8,9.9-8.9,12.6c-1.3,0.7-2.7,1.4-3.8,2.4c-1,0.9-1.8,2.2-2.4,3.1
			C176.6,179.9,177,181.2,177.5,182.4z M188.7,329.4c0-3.4,0.4-6.6-0.1-9.7c-0.9-5.3-2.5-10.6-3.6-15.9c-1-4.4-3-8-7.2-10.2
			c-5.6-2.9-8.3-7.9-9.8-13.8c-1.4-5.6-2.5-11.3-4.1-16.8c-1.2-4.1-2.8-7.9-6.8-10.6c-5.6-3.8-9.3-9.2-10.3-16.3
			c-0.7-5.2-2.4-10.2-3.9-15.3c-1.2-4.4-4.1-7.3-8.5-8.9c-6.9-2.5-14.1-3.6-21.3-3.8c-12.8-0.5-25.6-0.2-38.5-0.1
			c-4.9,0.1-9.6,1.4-12.6,5.8c-1.3,1.9-2.2,4-3.1,5.5c1.1,7,5,10.9,10.7,13.4c2,0.9,4,1.7,5.8,2.9c1.6,1.1,3.5,2.3,4.4,3.9
			c3.1,5.9,8.4,8.9,14.1,11.1c2.9,1.1,5.5,2.5,7.3,4.9c1.9,2.5,3.7,5.1,5,7.9c1.5,3.2,3.7,5.4,6.8,6.9c1.2,0.6,2.3,1.3,3.6,1.7
			c5,1.7,8.1,5.2,9.5,10.1c1.6,5.5,5.1,8.4,10.5,10.1c5.4,1.7,9.6,5.5,11.5,11c1.6,4.4,4.3,6.8,8.8,7.7c0.8,0.2,1.6,0.6,2.3,0.8
			c4.4,1.6,7.8,4.3,9.7,8.7c0.8,2,1.3,4.1,2.2,6c0.6,1.3,1.4,2.7,2.5,3.5C178,333,184.1,332.7,188.7,329.4z M314.4,329.9
			c1,0.5,1.8,1.1,2.7,1.5c3.6,1.3,7.3,0.9,10.7-0.6c2.8-1.2,3.6-3.9,4.4-6.8c1.6-5.9,5.2-10.4,11.4-12c5.9-1.5,10-4.6,12.2-10.5
			c1.7-4.5,5-7.7,9.9-9c5.7-1.4,9-4.9,10.6-10.6c0.7-2.5,2.6-5.1,4.6-6.8c2.4-1.9,5.5-3,8.3-4.3c2.7-1.2,4.8-3,6.1-5.6
			c0.9-1.8,1.8-3.6,2.7-5.4c2.1-4.3,5.1-7.5,10-9.1c5.3-1.8,9.6-4.8,12.3-10.2c1.6-3.1,4.3-5.8,8.1-6.9c2.5-0.7,4.9-2,7.3-3.1
			c5.7-2.7,9.5-9.5,5.7-15.6c-3.1-5-7.9-6.8-13.1-6.7c-15.3,0.2-30.6-1.1-45.9,0.8c-6.3,0.8-12.3,2.5-18.2,4.7c-1.6,0.6-3.2,2-4,3.5
			c-1.4,2.6-2.5,5.4-3.1,8.3c-0.9,4-1.4,8.1-2.1,12.2c-1,6.2-3.7,11.1-9.1,14.7c-3.7,2.5-6.5,5.8-7.4,10.7c-1.1,6-3,11.8-4.5,17.7
			c-1.6,6.1-5.1,10.8-10.7,13.7c-3.2,1.7-4.3,4.5-5.2,7.5c-0.8,2.7-1.3,5.4-1.9,8.2C314.9,316.4,312.6,322.7,314.4,329.9z
			 M371.8,155c0.4-3.6,1.1-7,1.1-10.4c0-5.2,0.2-10.2,2-15.2c0.9-2.6,1.6-5.4,2.3-8.1c0.7-2.7,1.8-5.5,1.6-8.2
			c-0.4-9.2-9.2-18.2-18.5-18c-5.4,0.1-10.9,0.8-16.3,0.9c-11.6,0.3-23.2-0.1-34.8-0.9c-5.9-0.4-10.9,3.6-12.1,9.4
			c-0.6,2.9-0.9,5.9-1,8.8c-0.1,6.7,0.8,8.4,6.9,10.4c6.9,2.2,11.6,6.6,14,13.1c1.7,4.6,4.7,6.8,9.1,8.3c1.8,0.6,3.5,1.9,5,3.1
			c3.8,3.1,5.3,7.5,6.9,11.8c1.2,3.2,3.6,4.7,6.8,4.9c2.1,0.1,4.3-0.1,6.4-0.7c4.8-1.3,9.4-3.1,14.1-4.5
			C367.9,159,370.1,157.6,371.8,155z M157.3,165c1.8,0.4,3.8-0.4,5.2-2.2c1.1-1.4,2.1-3,2.7-4.6c2.5-6.4,6.2-11.8,13.1-13.9
			c4-1.3,6.2-3.9,7.6-7.7c2.1-5.6,5.1-10.4,11.5-12c1.4-0.3,2.8-1,4.1-1.7c2.2-1.2,3.7-2.8,4.6-5.4c1.4-4.3,0.1-8.2-0.7-12.1
			c-1.6-7.6-5.6-10.5-13.3-10.3c-8.3,0.2-16.5,0.7-24.8,1c-2.2,0.1-4.3,0.1-6.5,0c-3.3-0.2-6.6-0.6-9.8-1.1c-2-0.3-3.9-0.8-5.8-1.2
			c-3.1-0.5-5.9,0.2-8.3,2.2c-5.2,4.3-7.9,9.9-9,16.6c-0.7,4.3-0.9,8.4,0,12.7c1,4.5,1.4,9.1,2.3,13.6c0.6,2.9,1.8,5.9,4.3,7.6
			c4.1,2.8,6.9,6.5,9.7,10.5C147.2,161.4,151.2,164.6,157.3,165z M93.9,108.5c-4.1,0.5-6.3,2.9-7.3,6.6c-2.3,8-7,14.1-14.8,17.8
			c-1.3,0.6-2.7,2.1-3.2,3.5c-2.6,7-5.9,13.6-10.1,19.8c-1.4,2-2.8,4.3-4.7,5.7c-5.7,4.3-7.3,10-6.7,16.6c0.8,8.3,7.4,11.8,13.8,10
			c6.8-2,13.8-3,21.1-2.6c6.1,0.3,12.3,0.1,18.5,0.1c1.2,0,2.4-0.3,3.5,0.1c2.8,1.1,5.4,0.7,8.2,0c7.1-1.6,9.7-4.6,9.9-11.9
			c0-1.5,0.4-2.9,0.5-4.4c0.3-5.4,0.2-10.8-2.2-15.8c-0.7-1.4-2-2.6-3.2-3.7c-0.9-0.9-2.1-1.5-3.1-2.5c-4.8-4.6-6.5-10.7-7.9-16.8
			c-1-4.3-2-8.7-2.6-13C102.6,112.4,99.6,109.3,93.9,108.5z M456,175.1c-0.6-4.1-1.7-9.4-7-12.6c-1.4-0.8-2.7-2.1-3.5-3.5
			c-3.4-6.1-6.7-12.2-9.7-18.4c-2.2-4.6-4.7-8.5-9.8-10.6c-3.4-1.4-6.3-4.2-9.3-6.5c-2.2-1.7-4.3-3.7-6.6-5.2
			c-3.5-2.3-6.8-1.3-8.7,2.4c-0.6,1.2-1.1,2.4-1.3,3.7c-0.8,4.2-1.4,8.4-2,12.7c-1.4,10.2-4.3,19.8-12.2,27
			c-4.6,4.2-5.3,9.2-3.7,14.9c0.9,3.1,3,5.3,6.1,6c2.7,0.6,5.5,1.1,8.3,1.1c8.5,0.1,17,0.3,25.5,0c6.4-0.2,12.5,0.9,18.6,2.4
			C449.5,190.4,456,185.4,456,175.1z M302.4,339.2c-3.1,2.6-5.7,4.6-8.2,6.8c-2.5,2.2-3,5.5-1.1,7.9c1.7,2.2,4.9,2.7,7.6,1.1
			c1.1-0.7,2-1.7,3.2-2.4c2.4-1.4,3.2-3.6,3.1-6.3c0-1,0-2-0.1-3C306.8,339.6,306.4,339.3,302.4,339.2z M194.8,344.4
			c1.6,2.9,3,5.9,4.8,8.7c0.7,1.1,1.8,2,2.9,2.5c2.1,0.9,4.3,0.6,6-1.2c1.8-1.9,1.9-4.1,1-6.4c-1.4-3.6-4.6-5.4-7.5-7.6
			c-1.8-1.3-3.4-1.8-5.4-0.9C196,341,195.5,342.4,194.8,344.4z"/>
	</g>
	<g>
	</g>
</g>
</svg>
