<?xml version="1.0" encoding="utf-8"?>
<!-- Generator: Adobe Illustrator 19.1.0, SVG Export Plug-In . SVG Version: 6.00 Build 0)  -->
<svg version="1.1" id="Layer_1" xmlns="http://www.w3.org/2000/svg" xmlns:xlink="http://www.w3.org/1999/xlink" x="0px" y="0px"
	 viewBox="0 0 500 500" enable-background="new 0 0 500 500" xml:space="preserve">
<g>
	<g opacity="0.5">
		<path d="M149,501c-3.1-1.1-6.2-2.2-9.3-3.3c-2.8-1-5.5-2.2-8.4-3c-3.5-1-7-1.8-10.6-2.5c-4-0.7-7.6-1.5-10.8-4.4
			c-1.7-1.5-4.5-1.9-6.9-2.5c-2.6-0.6-5.3-0.8-7.9-1.3c-6.2-1.3-11.2-4.2-13.5-10.5c-0.9-2.3-1.9-4.6-2.9-6.9
			c-1.2-2.7-2.9-4.9-5.7-6c-8-3.1-10.6-9.6-11.1-17.4c-0.5-9.1-1-18.3-1-27.4c0-11,0.8-21.9,0.9-32.9c0-10.1-1.2-20.3-0.8-30.4
			c0.4-10.1,1.2-20.2,4.8-29.9c1.2-3.2,2.6-6.2,5.3-8.3c7.7-6.1,8.9-14.8,9.8-23.7c0.8-7.4,1.3-14.8,3.6-22
			c1.6-5.2,4.6-9.4,8.9-12.2c4.3-2.8,6.3-6.7,7.5-11.3c1.1-4.3,2.1-8.7,3.2-13.1c1.4-5.7,4.7-10.5,9.4-13.8
			c5.2-3.6,7.4-8.8,9.6-14.2c0.8-2,1.3-4.1,2.1-6.2c1.6-4.6,4.4-8.3,9.1-10c5.3-1.9,7.8-5.8,9.3-10.9c0.7-2.4,1.9-4.6,2.9-6.9
			c1.2-2.7,3.2-4.6,5.9-5.9c2-0.9,4-1.7,5.8-3c1.8-1.3,4-2.8,4.9-4.7c2.9-6.3,7.8-9.8,14.1-11.6c1.8-0.5,3.5-1,5.2-1.8
			c4.5-2.1,6-5.9,4.7-10.7c-2.2-7.8-6.6-14.4-12.6-19.4c-6.7-5.6-10-12.7-11.3-20.9c-0.9-5.4-2.6-10.3-7.1-13.8
			c-0.4-0.3-0.7-0.7-1-1.1c-3.6-4.8-3-10.4-3-15.8c0-5.8,1.5-10.6,6.8-14.1c4.8-3.1,7.2-8.3,9.1-13.5c2.6-7.4,7.3-11.7,15.3-12.1
			c4-0.2,7.9-0.5,11.9-1c4.8-0.6,9.5-1.4,14.3-2.2c2.5-0.4,4.9-1,7.3-1.4c2.9-0.5,5.4-1.5,7.5-3.7c0.8-0.8,1.9-1.3,2.9-1.7
			c6.9-2.8,13.9-5.6,20.9-8.1c1.6-0.6,3.5-0.3,5.3-0.1c1.6,0.2,3.3,0.7,4.7,1.4c7.2,3.3,15.4,4,21.7,9.6c2.1,1.8,5.4,2.4,8.3,3
			c8.8,1.7,17.5,3.8,26.6,3.4c3.1-0.1,6.3,0.7,9.3,1.4c4.8,1.2,8.5,4,9.9,8.9c2.1,7.8,6.9,13.5,13,18.4c1,0.8,1.8,2,2.4,3.1
			c4,8.1,2.2,20-4,26.9c-2.5,2.8-4.1,6-4.8,9.7c-0.3,1.6-0.8,3.2-1,4.9c-1.1,9-6,15.6-13.1,20.9c-6.6,4.9-8.8,12.2-10.9,19.6
			c-0.6,2.2,0,4.5,2,5.8c2.6,1.7,5.3,3.7,8.2,4.5c6.5,1.7,10.9,5.6,13.7,11.3c1.4,2.7,3.3,4.6,6,5.6c7.3,2.7,11.6,8.2,13.5,15.5
			c1.3,5,4.1,8.6,9.1,10.3c5.4,1.8,8.2,5.9,9.7,11.2c0.5,1.6,0.8,3.3,1.6,4.7c2,3.8,3.6,8.1,6.5,11.1c12.8,13.1,12.1,10.7,16.4,31.8
			c0.7,3.6,2.4,6.8,5.5,8.5c6.1,3.3,9,8.8,10.6,15c1.3,5.3,2,10.7,2.9,16.1c0.8,4.9,0.9,10,2.2,14.7c1,3.5,2.9,7.3,5.4,9.8
			c6.7,6.6,9.4,14.6,10.4,23.6c0.7,6.4,2.2,12.8,2.5,19.2c0.4,8.1,0.4,16.3-0.3,24.4c-0.9,10.8-2.1,21.4-0.5,32.3
			c1.7,11.9,2,23.8-0.5,35.7c-1.4,6.4-3.8,11.7-10.2,14.3c-4.8,1.9-7.3,5.8-8.7,10.3c-2.6,8.7-8.8,12.4-17.3,13.5
			c-2.9,0.4-5.8,1.3-8.7,2c-1,0.2-2.3,0.5-2.7,1.2c-2,3.5-6.3,4.3-8.7,7.2c-3.1,3.7-6.9,4.7-11.5,4.6c-2.5,0-5,1.2-7.5,1.8
			C293,501,221,501,149,501z M251.5,477.9c37.2,0,74.3-0.1,111.5,0.1c7.8,0,13.6-2.4,17.5-9.2c0.7-1.1,1.4-2.3,2.4-3.1
			c5.2-4.1,10.8-7.8,17.2-10c2.5-0.9,5-1.8,7.5-2.9c2.9-1.2,5.1-3.2,5.5-6.5c0.7-6.9,1.4-13.8,1.9-20.8c0.5-6.8-0.1-13.7,1.3-20.3
			c1.6-8.1,0-15.9-0.6-23.8c-0.6-8.6-2.2-17.1-1.6-25.8c0.3-4.8,0.3-9.5,0-14.3c-0.4-6.7-2.7-12.2-7.2-17c-2.9-3.2-5.6-6.4-7.2-10.6
			c-3.5-8.9-4.7-18.3-5.7-27.7c-0.8-8-2.5-15.3-10.1-20c-2.5-1.5-4.7-4.5-5.8-7.3c-2.4-6.3-4.3-12.9-6-19.5c-1-3.7-2.8-6.5-6.3-7.8
			c-5.5-2.2-8.9-6.2-10.9-11.6c-0.6-1.6-1.2-3.1-1.7-4.7c-3-8.3-7.1-15.6-15.2-20.3c-3.8-2.2-7.1-5.3-9.4-9.4
			c-2.5-4.6-6.3-8-10.6-11c-7.5-5.1-15.3-10.1-21.2-17.2c-4.5-5.4-10.6-7.1-17.3-7.3c-5.6-0.2-11.2-1-16.9-1.3
			c-7.1-0.3-14.3-0.6-21.4-0.4c-6.4,0.2-12.9,1.1-19.3,1.8c-7,0.7-13.4,2.4-17.5,8.9c-0.9,1.4-2.2,2.5-3.5,3.5
			c-6.2,4.5-12.4,8.9-18.6,13.5c-1.8,1.4-3.9,2.9-4.9,4.8c-3.9,7.6-9.9,12.9-16.9,17.3c-4.2,2.6-6.8,6.4-8.7,10.7
			c-1.1,2.6-1.8,5.3-2.8,8c-1.9,5-3.4,10.4-8.8,12.8c-7,3.1-10.1,8.5-11.2,15.8c-1.6,9.6-5.4,18-14,23.8c-2.2,1.5-4,4.7-4.6,7.4
			c-1.5,6.9-2.3,14-3.2,21.1c-1.2,9.7-3.3,19.1-11.1,26c-3.1,2.8-4.9,6.4-5.6,10.4c-1.1,5.7-1.8,11.5-2.2,17.2
			c-0.4,5.5,0,11-0.3,16.5c-0.4,7.6-1.5,15.2-1.7,22.8c-0.6,16.5,0.7,32.9,2,49.3c0.6,7.7,3.3,13.5,11.8,14.9c0.2,0,0.3,0.1,0.5,0.2
			c9,3.3,17.4,7.8,22.7,16.2c2.6,4.1,6.3,5.7,10.5,6.8c1.9,0.5,4,0.3,6,0.3C176.9,477.9,214.2,477.9,251.5,477.9z M276.4,122
			c6.1-0.3,10.8-2,13.6-7.8c2.4-4.8,5.9-8.7,11.4-10.5c5.4-1.7,8.3-5.7,9.5-11.2c1.4-6.4,3.6-12.4,8.2-17.4c2.1-2.3,3.1-5.4,1.9-8.8
			c-1.1-3.1-1.9-6.4-3-9.5c-3.1-8.9-10.7-13-20-10.7c-3.4,0.8-6.8,1.5-10.2,2.2c-7.6,1.6-12.9-0.5-16.9-7c-1.6-2.5-3-5.2-3.9-8
			c-1.6-4.5-4.7-6.8-9.3-7.1c-4.5-0.2-9-0.3-13.5,0c-4.1,0.3-7.3,2-8.5,6.4c-0.5,1.9-1.9,3.6-2.4,5.5c-1.8,7-11.2,12.9-19,10.3
			c-3.5-1.1-7.1-1.5-10.7-2.4c-8.9-2.1-17.1,2.8-19.4,11.6c-0.6,2.3-1.1,4.6-2,6.7c-1.7,4-1.1,7.8,1.3,10.9c4.3,5.7,6.8,12.1,8.3,19
			c1,4.6,3.7,7.5,8.4,9c5.4,1.7,9.8,4.8,11.9,10.5c1.6,4.2,5.1,6.7,9.2,7.7c3.1,0.7,6.6,0.6,9.8,0.1c11.7-2,23.4-2.1,35.2-0.6
			C269.7,121.2,273.1,121.6,276.4,122z"/>
		<path d="M251.5,189.9c2,0,4-0.1,6,0c4.7,0.2,8.8,2,11.6,5.8c4.5,6.1,9.8,11.2,16.6,14.8c2.2,1.1,4,2.7,5.2,5.2
			c2.3,4.7,6.3,7.6,11.2,9.2c2.1,0.7,4,1.6,6.1,2.2c6.3,2,8.3,7.1,9.7,12.8c1.3,5.3,2.5,10.7,4.4,15.8c3.3,8.8-1.7,18.3-11,20.3
			c-1.9,0.4-3.9,0.9-5.9,0.9c-4.6,0-8.5-1.8-10.7-6c-1.5-2.9-2.8-6-4.2-9.1c-1.6-3.7-3.3-7.3-6.4-10c-2.9-2.4-5.6-2.3-8.3,0.4
			c-3.3,3.2-4.7,7.3-4.8,11.7c-0.1,4.1,0.6,8.3,0.7,12.4c0.1,5.2,0.5,10.4-0.1,15.5c-1.2,11,4.2,15.8,12.2,17.1
			c4.7,0.7,9.1,2,12.8,5c1.7,1.3,3.5,2.7,4.8,4.3c3.6,4.4,8,7.9,12.3,11.5c2,1.7,3.7,4.5,4.4,7c1.9,7.2,3.1,14.6,4.8,21.9
			c1.3,5.8,0.7,11.5-0.7,17.2c-1.4,5.6-2.2,11.4-3.5,17.1c-1.2,5.1-4.6,8.7-8.5,12c-2.3,1.9-4.5,4-6.3,6.2
			c-4.7,5.7-9.9,10.3-17.6,11.1c-7.1,0.8-11.9,4.5-14.2,11.4c-0.6,1.9-1.8,3.6-2.6,5.4c-1.8,3.8-5,5.9-8.8,6.8
			c-6.2,1.6-12.4,1.7-18.7,0.1c-5.6-1.4-8.9-4.8-10.9-9.9c-0.4-0.9-0.6-1.9-1-2.8c-2-5.4-5.5-8.9-11.3-10.2
			c-3.4-0.8-6.7-1.8-9.9-3.1c-3.2-1.3-5.8-3.5-8.1-6.4c-2.8-3.5-6.2-6.5-9.6-9.4c-5.6-4.6-8.4-10.6-9.2-17.6
			c-0.3-2.6-0.9-5.3-0.8-7.9c0.5-7.2-0.4-15,7.6-19.2c5.3-2.8,16.3-3.4,19.1,5c1.8,5.5,3.5,11,5.2,16.6c0.2,0.6,0.1,1.3,0.3,2
			c1.1,4.8,4,7.7,7.8,7.8c4.7,0.2,8.7-2.5,10.1-7.3c0.6-2.2,0.8-4.6,0.7-6.9c-0.2-7.5-1.1-14.9-0.8-22.4c0.4-11.8-5.3-21.1-11.8-30
			c-1.8-2.5-5.7-3.9-8.9-5.1c-3.7-1.4-7.7-2.1-11.5-3.2c-5.3-1.4-9.2-4.6-11.2-9.8c-3.9-10.4-6.7-21.2-8.8-32.2
			c-1.4-7-0.4-13.4,2.1-19.9c1.9-4.9,2.9-10.2,4-15.4c1.4-6.7,5.4-10.9,11.9-12.8c0.6-0.2,1.2-0.5,1.9-0.6c5.3-1.5,9.8-4.2,12.5-9.1
			c1.8-3.2,4.6-5.2,7.6-7c5.7-3.3,10.6-7.3,14.1-13c2.7-4.4,7.4-5.4,12-6.1C247.2,189.7,249.4,189.9,251.5,189.9
			C251.5,189.9,251.5,189.9,251.5,189.9z M221.4,249.2c-3.3,0.7-6.1,2-8.2,4.6c-7.7,9.9-8,25.6,0,35.3c5.3,6.4,11.3,6.3,16.5,0
			c8-9.6,7.8-25.3,0.1-35.3C227.7,251.1,224.7,249.8,221.4,249.2z M291.3,368.4c-0.4-2.9-0.7-5.2-1.2-7.4c-0.7-3.7-1.6-7.5-2.2-11.2
			c-0.7-4.7-2.9-7.4-6.4-7.7c-4.6-0.4-8.6,2.2-9.8,6.6c-0.5,1.7-0.5,3.6-0.6,5.4c-0.4,7.8-0.8,15.6-1,23.4c-0.1,6.5,2,11.1,7.9,12.9
			c4.8,1.5,8.9,0.8,10.3-5.3C289.6,379.4,290.4,373.7,291.3,368.4z"/>
	</g>
	<g>
	</g>
</g>
</svg>
