<?xml version="1.0" encoding="utf-8"?>
<!-- Generator: Adobe Illustrator 19.1.0, SVG Export Plug-In . SVG Version: 6.00 Build 0)  -->
<svg version="1.1" id="Layer_1" xmlns="http://www.w3.org/2000/svg" xmlns:xlink="http://www.w3.org/1999/xlink" x="0px" y="0px"
	 viewBox="0 0 500 500" enable-background="new 0 0 500 500" xml:space="preserve">
<g>
	<g opacity="0.5">
		<path d="M1,306c2.9-2.4,4-5.6,4-9.3c-0.1-6.5,2.1-12.1,5.1-17.9c2.5-4.7,5.9-8.7,8.4-13.3c2.2-4.1,3.6-8.6,5.3-12.9
			c1.2-2.9,2.4-5.8,3.8-8.7c2.5-5.1,7.2-7.8,11.9-10.3c4.7-2.5,7.6-6.3,9.6-11c2.9-6.7,7.2-12,14-14.9c7.2-3,12.3-8,16.1-14.8
			c2.9-5.3,8.6-7.6,13.8-10.1c4.8-2.3,9.4-5,13.9-7.6c1.3-0.7,2.4-1.9,3.2-3.1c4.9-7.1,11.6-11.7,19.6-14.7c5.1-1.9,10.2-4,15.4-5.8
			c3.8-1.3,7-3.5,9.2-6.6c5.5-8.3,13.3-12.4,22.4-15.4c6.9-2.3,13.8-4.9,19.5-9.8c2.1-1.9,4.4-3.6,6.2-5.8
			c5.2-6.3,12.1-9.8,19.6-12.1c5.6-1.7,9.6-4.8,12-10.3c3.3-7.6,9.1-13,16.6-16.5c4.6-2.1,6.9-6,8.4-10.5c2.1-6.3,4.1-12.6,7.9-18.2
			c2-3,4.5-5.7,6.8-8.5c2.3-2.8,5.2-5.2,7.1-8.2c2.8-4.4,7.1-6.9,11.2-9.6c4.5-3,8.4-6.5,11.7-10.8c1.4-1.8,2.9-2.6,5.1-2.4
			c2.6,0.2,5.3,0.3,7.9,0.6c4.9,0.7,9.9,1.3,14.7,2.5c2.6,0.7,5.1,2.3,7.3,4c2.4,1.9,4.6,3.9,7.9,3.9c0.5,0,1.1,0.1,1.4,0.4
			c6,5,14.5,6.3,19.5,12.6c3.1,3.8,5.5,8.3,8,12.6c2.1,3.6,5.2,6,8.9,7.5c6.3,2.7,11.1,7.2,13.7,13.2c2.8,6.3,7.4,10.6,13.2,13.6
			c6.6,3.5,11.5,8.4,14.5,15.2c2.2,5,6.2,8.3,10.9,10.4c7,3.2,12.1,7.9,15.3,14.9c2.5,5.5,6.9,9.3,12.4,11.7c6.9,3,11.7,8,14.3,15
			c1.4,3.9,3.9,6.9,6.7,9.8c1.3,1.4,2.2,3.2,3.2,4.8c1.5,2.6,2.9,5.2,4.6,7.7c1.9,2.8,3.1,5.8,3.1,9.3c0,5,2.2,9.3,4.9,13.4
			c0,6.3,0,12.7,0,19c-1.6,4.4-3.1,8.7-4.7,13.1c-0.6,1.5-1.1,3.3-2.2,4.3c-3.1,2.8-4.2,6.2-4.1,10.3c0.1,1.3-0.4,3.2-1.4,3.9
			c-3.9,2.6-5.4,6.5-6.7,10.6c-2.9,9.4-7.5,17.5-16.1,23.2c-3.1,2-5.8,5.1-7.7,8.3c-4.7,7.6-10.9,13.2-18.5,17.7c-3,1.8-5.6,4-7.6,7
			c-4.7,7.1-11.1,12.3-19.3,15c-6.2,2.1-11.3,5.4-14.8,11.2c-3.3,5.5-8.2,8.8-14.3,10.9c-11.2,3.8-21.8,8.9-29.8,18.1
			c-5.4,6.1-13,8.4-20.5,10.6c-8.6,2.5-16.6,5.7-21.9,13.5c-1.3,1.9-3.2,3.3-5.1,4.7c-7.2,5.2-14.8,9.5-23,12.9
			c-5.5,2.2-8.8,6.1-11.5,11c-3,5.4-6.8,10.2-12.5,13.2c-2.3,1.2-4.7,2.6-6.7,4.3c-1.7,1.4-3.6,3.1-4.4,5.1
			c-3.5,7.7-6.9,15.5-9.7,23.5c-2.4,7.1-6.8,12.3-12.5,16.8c-1.8,1.4-3.6,3-4.9,4.9c-1.5,2.3-3.5,3.3-5.9,4.2
			c-2.1,0.8-4.5,1.7-5.9,3.3c-3,3.4-6.9,5-11,6.5c-2.9,1.1-5.6,2.8-8.3,4.2c-1.7,0-3.3,0-5,0c-2.3-0.8-4.8-1.4-7-2.4
			c-5.5-2.4-11-4.8-16.3-7.5c-2.3-1.2-4.4-2.9-6-4.9c-2.5-3-5.2-5.4-8.8-7.1c-4.1-1.9-8.9-2.9-11.7-7.1c-1.9-2.7-3.8-5.4-5.3-8.4
			c-2.8-5.6-6.7-9.9-12.4-12.4c-6.3-2.7-10.6-7.6-13.3-13.5c-2.9-6.4-7.5-10.5-13.6-13.7c-5-2.6-9.4-6.2-11.9-11.6
			c-3.1-6.6-7.9-11.5-14.8-14.7c-5.6-2.6-10.1-7.1-12.5-13.1c-2.3-5.7-6.3-9.5-11.9-11.9c-6.6-2.9-11.8-7.3-14.7-14.1
			c-0.3-0.8-0.8-1.5-1.1-2.2c-2-4.5-4.8-8.3-9.6-10.3c-2.6-1.1-4.9-3.2-5-6.4c-0.2-6.8-3.5-12-8-16.6C1,317.3,1,311.7,1,306z
			 M180.5,449.5c4-0.9,8-1.7,12-2.6c4.7-1.1,8-3.9,10-8.2c1.3-2.7,1.8-5.7,3.2-8.4c2.7-5.5,5.1-11.3,8.9-16.1
			c5.3-6.7,11.7-12.7,17.6-18.9c3.3-3.5,6.8-6.7,10.1-10.3c8.7-9.6,18.3-17.6,30.9-21.8c5.5-1.9,10.5-5,13.4-10.5
			c0.6-1.1,1.7-2,2.6-3c4.4-4.9,10.6-6.7,16.5-8.7c7.2-2.5,13.8-5.6,19.1-11.3c8-8.7,17.8-14.2,29.1-17.3c5.9-1.6,10.9-4.6,14.5-10
			c3.6-5.4,8.1-9.9,14.7-12.1c3.6-1.2,6.8-3.5,10.1-5.4c7.9-4.6,14-11.2,20-17.9c2.7-3.1,6-5.7,8.9-8.6c5-4.8,10.4-9.4,14.9-14.6
			c5.3-6.1,8.5-13.4,11.5-20.8c0.6-1.5,1.3-3.1,2.4-4.2c3.4-3.6,6.8-7.3,10.5-10.5c4.5-3.9,5.9-7.5,4.1-12.7
			c-0.8-2.4-3.2-4.6-5.4-6.2c-5.3-4-9.9-8.7-12.3-14.7c-2.6-6.5-7.1-11-13-13.8c-6.4-3-10.7-7.6-13.9-13.7
			c-2.8-5.2-6.5-9.6-11.8-12.4c-1.3-0.7-2.7-1.4-4-2.1c-4.1-2.4-7.3-5.4-9.6-9.8c-3.1-6.1-7.2-11.4-14-14.2
			c-6.5-2.7-11.1-7.8-14-14.3c-2.5-5.7-6.7-9.7-12.2-12.7c-5.2-2.8-9.5-6.4-11.9-12.2c-1.5-3.6-4-6.8-6.4-10
			c-3.6-4.9-8.9-5.4-14-3.8c-7.9,2.6-14.5,7.3-19.4,14.2c-4.8,6.8-8.4,14.3-11.8,21.9c-2.6,5.8-6,11.2-12,14.2
			c-7.5,3.7-13,9.6-17.7,16.4c-1.8,2.7-4.4,5-7,6.9c-3.1,2.2-6.7,3.7-10,5.6c-6.2,3.5-12.4,6.9-17.3,12.4
			c-4.5,5.1-9.1,10.3-15.8,12.6c-4.2,1.4-8.5,2.9-12.8,4.1c-5.9,1.6-10.8,4.6-13.6,10c-2.9,5.8-7.7,8.9-13.4,11.1
			c-5.9,2.2-11.8,4.5-17.6,6.9c-5.2,2.2-10.4,4.6-13.7,9.5c-3.9,5.7-9.1,9.6-15.6,11.8c-8.8,3-16.2,7.8-20.5,16.3
			c-2.3,4.5-6.6,6.3-10.7,8.5c-5.8,3.1-10.9,7.1-14.1,12.9c-2.9,5.4-6.9,9.7-12.1,12.9c-4.7,2.9-7.8,7.4-9.5,12.5
			c-2.7,8.1-5.2,16.1-11.6,22.2c-0.6,0.5-0.9,1.4-1.4,2.1c-1.9,2.4-1.7,5-0.6,7.5c0.7,1.5,1.4,3,2.4,4.3c3.1,4,5.4,8.5,7.1,13.1
			c2.8,7.7,7.9,13,15.2,16.3c5.5,2.6,9.5,6.8,12.1,12.1c3.1,6.2,7.7,10.8,14.1,13.5c6.4,2.6,10.5,7.6,13.3,13.5
			c2.9,6.1,7.2,10.6,13.1,13.7c5,2.6,9,6.6,11.4,11.5c3.3,6.7,8.2,11.6,14.7,15c5.9,3.1,9.7,8,12.2,14
			C164.3,444.9,170.2,448.8,180.5,449.5z"/>
		<path d="M180.2,236.7c-0.6-11.6,3.2-21.7,9.4-31.1c1.2-1.8,2-3.8,3.1-5.7c5.3-9,14.2-13.3,23.3-17c4.5-1.8,9.6-2.6,14.5-2.8
			c6.4-0.3,12.9,0.2,19.4,0.6c4.4,0.3,7.2,3.4,9,7.1c2.5,5.3,3.8,11,3.4,16.9c-0.2,3.7-0.8,4.4-4.3,5.6c-4.1,1.4-8.1,3.1-12.3,3.9
			c-3.7,0.7-7.6,0.9-11.3,0.3c-7.7-1.2-12.8,1.9-14,9.7c-0.4,2.8-0.4,5.7,0,8.5c0.7,5.3,5,7.8,10.2,6.2c1.1-0.3,2.3-0.5,3.3-1.1
			c5.3-3.1,11.1-3.2,16.9-3c4.7,0.2,9.2-0.2,13.8-1.7c3.5-1.2,7.5-0.8,11.3-1.3c3.3-0.4,6.5-1,9.8-1.6c4.7-0.8,9.5-2.5,14.1-2.1
			c4,0.4,8.1,2.8,11.8,4.9c8.3,4.8,12.2,12.6,12.6,21.9c0.2,5.3-0.6,10.6-1.1,15.9c-1,9.8-4.6,18.9-7.4,28.3
			c-2.3,7.8-6.9,13.1-14.7,15.4c-7.6,2.3-15.1,5.3-22.9,6.8c-9.6,1.9-19.3,3-29.1,0.9c-7.2-1.6-13-10.5-13-16c0-2,0-4,0-6
			c0.1-8.7,8.6-15.6,17.3-13.9c1.5,0.3,3,0.4,4.5,0.4c3.8-0.1,7.5,0.5,11.3,1.4c3.2,0.8,7,0.5,10.3-0.3c5.5-1.4,7.8-7,5.7-12.2
			c-0.2-0.6-0.6-1.2-0.8-1.8c-3.1-8.4-4.9-9.6-13.9-9.6c-3,0-6,0.1-9,0c-3.8-0.2-7.1,1.1-9.4,3.8c-2.9,3.5-6.5,3.6-10.4,3
			c-7-1.2-13.8-1.6-20.5,1.6c-1.4,0.7-3.3,0.7-4.8,0.3c-6.5-1.4-13-2.7-19.3-4.8c-7-2.4-12.7-6.6-14.1-14.6
			C181.7,247.9,181,242.3,180.2,236.7z"/>
	</g>
	<g>
	</g>
</g>
</svg>
