<?xml version="1.0" encoding="utf-8"?>
<!-- Generator: Adobe Illustrator 19.1.0, SVG Export Plug-In . SVG Version: 6.00 Build 0)  -->
<svg version="1.1" id="Layer_1" xmlns="http://www.w3.org/2000/svg" xmlns:xlink="http://www.w3.org/1999/xlink" x="0px" y="0px"
	 viewBox="0 0 500 500" enable-background="new 0 0 500 500" xml:space="preserve">
<g>
	<g opacity="0.5">
		<path d="M501,181c0,42.7,0,85.3,0,128c-0.5,0.7-1.1,1.3-1.5,2.1c-3.9,6.7-5.9,13.9-5.5,21.7c0.1,1.3,0,2.6,0,3.7
			c-3.3,3.3-3,3.4-5.1,8.6c-1,2.6-0.9,5.2-1.8,7.7c-1.5,4.1-1.7,8.5-3,12.7c-1.8,5.6-4.8,9.8-10.1,12.5c-3.2,1.6-5.6,4.4-6.9,7.8
			c-0.9,2.3-1.3,4.8-2.1,7.1c-1.5,4.4-3.3,8.6-7,11.6c-1.7,1.3-3.2,3-4.6,4.6c-1.9,2.2-4.1,4.2-5.6,6.7c-2.9,4.8-6.9,8.6-10.6,12.6
			c-1.3,1.4-3.8,1.3-4.2,3.6c-3.9,4-7.6,8.2-11.9,11.8c-5.2,4.4-11.7,7.3-15.2,13.7c-3.9,1.9-6.4,6.4-11.3,6.4
			c-2.1,1.8-5.4,0.7-7.2,3c-4.4,0.3-6.4,3.5-8.7,6.7c-3,4.4-6.1,8.7-11.8,9.9c-3.5,0.7-6.7,2.9-10.5,2.5c-0.5-0.1-1.1,0.5-1.7,0.7
			c-1.8,0.5-3.6,1-5.5,1.2c-5,0.7-9.7,1.9-12.8,6.1c-2.5-0.2-4.7,0-6.6,1.5c-1.7,1.3-3.7,1.6-5.9,1.5c-1.7-0.1-3.3-0.2-5,0
			c-1.7,0.2-3.6,0.2-5,1.1c-2,1.1-4.7,0.6-6,2.9c-38.3,0-76.7,0-115,0c0-1.4-1.1-1-1.8-1c-3,0.3-5.7-0.4-8.2-2
			c-2.3-1.5-4.8-2.4-7.6-2c-1.7,0.2-3-0.8-4.4-1.5c-3.9-2.2-8-4.1-12.3-5.4c-6.1-1.8-12.5-2.8-18.8-4.1c-6.1-1.3-11.4-4.1-15-9.5
			c-4.8-7.4-8.4-8.8-15.5-10.6c-2.5-0.6-5-1.5-7.3-3c-4-2.7-7-6.4-10.5-9.7c-2.6-2.4-5-4.8-8.3-6.5c-2.7-1.4-5.2-3.5-6.9-6
			c-1.6-2.3-3.8-4-5.4-6.2c-1.6-2.2-4.5-3-5.6-5.6c-4.6-2.2-7-6.4-9.5-10.5c-2-3.3-5.3-5.6-7.1-9c-0.3-0.6-1.4-0.6-2-1.1
			c-5-4.8-10.2-9.3-11-16.9c-0.2-1.7-4.2-8.8-5.3-9.2c-3.5-1.5-5.3-4.9-8-7.1c-0.6-0.5-1.4-1.1-1.6-1.8c-1-3.9-3-7.5-4-11.3
			c-1.3-4.8-1.9-9.9-3.1-14.7c-0.8-3.1-1.8-6.3-3.3-9.1C4.2,325.4,3.5,323.6,4,315c0-0.3,0-0.7,0-1c0-0.8-2.3-6.8-3-8
			c0-32.7,0-65.3,0-98c0.3-0.1,0.8-0.2,0.8-0.4c1.1-4.6,2.4-9.2,2.3-14.1c-0.1-3.8,0.5-7.8,2.8-11.3c0.6-0.9,0.7-2,1-3.1
			c1.4-3.7,2.4-7.6,4.4-11.2c1-1.9,2.6-3.7,0.6-6c-0.3-0.4-0.3-1.5,0-1.9c1.9-2.5-0.1-5.8,2-8.2c0.5-5.5,2.2-10.6,3.9-15.9
			c1.5-4.5,3.5-8.5,7-11.6c2.2-1.9,4.5-3.7,6.6-5.7c1.1-1.1,2.2-2.6,2.3-4c0.4-4,2.3-7.4,4.2-10.8c1.6-2.8,3.4-5.4,6.4-7.4
			c3-2,5.7-4.7,7.6-8.2c1.7-3,3.9-5.9,6.3-8.4c6.8-7.1,13.8-14,20.8-20.9c0.9-0.9,2-1.6,3-2.3c4.9-3.2,10-6.4,13.2-11.2
			c4.1-6.2,10.4-8.1,16.5-10.8c4,0.3,6.5-2.4,8.3-5.1c1.9-2.8,4.3-4.9,6.5-7.3c0.9-1,2.2-1.2,3.2-1.8c3.5-2,7.3-2.6,10.9-3.8
			c4.1-1.4,8.4-2.4,12.7-3c4.2-0.6,8-1.8,10.5-4.7c4.6-1.2,8.9-1.3,12.6-3.6c1.5-0.9,3-1.5,4.7-1.9c2.2-0.5,4.9-0.7,6.5-2.9
			c40.7,0,81.3,0,122,0c0.1,0.3,0.2,0.8,0.4,0.8c2,0.1,3.8,0.3,5.2,2.1c0.6,0.7,2,0.7,3,1.1c2.2,0.8,4.3,1.7,6.5,2.5
			c1.8,0.6,3.6,1.4,5.4,1.4c3.1,0,5.9,1.1,8.5,2.5c3.3,1.9,7,2.9,10.5,3.4c5.9,0.9,11.5,2.9,17.2,4.3c2,0.5,4.3,1.4,5.8,2.8
			c2.8,2.7,6.1,5,7.9,8.7c0.3,0.6,1.3,0.8,1.9,1.3c2.6,2.2,5.6,3.2,8.8,4.1c4.4,1.3,8.5,3.3,11.6,7c2.7,3.1,5.3,6.4,8.7,8.8
			c0.9,0.7,1.7,1.5,2.6,2.1c2.8,2,5.7,4,8.5,6c2.5,1.7,4.4,4.2,6.1,6.4c3.5,4.3,7.2,8.2,11.7,11.5c1.1,0.8,1.8,2.2,2.7,3.3
			c3,4,5.4,8.4,9.3,11.6c1.4,1.2,2.5,2.7,3.9,3.8c2.7,2.2,4.3,5.1,5.7,8.1c0.8,1.8,1.5,3.7,2,5.7c1.8,6.9,5.5,12.3,12.1,15.6
			c1.3,0.6,2.5,1.7,3.3,2.9c2,3.3,3.8,6.8,4.6,10.5c1.1,5.1,1.9,10.2,3.1,15.2c1,4.5,2.4,8.7,6,12c1.4,1.3,2.5,3.4,2.8,5.3
			c0.3,1.8,0.5,3.8,1.6,4.8C500,178,499.3,180.1,501,181z M51,157.5c0,0.9,0.2,1.6,0,2.2c-1.2,4.1-2.2,8.3-2,12.7c0,0.7,0.3,1.6,0,2
			c-1.6,1.5-0.7,3.4-1,5.1c-0.3,1.7-0.8,3.4-0.9,5.1c-0.2,2.7-1.2,5.2-1.8,7.8c-1.1,5.4-3.7,10.2-5.6,15.2c-1.1,2.8-2.3,5.7-3.4,8.6
			c-1.3,3.4-2.4,6.8-2.3,10.5c0.1,3.2-0.3,6.4,0.1,9.5c0.4,3.1,0,6.1,0,9.2c0.1,5.2-1.2,10.5,0.8,15.6c0.2,0.5,0.1,1.5-0.3,1.8
			c-1,1-0.6,2.2-0.6,3.3c-0.1,3.8-0.1,7.7,0,11.5c0.1,2.4,0.3,4.8,1.1,7c1.6,4.3,3.8,8.4,5.6,12.7c1.2,2.8,2.2,5.7,3.3,8.6
			c2.9,7.9,3.9,16.2,4.9,24.4c0.5,4.1,1.1,8.2,2.1,12.2c0.6,2.2,1.6,4.1,3.5,5.5c1.6,1.3,3.3,2.6,4.9,3.8c1.5,1.2,3.5,2.1,4.4,3.6
			c1.7,2.9,3.1,6.1,4.2,9.2c1.6,4.7,4,9,6.1,13.5c0.2,0.3,0.6,0.6,1,0.8c2.3,1.1,3.3,3.4,4.8,5.2c1.7,1.9,3.9,3.4,5.9,5
			c0.2,0.2,0.2,0.6,0.3,0.8c3.2,4.4,5.5,9.3,7.2,14.5c0.4,1.3,0.8,3.7,3.3,3.5c1.8,2.5,4.9,2.8,7.4,3.8c4.2,1.6,8.1,3.6,11.2,6.8
			c2.6,2.7,4.8,5.7,7.5,8.4c2.7,2.7,13.1,7.2,17.2,7.9c3.4,0.6,6.3,2.2,8.5,4.8c2,2.5,3.8,5.1,5.7,7.6c1.5,2.1,4.2,4.1,6.6,4.5
			c5,0.8,10,2.1,15.2,2.1c2.7,0,5.5,0.5,8,1.1c2.4,0.6,4.8,0.2,7,1c6.5,2.4,13.2,4.4,19.3,7.7c2,1.1,4.1,2.2,6.3,2.8
			c3.8,1,7.4,2.7,11.6,2.3c2.9-0.3,5.8,0.3,8.6-1.1c9.7,0,19.3,0,29,0c4.1,1.8,8.4,0.7,12.6,1c1.1,0.1,2.1-0.3,3.2-0.6
			c6.6-1.9,12.6-4.9,18.7-7.9c3.3-1.6,11.6-4,15.2-4.5c2-0.3,3.9-1.1,6.1-1c2.2,0.1,4.4-0.7,6.6-0.9c2.2-0.2,4.4-0.2,6.6-0.9
			c2-0.7,4.3-0.3,6.6-1c3.4-1,6-2.3,7.9-5.3c2.2-3.5,4.6-7,8.1-9.6c1.4-1,2.8-1.8,4.6-2.3c7.5-1.9,14.8-4.3,20.2-10.4
			c1.8-2,4-3.6,5.6-5.7c3.5-4.4,8.4-6.1,13.3-7.8c5-1.7,8.6-4.9,10-9.8c0.8-2.8,2.6-4.9,3.2-7.7c0.7-3.1,3.7-4.5,5.6-6.6
			c1.6-1.9,3.6-3.5,5.3-5.3c1.1-1.2,2-2.5,3.1-3.7c3.7-4.2,5.2-9.5,6.9-14.6c1.4-4.5,4.1-7.9,7.5-10.9c1.6-1.4,3.8-2.2,5.5-3.6
			c2-1.6,3.6-3.8,4.1-6.2c1.1-5,2.4-10,2.1-15.2c0-0.5-0.2-1.2,0-1.5c1.3-1.4,0.8-3,1-4.6c0.2-1.7,0.8-3.4,0.9-5.1
			c0.2-2.2-0.7-4.8,0.2-6.4c1.1-1.9-0.1-4.3,1.8-5.8c0.7-6.3,4.2-11.3,7.2-16.5c2.1-3.7,3.9-7.4,3.9-11.9c0-3.3-1-6.4-1-9.6
			c-0.1-10.2-0.1-20.3,0-30.5c0-1.2,0.3-2.5,0.6-3.7c0.6-2.6,0.8-5.7,0.1-8.3c-0.8-2.6-1-5.4-2.6-7.9c-1.5-2.4-2-5.5-3.3-8.1
			c-4.7-8.9-7.3-18.3-7.8-28.3c0-0.5,0.2-1.2,0-1.5c-1.8-1.7-0.6-3.8-1-5.6c-0.4-2-0.7-4.1-1-6.1c-0.4-2.2-0.5-4.5-1.2-6.5
			c-0.7-1.9-1.8-3.8-3.2-5.1c-1.7-1.6-3.9-2.6-5.8-4c-3.6-2.5-4.6-3.7-6.8-8.6c-1.5-3.4-2.7-6.9-4-10.3c-1.3-3.6-3-7.2-5.9-9.5
			c-3-2.3-5.6-5-8.3-7.6c-1.5-1.4-3.6-3.2-3.6-4.9c-0.1-2.5-2.5-3.6-2.6-6.1c-0.1-2.1-2.1-4.1-2.9-6.2c-0.9-2.3-2.6-3.5-4.7-4.1
			c-4-1.2-7.7-3.1-11.4-5.1c-2.2-1.2-4.4-2.9-5.9-4.9c-1.4-1.8-2.4-3.7-4.6-4.5c-0.2-2.9-2.9-3.2-4.6-4.5c-3.9-2.9-8.2-5.1-13-6
			c-3.9-0.7-7.1-2.4-9.9-5c-2.7-2.5-4.5-5.8-6.3-8.9c-1.1-1.8-2.6-2.6-3.9-3c-3.2-0.8-6.4-1.3-9.7-2.1c-1.9-0.5-4.1,0.3-6-0.2
			c-2-0.5-4-1.3-6.1-0.9c-2.1,0.5-3.6-1.1-5.6-1.1c-2.5,0-4.9-1-7.3-1.7c-8-2.3-15.5-6-23.2-9.2c-2.9-1.2-5.9-2.1-9.1-2.1
			c-3.3,0.1-6.7-0.1-10,0c-3.2,0.2-6.4,0.7-9.6,0.9c-9.6,0.7-19-1.1-28.6-1c-2.2,0-4.5-0.6-6.5,0.1c-5.5,1.9-11.3,3.3-16.4,6.2
			c-1.1,0.6-2.1,1.5-3.3,1.7c-6.6,1.3-12.4,5.5-19.4,5c-1.9,2-4.4,0.5-6.6,1c-2.2,0.5-4.3,1.2-6.6,1.1c-1.5-0.1-3-0.2-4.7,0.6
			c-2.5,1.1-5.5,1.1-8.2,1.5c-2.8,2.7-5.4,5.2-6.9,8.8c-1.9,4.1-5.4,6.1-9.9,7.3c-2.4,0.7-5.4,0.5-7.3,2.8c-4.9,1-8.7,3.6-12,7.2
			c-2.4,2.6-4.9,5-7.4,7.4c-3.1,3.1-6.7,5-10.8,6.5c-2.8,1.1-5.9,1.8-8.3,4.4c-2,2.3-2.7,5-3.7,7.5c-1.6,4.2-3.6,8-6.8,11.2
			c-3.1,3-6.1,6.1-9.2,9.2c-0.8,0.8-1.6,1.6-2.1,2.6c-2,3.8-3.8,7.7-5.1,11.9c-1.4,4.6-3.1,9.3-7.4,11.8
			C57,151.8,54.1,154.5,51,157.5z"/>
		<path d="M238.5,427c-2.9-2.9-5.9-5.3-7-9c-0.9-2.8-1.7-5.6-2.5-8.5c-1.6-5.8-4.2-11-8.9-14.8c-1.9-1.5-4.4-2.7-5.4-4.7
			c-2.1-4.3-6.3-5.5-9.9-7.6c-2.1-1.2-4.6-1.7-7-2.5c-1.2-0.4-2.4-0.7-3.5-1.2c-5-2-7.5-6.3-9.3-11c-2.6-6.5-2.2-7.2-9.4-11.9
			c-5.6-3.7-7.1-5.5-9.1-12.1c-0.8-2.7-1.3-5.6-1.4-8.4c-0.2-4.5,0-9-0.1-13.5c-0.2-5.1,2.2-9.2,5.4-12.8c3.8-4.2,10.2-4.1,15.6-0.9
			c4.5,2.7,6.7,7.1,8.9,11.3c2.2,4.3,4.5,8.2,7.9,11.8c2,2.1,3,5.4,4.3,8.2c2.5,5.5,5.2,10.7,11.1,13.5c2.4,1.2,4.2,0.7,5.6-0.5
			c3.8-3.1,6.6-6.8,6.4-12.3c-0.4-9.4-1.4-18.7-1.1-28.1c0.3-9.5,0.2-19,0-28.5c-0.1-3.3-0.9-6.7-1-10.1c-0.1-3.1-1.5-6-2.1-9.1
			c-0.3-1.8-2.1-3.8-3.8-4.8c-2.6-1.6-5.2-3.2-8.4-3.8c-4.3-0.8-8.6-1.8-12.7-3.1c-5-1.6-9.9-4.2-12-9.9c-0.6-1.7-1.8-3.2-2.5-5
			c-1.9-5.1-6.5-8-9.9-11.9c-3.3-0.4-3.3-4.1-5.6-5.6c-2.3-5.3-4.3-10.6-5.2-16.4c-1-6.1-0.6-12.1-0.8-18.1c-0.2-6-0.3-12,0-18
			c0.2-4.9,1.3-9.7,3-14.2c1.1-3,3.8-5,6.5-6.7c6.8-4.3,6.8-4.2,9.8-10.8c1.1-2.5,2.4-5,3.7-7.5c1.4-2.6,5.6-5.5,9.6-6.7
			c2.5-0.8,5.2-1.1,7.6-2.1c2.1-0.9,4.3-1.6,6.1-3.6c3.4-3.9,7.2-7.4,10.9-11c3.7-3.7,5.4-8.2,7-13.1c1.3-4.1,1.7-8.5,4.7-12.1
			c3.2-3.8,8.3-6.2,12.9-4.8c7.3,2.2,13.4,5.9,17.8,12.6c2.1,3.1,4.3,6.2,6.5,9.3c2.3,3.3,5.5,5.8,9.1,7.8c4.5,2.5,8.6,5.3,11.4,9.9
			c2.1,3.5,6.2,5,9.9,6c4.4,1.2,8.6,2.9,12.2,5.5c1.5,1.1,2.6,3.2,3.3,5.1c3,9,0.2,17.2-7.1,23.2c-3.7,3-6.9,3.2-11.9,0.9
			c-3.4-1.5-6.8-3-9.9-5c-3.7-2.3-7.7-1.8-11.4-1.3c-2.9,0.4-5.2,3-6.7,5.8c-1.2,2.2-2.3,4.4-2.1,7.2c0.3,2.8-0.4,5.7,0.1,8.5
			c1.9,10.2,0.5,20.4,0.9,30.6c0.1,3-0.8,6-0.9,9.1c-0.2,5.3,1.4,10.2,2.7,15.3c1.3,4.9,4.4,8.9,5.4,13.8c0.3,1.4,2.5,2.5,3.9,3.5
			c3.4,2.3,7.5,2.8,11.3,4c3.2,1,6.7,1.6,9.7,3.1c4.4,2.2,8.5,4.8,11,9.5c2.2,4,4.7,7.8,7.4,11.4c1.4,1.9,3.5,3.4,5.5,4.6
			c3.5,2.2,6.5,4.6,7,9.1c4,6.6,4.4,14,5,21.5c0.4,4.7,0.9,9.4,0.8,14.1c-0.1,2.9,0.6,5.7-0.8,8.7c-1.1,2.3,0.2,5.3-1,8.1
			c-0.8,1.9,0,4.4-1.1,6.5c-1.3,2.4-2,5.3-3.6,7.5c-1.3,1.7-3.4,2.8-5.2,4.1c-4.2,2.9-7.1,6.5-8.3,11.7c-1.5,6.5-5.5,11.2-12.2,13.3
			c-2.8,0.9-5.6,1.6-8.3,2.9c-2.1,1-5.4,2.4-6.5,3.7c-1.4,1.6-3,2.8-4.1,4.8c-0.9,1.5-3.4,2.1-5,3.3c-1.6,1.3-3.2,2.7-4.8,3.9
			c-3.7,2.9-6.8,6.5-8.9,10.7c-3.4,6.7-8.9,11.5-14.9,15.5c-2.1,1.4-4.8,2.3-7.6,2.1C243.3,426.9,240.9,427,238.5,427z M307.1,315.8
			c-0.2-0.9-0.7-2.6-1.1-4.2c-1.8-7.4-0.1-6.7-6-12c-4.5-4.1-7.2-9.1-9.1-14.7c-1.2-3.5-2.9-7.1-7.3-7.9c-2.1-2.2-4.1-0.2-6.2-0.1
			c-7.3,0.5-11.8,10.6-10.1,15.9c0.2,0.6,0.7,1.1,0.7,1.7c0.1,4.7,0.2,9.3,0,14c-0.3,4.8,0.8,9.4,1,14.1c0.1,1.5-0.7,3-0.9,4.6
			c-0.2,1.6,0,3.3,0,5s0.6,3.7-0.1,4.9c-1,1.7,0.3,2.8,0.2,4.3c-0.4,4.2,1.6,7.4,4.8,10c3.9,3.2,7.6,3.3,12.3,1.2
			c4.7-2.1,6.8-6.4,8.7-10.4c1.8-3.8,3.7-7.3,6.8-10.2C305.1,327.8,306.5,322.5,307.1,315.8z M230,164.6c0-1.3,0.1-2.7,0-4
			c-0.3-3.9-1.6-7.5-4.9-9.9c-2.3-1.7-5-2.7-7.9-0.7c-2.1,1.5-4.5,2.4-5.9,5c-1.1,2-2.2,4.1-3.3,6.1c-2,4-4,7.8-7.4,10.9
			c-3.3,3-5,6.9-4.6,11.5c0.1,1.7,0,3.3,0,5c0.1,5.3,1.5,10,5.7,13.6c0.9,0.8,1.7,1.6,2.5,2.5c2.2,2.5,3.7,5.3,5,8.4
			c1.5,3.5,2,7.7,5.5,10.2c1.7,1.2,3.1,2.9,5.4,2.7c2.3-0.3,4.6-0.8,6.3-2.8c2.3-2.6,3.2-5.7,3.6-9c0.6-4.4-1.1-8.7-1-13.1
			C229.3,188.9,228.2,176.7,230,164.6z"/>
	</g>
	<g>
	</g>
</g>
</svg>
