<?xml version="1.0" encoding="utf-8"?>
<!-- Generator: Adobe Illustrator 19.1.0, SVG Export Plug-In . SVG Version: 6.00 Build 0)  -->
<svg version="1.1" id="Layer_1" xmlns="http://www.w3.org/2000/svg" xmlns:xlink="http://www.w3.org/1999/xlink" x="0px" y="0px"
	 viewBox="0 0 500 500" enable-background="new 0 0 500 500" xml:space="preserve">
<g>
	<g opacity="0.5">
		<path d="M251.3,282.4c5.7,0.5,11.1,0.8,16.6,1.5c4.5,0.5,8.6,2.4,12,5.5c2.5,2.3,5.6,3.5,8.9,4.2c4.7,1.1,9.4,2,14,3.2
			c7.7,1.9,12.2,7.4,12.4,15.4c0.1,3.2,1.1,6.4,0.2,9.8c-1.4,5-6.4,8.5-11.4,6.8c-2.6-0.9-5.2-2.1-6.6-4.9c-2.2-4.3-5.9-6.1-10.7-7
			c-9.1-1.7-18.1-4.1-27-6.6c-6.2-1.7-12.3-1.6-18.1,0.5c-8.6,3.2-17.7,4.4-26.6,6.2c-4.7,0.9-8.2,3.1-11,6.9
			c-3.3,4.5-8.8,5.9-14,2.1c-2.8-2.1-3.1-5.3-3-8c0.1-4.4,0.7-8.9,2-13.2c1-3.7,4.2-6,7.9-7c5.1-1.5,10.2-2.9,15.4-4
			c4.3-0.9,8.3-2.3,11.7-5.1c3.8-3.2,8.2-4.8,13.2-5C241.9,283.6,246.7,282.9,251.3,282.4z"/>
		<path d="M251.3,387.8c0.8,0,1.7,0.1,2.5,0c10.2-1.5,18.1,7.7,19.5,18.3c1.4,10.6-3.9,17.7-11.5,23.2c-7.1,5.2-19.8,3.3-24.4-2.4
			c-2-2.5-4.3-4.7-6-7.3c-2.6-3.9-3.3-8.3-2.2-12.9c0.2-1.1,0.5-2.3,0.6-3.4c1.1-9.6,7.7-15.5,17.5-15.5
			C248.6,387.8,249.9,387.8,251.3,387.8z"/>
	</g>
	<g>
	</g>
</g>
</svg>
