<?xml version="1.0" encoding="utf-8"?>
<!-- Generator: Adobe Illustrator 19.1.0, SVG Export Plug-In . SVG Version: 6.00 Build 0)  -->
<svg version="1.1" id="Layer_1" xmlns="http://www.w3.org/2000/svg" xmlns:xlink="http://www.w3.org/1999/xlink" x="0px" y="0px"
	 viewBox="0 0 500 500" enable-background="new 0 0 500 500" xml:space="preserve">
<g>
	<g opacity="0.5">
		<path d="M249.6,171.9c7.5,0,13.6-0.3,19.5,0.1c5.6,0.3,11.2,0.9,16.7,2c3.7,0.8,7.4,2.3,10.5,4.3c4.2,2.7,8.8,3.8,13.5,4.6
			c4.1,0.7,8.1,1.6,12.2,1.8c7.6,0.4,13.5,4,18.9,8.9c3.1,2.9,6.8,4.5,11,5.4c5.9,1.3,11.5,3.2,15.6,8.1c4.5,5.3,10.6,8.6,16.8,11.4
			c4.5,2,6.5,5.5,6.4,9.7c-0.1,4.2-2.2,7.9-6.6,9.8c-4.6,2-9.4,3.7-14.3,3.9c-3.7,0.1-7.7-0.9-11-2.6c-4.3-2.3-8.6-5.3-11.8-9
			c-3-3.4-6.4-5.4-10.5-6c-8-1.2-14.8-4.5-20.4-10.4c-1.3-1.3-3.3-2.4-5.1-2.8c-4.3-0.9-8.8-1.7-13.2-2.1
			c-9.4-0.8-18.8-1.3-28.2-2.1c-2.1-0.2-4.3-0.5-6.4-1c-5.9-1.6-11.9-0.8-17.9-0.9c-2.5,0-4.9,0.6-7.4,0.9
			c-9.5,1.2-19.1,1.9-28.7,2.1c-5.1,0.1-10.2,1.1-15.2,2.1c-3.7,0.7-7.3,2.2-10.1,5.1c-4.7,5-10.6,7.8-17.4,8.7
			c-4.3,0.5-7.8,2.3-10.8,5.5c-2.2,2.4-4.9,4.5-7.5,6.6c-7.1,5.8-15.1,7.2-23.8,4.3c-4.1-1.4-8.2-2.7-11.1-6.3
			c-2.4-3-2.5-9.6,0.2-12.4c1.5-1.5,3.3-2.8,5.2-3.8c5-2.6,9.9-5.4,14.2-9.2c1.6-1.4,2.8-3.3,4.4-4.6c3.7-3,8.1-4.6,12.8-5.3
			c5.2-0.8,9.5-3.1,12.9-6.9c4.2-4.5,9.5-6.5,15.4-7.3c5.1-0.7,10.2-1.2,15.2-2.2c4.2-0.9,8.3-2,12-4.5c5-3.4,10.9-4.4,16.9-5.4
			C232.2,171.3,241.7,172.3,249.6,171.9z"/>
		<path d="M186.6,316.5c0.6-3.7,1.1-7.1,1.9-10.5c0.9-4.1,3.8-6.7,7.6-7.9c5.2-1.6,10.5-3,15.9-4.2c4.3-0.9,8.3-2.3,11.7-5.1
			c3.8-3.2,8.3-4.4,13.2-5.1c6.5-0.9,12.9-0.9,19.4-0.8c4.3,0.1,8.6,0.6,12.8,1.2c4,0.6,7.6,2.3,10.6,5.1c2.7,2.5,5.8,3.7,9.3,4.5
			c4.7,1,9.4,2,14.1,3.2c6.4,1.6,11.9,6.5,12.1,15.1c0.1,3.4,1.2,6.7,0.1,10.3c-1.1,3.6-3.7,6.5-7.6,6.8c-4.3,0.3-7.9-1-10.2-4.9
			c-2.5-4.3-6.1-6.4-11.1-7.3c-9.1-1.6-18.3-3.1-27-6.5c-5.8-2.3-11.9-1.7-17.6,0.4c-8.6,3.2-17.7,4.4-26.6,6.2
			c-4.8,0.9-8.3,3-11,6.9c-3.4,4.9-10.1,5.8-13.9,2.3c-0.9-0.8-1.9-1.9-2.2-3C187.3,320.9,187,318.6,186.6,316.5z"/>
		<path d="M273,410.4c1.2,6.2-2.7,10.5-6.7,14.9c-3.9,4.3-8.6,6.7-14.4,6.8c-14.5,0.3-25.1-12.5-22.3-26.8c0.2-0.8,0.1-1.7,0.2-2.5
			c1.1-9.1,7.6-14.9,16.8-14.9c3,0,6,0.1,9,0c6.9-0.3,11.3,3.4,14.6,8.7C272.8,400.7,273.4,405.3,273,410.4z"/>
	</g>
	<g>
	</g>
</g>
</svg>
