<?xml version="1.0" encoding="utf-8"?>
<!-- Generator: Adobe Illustrator 19.1.0, SVG Export Plug-In . SVG Version: 6.00 Build 0)  -->
<svg version="1.1" id="Layer_1" xmlns="http://www.w3.org/2000/svg" xmlns:xlink="http://www.w3.org/1999/xlink" x="0px" y="0px"
	 viewBox="0 0 500 500" enable-background="new 0 0 500 500" xml:space="preserve">
<g>
	<g opacity="0.5">
		<path d="M251.1,388c1.8,0,3.7,0.3,5.5,0c6.1-1.1,13.9,6.4,15.5,12.7c1.2,4.7,0.9,9.5,0.9,14.2c0,3.4-2.6,5.5-4.3,7.9
			c-1,1.5-2.5,2.6-3.8,3.9c-5,5-11.1,6.5-18.3,4.5c-1.1-0.3-2.2-0.3-3.3-0.6c-4.5-1-7.1-4.7-9.8-7.9c-3.3-3.9-5.2-8.6-4.4-14
			c0.4-2.9,0.7-5.8,1.4-8.6c1.4-5.4,4.8-9,9.9-11.3c1.3-0.6,2.4-0.9,3.7-0.9C246.4,388,248.7,388,251.1,388z"/>
	</g>
	<g>
	</g>
</g>
</svg>
