<?xml version="1.0" encoding="utf-8"?>
<!-- Generator: Adobe Illustrator 19.1.0, SVG Export Plug-In . SVG Version: 6.00 Build 0)  -->
<svg version="1.1" id="Layer_1" xmlns="http://www.w3.org/2000/svg" xmlns:xlink="http://www.w3.org/1999/xlink" x="0px" y="0px"
	 viewBox="0 0 500 500" enable-background="new 0 0 500 500" xml:space="preserve">
<g>
	<g opacity="0.5">
		<path d="M1,164c2.3-2.9,4.7-5.7,7-8.6c3.4-4.4,6.5-9,10.3-13c1.5-1.7,4.5-2,6.6-3.1c4-2.1,8-4.4,11.9-6.7
			c5.2-3.1,10.3-6.3,15.4-9.6c3.5-2.3,6.7-5,10.4-7c5-2.8,10-5.8,15.4-7.5c7.8-2.4,14.8-5.5,21.7-10.1c6.1-4,14.2-4.8,21.3-7.2
			c6.2-2,12.3-4.2,18.5-6.2c7.4-2.3,14.6-5.6,22.2-6.5c15.1-1.8,30.4-2.1,45.5-3.4c3.7-0.3,7.7-1,10.9-2.8c6.4-3.5,13-4.4,20.1-4.2
			c10.7,0.3,21.3-0.1,32,0.2c3.5,0.1,7.5,0.6,10.4,2.4c6.3,3.7,13,4.6,20,4.5c18.8-0.1,37.3,1.5,55.4,6.9c0.3,0.1,0.7,0,1,0.2
			c11.3,8.1,25.1,8.6,37.9,12.1c3,0.8,6.1,2.3,8.3,4.4c7,6.6,16,8,24.6,10.7c3.7,1.1,7.9,2.8,10.3,5.5c4.4,5.1,10.2,6.9,15.9,9.5
			c4.6,2.1,8.6,5.3,12.9,8c4.1,2.6,8.3,5.1,12.4,7.8c3.5,2.4,6.7,5,10,7.6c1.9,1.5,3.4,3.4,5.3,4.8c2.8,2,7.1,15.2,4.9,17.7
			c-1.7,1.9-5.2,3.6-7.6,3.3c-3.4-0.5-7.2-2.2-9.6-4.7c-4.9-4.9-10.7-7.8-17-9.9c-5-1.7-9.1-4.3-12.1-8.9c-1.6-2.3-4.7-4.2-7.5-5.1
			c-7.6-2.5-13.9-6.4-19.9-11.8c-3.4-3-8.8-4-13.6-5.2c-7.1-1.8-13.5-3.8-18.9-9.8c-3.1-3.5-9.8-3.8-15-5.3
			c-9.2-2.6-18.8-4.1-27.5-7.8c-5.6-2.4-10.7-5.7-16.9-6.3c-8.5-0.9-17-2.3-25.6-2.8c-11.8-0.7-23.6-0.7-35.4-1.1
			c-2.6-0.1-5.4-0.3-7.8-1.1c-9.9-3.3-19.6,0.1-29.3,0.7c-1.2,0.1-2.3,0.4-3.4,0.4c-12.8,0.4-25.6,0.3-38.3,1.1
			c-10.5,0.7-20.9,2.4-31.4,3.9c-2.5,0.4-5.2,1.4-7.3,2.9c-9.3,6.6-20.3,7.8-30.9,9.9c-7.5,1.5-14.4,2.9-20.3,8.9
			c-3.3,3.4-9.2,4.9-14.3,6c-7.3,1.6-13.7,4-19.1,9.6c-3,3.1-7.7,5-12,6.5c-4.7,1.6-8.6,3.5-11.6,7.8c-1.9,2.7-5.1,4.5-8,6.3
			c-5.6,3.5-11.2,7.1-17,10.2c-4.3,2.3-8.8,4.5-13.5,5.6c-2.4,0.5-5.3-1.6-8-2.6C1,168.7,1,166.3,1,164z"/>
		<path d="M111,226.9c2.1-2.5,3.6-5.8,6.3-7.3c7.4-4.1,14.4-8.4,20.5-14.5c3.2-3.2,8.9-3.9,13.4-6c4-1.8,8.8-3,11.7-6
			c6.2-6.4,13.8-8,21.9-9c8.1-0.9,16-1.9,23.1-6.5c7.2-4.6,15.7-5.2,23.9-5.5c12.6-0.5,25.3-0.4,38,0c9.9,0.3,19.5,2,28.4,7.4
			c4.8,2.9,11.3,3.8,17.1,4.3c10,0.9,19,3.4,26.5,10.6c2.4,2.3,6.3,3.4,9.7,4.5c5.9,1.8,11.3,3.9,16.1,8.3c5,4.6,11.1,8.3,17.1,11.7
			c3.9,2.1,6.4,5.4,5.9,8.9c-0.4,3.2-3,7.4-5.9,8.9c-15.3,8.4-24.6,4.9-37.3-6.9c-2.9-2.7-6.6-5.2-10.3-6c-7.8-1.5-13.9-5.1-20-10
			c-3.7-3-9.2-4.3-14.1-5c-8.8-1.3-17.8-1.5-26.7-2.2c-7.9-0.6-15.8-2.2-23.7-1.8c-16,0.7-31.9,2.4-47.9,3.8
			c-3.6,0.3-7.5-0.1-10.8,1.3c-4.9,2-9.3,5.5-14,7.9c-4.3,2.2-9,3.8-13.4,5.9c-3.9,1.8-8.3,3.3-11.5,6.1
			c-5.9,5.1-11.6,10.3-19.8,11.5c-6.2,1-18.7-3.5-22.1-8.8c-0.8-1.3-0.9-3.1-1.3-4.6C111.6,227.6,111.3,227.3,111,226.9z"/>
		<path d="M251.7,282.8c5.3,0.5,10.6,0.8,15.8,1.4c2.4,0.3,5.4,0.6,7,2.2c7.5,7.2,17.5,8,26.7,10.6c9.3,2.5,13.2,7,13.6,16.3
			c0.1,2.6,0,5.1,0,7.7c0.1,4.3-2.9,6.9-6.2,7.3c-3.1,0.3-8.2-0.8-9.3-2.9c-4-7.9-10.9-8.7-18.2-10.1c-7.3-1.4-14.3-4.2-21.6-5.2
			c-6.1-0.8-12.5-0.6-18.5,0.4c-9.2,1.5-18.4,3.8-27.4,6.4c-3.4,1-7.1,3.1-9.4,5.8c-3,3.4-6,6-10.5,4.9c-4.5-1.1-6.8-4.9-6.6-9.3
			c0.5-11,0.6-18.3,13.7-21.3c4-0.9,8.1-1.7,12-2.9c3.1-0.9,6.6-1.7,9-3.7c7.1-6.1,15.6-6.7,24.2-7.2c1.8-0.1,3.7,0,5.5,0
			C251.7,283.1,251.7,283,251.7,282.8z"/>
		<path d="M272.8,410.2c0,10.5-10.8,21.5-21.2,21.6c-11,0.1-23-11.1-22.4-21.6c0.7-12.4,4-23,24-22.5
			C264,388.1,273.9,397.4,272.8,410.2z"/>
	</g>
	<g>
	</g>
</g>
</svg>
