<?xml version="1.0" encoding="utf-8"?>
<!-- Generator: Adobe Illustrator 19.1.0, SVG Export Plug-In . SVG Version: 6.00 Build 0)  -->
<svg version="1.1" id="Layer_1" xmlns="http://www.w3.org/2000/svg" xmlns:xlink="http://www.w3.org/1999/xlink" x="0px" y="0px"
	 viewBox="0 0 500 500" enable-background="new 0 0 500 500" xml:space="preserve">
<g>
	<g opacity="0.5">
		<path d="M350,438c-1.6-3.8-4.3-6-8.3-7.2c-4.8-1.5-8.5-4.5-9.3-10c-0.8-5.7-1.7-11.5-2.4-17.2c-1.1-9.1-1.4-18.3-4.2-27
			c-1.2-3.6-3-7-4.4-10.6c-1.3-3.6-2.7-7.2-3.5-10.9c-1.2-6-3.4-11.4-8.1-15.6c-2.8-2.5-5.8-4.1-9.4-4.2c-4-0.2-7.9,0.4-11.9,0.4
			c-5,0.1-10,0.2-14.9,0.1c-2.5,0-5-0.6-7.4-0.6c-6.7,0-12.7-2-17.2-6.7c-4.1-4.3-9.1-6.5-14.2-8.9c-6.7-3-13.3-6.3-18.8-11.2
			c-3-2.8-5.4-6.3-7.7-9.7c-5-7.3-10-14.5-15.5-21.4c-3.8-4.8-5.7-10.9-6.8-17c-0.6-3.4-1-6.9-1.1-10.4c-0.2-12.8-6.8-16-17.3-16.6
			c-5.8-0.3-11.7-0.2-17.5,0c-10.3,0.2-20.7,1.6-30.9,0.7c-14.2-1.1-28.3-0.5-42.4-0.7c-6.6-0.1-13.3,1-19.9,0.8
			c-10-0.2-19.3-3.1-27.8-8.6c-2.9-1.9-5.2-4.3-6.6-7.3c-2.8-5.8-5.6-11.7-5.8-18.4c-0.2-5.1-0.7-10.3-0.9-15.4
			c-0.2-7.1-1.6-9.2-8.4-11.8c-0.8-0.3-1.5-0.7-2.7-1.2c-0.3-1.6-0.9-3.3-0.9-5.1c-0.1-16.7-0.1-33.3,0-50c0-1.3,0.3-2.6,0.4-4.2
			c5.6-1.2,8-5.7,10.5-10c2.2-3.7,4.6-7.3,5.6-11.6c0.7-3.1,2.8-5.6,5.4-7.6c2-1.5,4.1-2.8,6-4.4c1.9-1.6,3.8-3.2,5.2-5.2
			c3.2-4.7,7.6-6.9,13-7c5.5-0.1,11,0.2,16.5-0.1c4.9-0.2,9.2,1.4,13.4,3.3c3.1,1.4,6.1,2.6,9.5,2.7c1.9,0.1,3.5,0.7,4.9,2
			c2.1,1.9,4.3,3.6,6.4,5.5c1.8,1.6,3.9,2.5,6.3,2.5c4.3,0,8.7,0.2,13-0.1c2.2-0.2,4.6-1,6.6-2c2.8-1.4,5.6-2,8.6-2
			c62,0,123.9,0,185.9,0.1c4.1,0,8.3,0.8,12.4,1.2c3,0.3,5.9,0.8,8.9,0.8c25.7,0.1,51.3,0.3,77-0.1c9-0.1,17.1,1.7,24.8,5.9
			c2.8,1.5,5.5,3,8.3,4.6c5.1,2.9,8.1,7.9,11.7,12.1c3,3.5,5.8,7.1,9.4,10.2c4,3.5,7.2,7.8,10.7,11.8c1.4,1.6,3,3.1,4.5,4.6
			c1,1.1,2.2,2.1,3,3.2c2.2,3,4.9,4.9,8.8,4.6c0,20.7,0,41.3,0,62c-5.5,3.3-9.5,8.2-13.7,13c-5.7,6.7-8.2,14.4-8.3,22.9
			c-0.2,15,0.3,30-0.2,45c-0.4,11.3,2.4,22.1,3.4,33.1c0.1,0.8,0.4,1.6,0.7,2.4c1.7,5.4,3.6,10.7,5.1,16.2c1.3,4.6,3.6,8.7,6.5,12.3
			c1.7,2.1,2.4,4.2,2.5,6.8c0.3,6.3,1.5,12.5,4,18.4c0,5,0,10,0,15c-0.7,2.5-1.1,5.2-2,7.6c-2.1,5.6-2.2,11.4-2,17.2
			c0.1,2.8,0.1,5.7,0,8.5c-0.1,1.5-0.2,3.1-0.9,4.3c-2.7,4.4-4.5,9.3-8.7,12.6c-1.3,1-2.2,2.5-3.3,3.7C439.3,438,394.7,438,350,438z
			 M57.4,188.6c0.6,0.8,1.2,1.4,1.7,2.1c2.1,3.2,5,4.7,8.9,4.4c1.3-0.1,2.7,0,4,0c3-0.1,5.8,0.6,8.7,1.7c5.1,2.1,10.6,2.7,16.2,2.1
			c3-0.3,5.9-0.7,8.9-0.7c24.2-0.1,48.3,0.2,72.5-0.1c25-0.3,49.9,1.1,74.9-0.8c8.3-0.6,16.7-0.2,25-0.1c3.7,0.1,7.2,0.9,10.4,3
			c2.6,1.7,5.4,3.3,8.3,4.3c3.7,1.4,7.7,2.3,11.5,3.3c3.6,0.9,6.3,2.9,8.3,6c1,1.5,1.7,3.3,2.5,4.9c1.8,3.2,3.7,6.1,6.9,8.4
			c4.5,3.3,8.1,7.5,9.6,13.1c1,3.8,1.8,7.8,2.2,11.8c0.9,9.1,1.3,18.2,2.1,27.3c1.1,12.2,3.9,24,9.1,35.1
			c5.9,12.4,9.1,25.3,9.8,38.9c0.4,8.1,0.2,16.3,0.9,24.4c0.6,7.2,1.6,14.2,3.4,21.1c0.7,2.6,2.3,5.2,4.2,7.2
			c5.6,5.8,13,8.1,20.8,8.2c23.2,0.2,46.3,0.1,69.5,0c3.1,0,6.3-0.5,9.4-1.3c4.2-1,6.8-4.7,7-9.1c0.2-4.2-0.4-8.2-2.2-12.1
			c-2.8-6-5.4-12.2-7.9-18.3c-4.7-11.6-5.7-23.9-6.8-36.1c-0.9-10.6-1-21.3-1.1-31.9c-0.1-12.3-0.1-24.6-1.9-36.8
			c-1-6.8-2.4-13.4-5.8-19.5c-3.5-6.3-5.6-13.2-6.9-20.3c-1.4-7.2-0.6-13.9,5.5-19.1c3.2-2.7,5.7-6.1,7.1-10.1
			c2.2-6.7,6.6-11.4,12.7-14.7c6.6-3.6,8.4-9,6.5-16.4c-1.3-4.9-3.8-8.8-7.6-12c-5-4.3-7.7-9.9-8.8-16.3c-0.4-2.1-1.2-4.2-2.1-6.1
			c-1.6-3.6-4.1-6.3-8.3-7.2c-4-0.9-7.2-3.2-9.6-6.7c-1.2-1.8-2.6-3.5-4.2-5c-1.3-1.2-2.9-2.3-4.6-2.8c-6.6-1.9-13.3-3-20.1-3.1
			c-10.3-0.1-20.5,1.4-30.7,2.7c-5.1,0.7-10.3,1.3-15.4,1.3c-9,0-17.9-0.9-26.9-0.9c-77.8-0.1-155.6-0.1-233.5,0
			c-6.7,0-12.8-1.6-18.6-5c-3-1.7-6.1-3.4-9.4-5.3c-5.9,2.4-11.7,4.9-17.6,7c-4,1.5-6.9,4-8.7,7.7c-2.6,5.4-5.3,10.7-9.9,14.8
			c-3.2,3-2.9,5.9-0.2,9.3c0.5,0.6,1.2,1.2,1.7,1.8c4.5,5.2,7.5,10.9,7.1,18.1c-0.2,4.3-0.2,8.7,0,13
			C46.3,181.7,50.2,186.9,57.4,188.6z M295.1,291c0.5,0,1,0,1.5,0c7.8,0,11.3-2.7,12.5-10.5c0.9-5.6,0.2-11.2-2-16.5
			c-1.2-2.8-2.3-5.6-5-7.3c-5.9-3.7-9.7-9-12.5-15.2c-2.2-4.9-6.1-6.9-10.9-7.5c-5.4-0.6-10.9-0.8-16.4-1.1
			c-2.8-0.2-5.6-0.5-8.4-0.8c-6.6-0.7-12.9,0-18.9,3.2c-3.6,1.9-5.6,4.7-5.9,8.6c-0.2,2.3-0.2,4.7,0.2,7c1.5,7.8,3.7,15.5,6.4,23
			c2.5,6.9,7.3,10.2,14,12.1C264.5,290.5,280,289.4,295.1,291z"/>
		<path d="M326.1,176.1c-3.4,1.8-6.5,2-9.9,1.2c-3.7-0.8-7.5-1.2-11.3-1.3c-5.3-0.2-10.7-0.2-16,0c-57.3,2.2-114.6,0.4-171.9,1
			c-5.1,0.1-10.3,0.9-15.4,0.9c-5.1,0-10.3-0.6-15.4-1c-0.9-0.1-2.1-0.4-2.7-1.1c-5-5-11.3-9.2-11.6-17.3c0-0.8-0.5-1.6-0.8-2.4
			c-1.7-4.6-0.8-7.5,2.9-10.5c4.6-3.6,10-5.1,15.8-5.6c1.3-0.1,2.7,0,4,0c70.1,0,140.3,0.1,210.4-0.1c10,0,17.3,4,23.3,11.3
			c1.5,1.8,2.2,4.5,2.4,6.9C330.4,164.3,329.2,170.3,326.1,176.1z"/>
	</g>
	<g>
	</g>
</g>
</svg>
