<?xml version="1.0" encoding="utf-8"?>
<!-- Generator: Adobe Illustrator 19.1.0, SVG Export Plug-In . SVG Version: 6.00 Build 0)  -->
<svg version="1.1" id="Layer_1" xmlns="http://www.w3.org/2000/svg" xmlns:xlink="http://www.w3.org/1999/xlink" x="0px" y="0px"
	 viewBox="0 0 500 500" enable-background="new 0 0 500 500" xml:space="preserve">
<g>
	<g opacity="0.5">
		<path d="M501,190c0,40.3,0,80.7,0,121c-2.2,3.5-4.2,7.1-3.9,11.5c0.2,3.6-1.2,6.3-3.7,8.8c-3.5,3.5-6.9,7.2-10,11
			c-3.9,4.8-7.5,9.8-8.5,16.1c-0.4,2.6-0.2,5.3-0.9,7.8c-1.5,5.4-2.1,11-3.2,16.5c-0.9,4.5-2.7,9-7.4,11.9c-4,2.4-7.1,6.2-8.8,10.6
			c-2.1,5.5-5,10.5-8.3,15.3c-1.2,1.7-2.8,3.2-4.4,4.6c-5,4.3-10.4,8.3-15.1,12.9c-2.4,2.4-4.6,5.2-7.4,7.1c-4.6,3.2-8.9,6.8-14.2,9
			c-3,1.2-5.4,3.5-7.5,6.3c-2.9,3.8-6.2,7.7-10.2,10.1c-5.5,3.2-11.8,5.2-17.8,7.5c-8.6,3.2-18,4.8-25.2,11.1
			c-1.1,0.9-2.7,1.4-3.5,2.4c-1.7,2.2-3.9,3.5-6.3,4.7c-2.6,1.4-5,3.1-7.5,4.7c-46.3,0-92.7,0-139,0c-0.4-0.3-0.7-0.8-1.1-0.9
			c-5.4-1.1-10.5-2.9-15.1-6.2c-5.1,0.7-9.4-1-12.7-4.5c-3-3.2-6.9-4.6-10.6-6.2c-5.4-2.5-11.1-4.4-16.9-5.7
			c-9-2-15.6-7.6-22.1-13.3c-0.3-1.1-0.5-1.9-0.8-2.7c-1.8-5.4-4.3-10.4-8.8-14.2c-3.3-2.8-6.8-5.7-9.1-9.3
			c-4.9-7.7-12.4-13.5-16.3-21.8c-0.4-0.8-1.3-1.5-2.1-2c-3.9-2.6-7-6.1-9.6-10c-2.6-3.8-5.2-7.7-7.9-11.4
			c-4.8-6.7-10.6-12.2-18.3-15.5c-2-0.9-3.9-1.9-5.8-2.9c-3.4-1.8-5.8-4.3-6.9-8.1c-0.7-2.2-1.7-4.3-2.5-6.5
			c-1.8-5.1-4.4-10.2-5.2-15.5c-0.7-4.7-2.6-8.7-5-12.3c-2-3-3.3-6-4.3-9.3c-1.2-3.9-2.6-7.9-5.9-10.7c0-33.3,0-66.7,0-100
			c0.7-1.3,1.5-2.5,2-3.8c3.3-8.7,7.1-17.2,11.8-25.2c0.1-6.2,1.2-12.1,3.2-18c1-3,1.8-6,2.8-9c0.4-1.4,0.9-2.8,1.6-4
			c2.6-4.4,5.3-8.7,8-13.1c1.4-2.3,3.1-4.4,3.9-6.9c1.9-5.9,5.5-10.4,9.8-14.8c3.9-4,7.3-8.4,9.3-13.9c2-5.3,5.3-10.2,9.7-13.7
			c6.2-4.9,11.9-10.4,19.5-13.5c1.9-0.8,3.9-2,5.3-3.5c5.7-6,13-9.7,20-13.7c7.1-4.1,14.7-7.5,22-11.3c3.5-1.8,6.9-4,10.2-6.1
			c5.5-3.6,9.7-8.4,12.6-13.4c3.8-2.4,7.4-3.8,9.9-6.3c4.9-5,11.2-7.9,17.2-10.8c5.6-2.7,10.8-5.5,15.3-9.9c40,0,80,0,120,0
			c6,3.8,12.3,7.2,19,9.5c1.4,0.5,2.9,0.7,4.2,1.3c6.3,3.3,12.5,6.8,18.8,10.2c3.2,1.7,6.5,3.4,9.6,5.3c1.7,1,3.6,2.1,4.7,3.6
			c3.6,5.4,7.5,10.4,12.4,14.8c3.8,3.4,6.7,7.8,10.2,11.5c7.5,8,15.1,15.9,22.8,23.8c3.7,3.9,8.2,6.7,12.6,9.6
			c5,3.3,9.8,6.8,14.4,10.5c7.9,6.3,15.6,12.8,23.3,19.3c5.7,4.9,10.6,10.4,13,17.9c1.5,4.9,3.6,9.6,5.6,14.3
			c0.8,1.9,2.5,3.5,3.4,5.4c4,8.4,7.5,17,9.4,26.1C498.7,186.3,500.1,188.1,501,190z M410.8,382.9c2.3,0,4.7,0.2,7,0
			c7.5-0.6,14.7-2.1,20.6-7.5c2.7-2.5,5-5.2,6.7-8.5c2.6-5,4.7-10.2,8.6-14.6c2.2-2.5,3.5-6,4.7-9.2c1.6-4.2,3-8.3,5.1-12.3
			c4.5-8.5,4.8-18.5,9.4-27.1c0.1-0.1,0-0.3,0.1-0.5c1.2-3.9,2.4-7.8,3.8-11.7c1.6-4.8,3.6-9.5,3.4-14.8c-0.3-7.1-0.4-14.3,0-21.5
			c0.6-9.3-1.8-18-3.4-27c-0.5-2.9-1.2-5.8-1.6-8.7c-0.9-6.4-2.1-12.7-4.2-18.8c-1.1-3.1-2.7-5.9-3.3-9.3c-0.5-3-1.8-6.1-3.4-8.7
			c-3.8-6.2-7.9-12.2-11.9-18.3c-2.7-4-5.6-7.8-8.1-11.9c-2.7-4.4-5.2-8.8-6.5-13.9c-1.6-6.3-4.9-12-8.9-17.2
			c-4.7-6.2-10.2-11.8-15.4-17.5c-1-1.1-2.2-2-3.4-2.9c-4.9-3.7-9.8-7.4-14.6-11.1c-3-2.3-5.9-4.7-8.9-7.1
			c-5.5-4.5-11.5-8.3-16.2-13.8c-3.9-4.7-8.1-9.2-12.5-13.5c-6.2-6.2-12.7-12.1-19.1-18.2c-0.6-0.6-1.4-0.9-2.1-1.4
			c-6.3-5-14-7.6-21-11.3c-2.4-1.3-5.3-1.8-8.1-2.4c-2.9-0.6-6-0.5-8.8-1.3c-7.5-2.2-13.9,0-19.1,5.2c-4.7,4.7-6.8,10.5-4.4,17.2
			c0.8,2.2,1.7,4.4,2.2,6.6c0.4,1.5,0.4,3.3,0.2,4.8c-1.3,9.4-2.7,18.7-1.9,28.5c0.8,9.4,2.1,19.3-1.5,28.7c-0.1,0.3-0.1,0.7-0.1,1
			c-0.3,5.9-0.9,11.9-1,17.8c-0.2,10.3,0,20.7-0.1,31c0,4.5,0.5,9-1.9,13.1c3.3,2.6,4,5.9,3.9,9.6c-0.2,6.3,0,12.7-0.1,19
			c0,1.8-0.4,3.6-0.8,5.4c-1.3,5.8-2.8,11.5-4.2,17.3c-0.4,1.6-0.7,3.2-1.4,4.7c-1.5,3.6-2.2,7.3-1.2,11.4
			c6.9,4.9,9.5,12.7,12.7,20.2c2.6,6.2,6,11.8,11.1,16.3c3.2,2.8,7,5.1,10.5,7.6c1.2,0.9,2.6,1.6,3.5,2.7c2.4,2.7,4.4,5.9,7,8.3
			c5.2,4.8,10.1,10,16.7,13c4.5,2,8.7,4.8,13,7.2c9.5,5.3,17.2,12.9,26,19.1c3.4,2.4,6.7,4.9,8.8,8.7c0.4,0.7,1.3,1.1,1.8,1.7
			c1.6,1.6,3.4,3.1,4.7,4.9c2.3,3.2,4.4,6.6,6.6,9.9c5.8,0.1,8.8,4.5,12.7,7.5C406.9,372.5,408.2,377.7,410.8,382.9z M238,91.8
			c0-11.8-0.2-23.7,0.1-35.5c0.1-7-2.2-12.7-7.4-17.2c-5.4-4.7-11.5-6.3-18.5-4.3c-2.2,0.6-4.5,0.8-6.8,1.2
			c-0.8,0.1-1.6,0.3-2.4,0.5c-10.3,3.7-20.4,8-30.1,13c-6.2,3.2-12.5,6.2-18.9,8.9c-8.1,3.5-14.9,8.5-19.7,16.1
			c-1.1,1.7-2.3,3.4-3.9,4.5c-4.7,3.3-9.6,6.5-14.5,9.5c-6.1,3.8-12.3,7.5-16.8,13.1c-6.4,8.2-12.2,16.9-18,25.6
			c-2.1,3.1-4.4,5.6-7.3,8c-4.8,3.9-9.3,8-11.4,14.1c-2.3,6.4-4.9,12.7-7.7,18.9c-2.2,5-5.1,9.2-8.6,13.2c-3.4,4-6.8,8.2-8.8,13.2
			c-1.7,4.1-3.3,8.3-4.8,12.5c-2,5.8-3.8,11.6-3.5,17.9c0.3,7.3,0.1,14.7,0.1,22c0,1.2-0.1,2.4,0.1,3.5c1.2,6.1,2.5,12.3,3.7,18.4
			c0.5,2.3,0.8,4.6,1.2,6.8c1,6,1.7,12.1,2.9,18c1.3,6.8,2.8,13.6,4.3,20.3c0.9,3.7,1.9,7.4,4.6,10.4c2.5,2.8,5,5.7,7.5,8.6
			c3.1,3.6,5.2,7.4,5.9,12.3c0.8,5,2,10.1,5.7,14.1c1.7,1.8,3.1,3.9,4.3,6c3.3,6,7.9,10.5,14.3,13.2c5.7,2.4,10.6,0.6,15.5-2.3
			c5.1-3.1,8-8.3,11.9-12.5c3.3-3.5,6-7.7,9.8-10.5c5.9-4.4,11.1-9.5,16.7-14.1c5.5-4.5,10.1-9.6,14.5-15c4.4-5.3,9.9-9.2,14.6-14.1
			c2.3-2.4,5-4.3,7.3-6.7c2.8-2.8,5.3-5.9,8-8.9c2-2.2,4.1-4.4,5.7-6.9c2.3-3.7,4.9-6.9,8.6-9.4c4.1-2.8,7.7-6.3,12-8.8
			c12.1-6.9,21.8-16.2,28.7-28.3c1.5-2.5,2.7-5.5,3.1-8.3c0.7-6.5,1.1-13.1,1.1-19.7c-0.1-17.4-0.6-34.9-0.9-52.3
			c-0.1-5.3,0.1-10.7-0.1-16c-0.1-3.3-0.7-6.6-1.1-9.8c-0.3-2.3-0.8-4.6-0.8-6.9C237.9,116.1,238,104,238,91.8z M128.1,390.4
			c-2.3,1.2-4.6,2.3-6.8,3.5c-7.9,4.2-7.9,12.6-3.8,18.2c1,1.3,2.1,2.6,2.9,4c1.3,2.2,3,3.9,5.2,5.3c4,2.5,7.3,5.6,10,9.5
			c1.7,2.4,4.2,4.3,6.5,6.1c6.1,4.9,13.6,5.9,21,6.8c6,0.7,11.4,2.7,15.7,6.7c5.1,4.7,10.6,8.4,16.9,11.3c2.9,1.3,5.5,3,7.9,5.1
			c3.6,3.2,8,5.3,12.7,6.7c12.5,3.6,23.6-8.2,22.7-17.1c-0.4-3.4-1-6.9-1-10.3c-0.1-21.5-0.1-43,0-64.5c0-1.3-0.1-2.7,0.3-4
			c1.3-4.8,2.8-9.5,4-14.3c1.7-6.3,2.4-12.6,0-19c-1.9-5.1-3.6-10.3-5.3-15.4c-0.4-1.2-0.9-2.5-1-3.8c-0.4-6.3-0.7-12.6-1.1-18.8
			c0-0.8-0.3-1.6-0.5-2.5c-3.7-1.5-7.4-3-11.5-4.6c-9,5.8-18.1,11.7-28.5,18.5c-2.6,3.5-6.5,8.1-9.7,13c-2.6,4.1-5.8,7.3-10.3,9
			c-5.4,2.1-9.2,5.6-11.7,10.8c-2.1,4.2-4.9,8-9.2,10.1c-3.1,1.5-5.5,3.7-7.8,6.1c-2.1,2.1-4.2,4.3-6.4,6.4
			C134.3,377.8,131.1,383.8,128.1,390.4z M303.2,319c-1.9-1.1-3.4-1.8-4.7-2.8c-4.7-3.4-9.6-3.7-15.1-2.2c-7.7,2.1-18,13.9-13,23.8
			c0.7,1.3,1,2.8,1.6,4.2c1.4,3.1,2.1,6.2,2,9.6c-0.1,15-0.2,30,0,45c0.1,7.4-1,14.5-2.6,21.6c-1.1,4.6-2,9.4-2.4,14.1
			c-0.4,5.8-0.3,11.7,0,17.5c0.1,3.1,0.5,6.3,1.5,9.2c3.1,8.8,12.1,16.7,22.8,16c3.2-0.2,6.3-0.3,9.3-1.4c3.1-1.2,6.2-2.2,9.4-3.2
			c6.7-2,12.2-5.7,17.3-10.3c4.5-4.1,9.3-7.9,14-11.8c1.6-1.4,3.2-2.9,5.1-4c6-3.8,12.1-7.4,18.1-11.2c5.2-3.3,9.9-7.3,13.1-12.7
			c1.9-3.3,3.9-6.5,5.9-9.8c2-3.5,2.4-7.2,1-10.9c-1.3-3.4-3.1-6.6-5.1-9.6c-3.9-6.1-8-12.1-12.2-18.1c-1.3-1.9-3.1-3.5-5-4.8
			c-6.7-4.5-13.6-8.8-20.4-13.3c-1.6-1.1-2.9-2.7-4.1-4.2c-2.4-3-4.4-6.2-6.9-9.1c-3.5-4.2-7.3-8.1-10.9-12.3
			C317.1,322.4,311,318.9,303.2,319z"/>
	</g>
	<g>
	</g>
</g>
</svg>
