<?xml version="1.0" encoding="utf-8"?>
<!-- Generator: Adobe Illustrator 19.1.0, SVG Export Plug-In . SVG Version: 6.00 Build 0)  -->
<svg version="1.1" id="Layer_1" xmlns="http://www.w3.org/2000/svg" xmlns:xlink="http://www.w3.org/1999/xlink" x="0px" y="0px"
	 viewBox="0 0 500 500" enable-background="new 0 0 500 500" xml:space="preserve">
<g>
	<g opacity="0.5">
		<path d="M43.9,160.9c0-2,0-4,0-6c0.2-9.1-0.6-18.2-1.9-27.2c-1.5-10.2-1.3-20.6-0.9-30.9c0.2-4.2,1.4-8.5,2.9-12.5
			C47.6,74.3,56,69.8,65.6,67c5.2-1.5,10.6-2.7,16-3.7c3.9-0.7,7.9-1.2,11.8-1.4c10.7-0.5,21-2.6,31.1-6c1.9-0.6,3.8-1.3,5.4-2.5
			c7.8-5.7,16.3-9.2,25.8-11c8.7-1.6,16.8-5.2,24.9-8.8c1.1-0.5,2.2-1,3-1.8c6.3-6.2,14.4-8.7,22.6-11c4.6-1.3,9.3-2.6,13.9-3.8
			c2.5-0.6,4.7-1.9,6.2-3.9c1.5-2,3.7-3.2,5.5-4.8c6-5.2,13-5.1,19.8-3.7c5.8,1.2,11.2,3.9,16.8,6.2c5.3,2.1,10.5,4.8,15.9,6.7
			c4.2,1.5,8.7,2.1,12.9,3.5c7.3,2.5,15.1,4.2,20.7,10.3c1,1.1,2.4,1.8,3.7,2.4c7.9,3.5,15.9,6.6,24.4,8.7c3,0.7,6.1,1.3,9.2,2.1
			c5.7,1.5,10.9,4.1,15.6,7.7c3.6,2.8,7.8,4.4,12.2,5.5c8.9,2.1,17.7,3.8,26.9,4.3c11.5,0.6,22.7,2.9,33.4,7.3
			c7.7,3.2,13.9,8.3,16.1,17.1c1,3.9,1.9,7.7,1.8,11.7c-0.1,5.7-0.1,11.3,0,17c0.1,6.3-0.7,12.6-1.8,18.8c-0.1,0.7-0.1,1.3-0.2,2
			c-1.3,12.3-1.5,24.6-0.9,36.9c0.6,13-3.8,24.4-8.5,36c-2.1,5.2-3.7,10.7-4.6,16.2c-2.3,14.7-3.9,29.5-6.3,44.2
			c-1.3,7.5-3.5,14.8-9,20.7c-3.6,3.9-5.8,8.8-6.9,14.2c-1.3,6.3-2.7,12.6-4.2,18.9c-1.5,6.6-4.1,12.6-9.4,17.1
			c-3.8,3.2-5.9,7.5-7.6,12.1c-2.2,5.7-4.7,11.4-7.5,16.8c-1.1,2.1-3,3.9-4.9,5.4c-4.3,3.4-7.6,7.5-9.2,12.8
			c-2.4,7.9-6.6,14.4-13.5,19.1c-1,0.7-1.8,1.9-2.5,3c-3.1,4.5-6.3,9-9.1,13.7c-3.4,5.6-8,10.2-13.1,14.2c-4.6,3.7-8.8,7.7-12,12.5
			c-2,3.1-4.8,5.1-7.6,7c-4.4,3-9.1,5.6-13.8,8c-4.1,2.1-7.6,4.9-10.1,8.6c-3.6,5.3-8.4,8.8-14.5,10.7c-1.9,0.6-3.8,1.4-5.7,1.8
			c-3.5,0.8-6.2,2.8-7.9,5.7c-2.2,3.8-5.8,5.1-9.6,5.4c-6.3,0.4-12.5,0-18.7-2.1c-3.7-1.3-6.9-3.1-10.2-5c-3.8-2.2-8-4-12.3-5.5
			c-6.8-2.3-12.9-5.4-16.5-11.9c-1.7-3-4.3-4.9-7.4-6.5c-5.4-2.9-10.7-6-16.1-9c-4.5-2.5-6.5-7.4-10.1-10.8
			c-4.4-4.2-9-8.3-13.4-12.6c-2.4-2.3-4.7-4.7-6.6-7.4c-4-5.7-7.7-11.6-11.7-17.3c-1.2-1.8-2.6-3.6-4.4-4.7
			c-5.6-3.5-8.1-9-10.6-14.7c-0.8-1.8-1.2-3.8-2.2-5.5c-1.7-3-3.1-6.1-6.3-8.1c-4.8-3.1-7.3-8-9.5-13.1c-2.5-5.9-5-11.9-8.1-17.6
			c-1.7-3.1-4.4-5.8-6.9-8.5c-3.4-3.7-4.9-8.2-6.1-12.9c-2.3-9-4.5-18-7-26.9c-0.5-2-1.7-4-3.2-5.5c-5.4-5.2-8-11.9-9.6-18.9
			c-1.7-7.4-2-15.1-3.3-22.6c-2-11.1-2-22.4-5.9-33.2c-0.7-1.9-1.4-3.8-2.5-5.4c-5.1-7.6-6.8-16.2-7.6-25c-0.8-8.4-1-16.9-1.5-25.3
			C43.6,160.9,43.7,160.9,43.9,160.9z M251.8,462.4c3.7-0.7,7.7-0.7,11.1-2.1c6.8-2.8,13.2-6.5,18.2-12c5.2-5.6,11-10.1,18.1-12.9
			c0.8-0.3,1.5-0.8,2.2-1.1c3.5-1.3,5.9-3.6,7.6-6.8c0.9-1.6,1.8-3.2,2.6-4.8c1.9-4,4.6-7.2,8.3-9.7c3.2-2.1,6.5-4.1,8.3-7.7
			c3.1-6.1,8.2-10.3,13.6-14.3c2.9-2.1,5.7-4.8,7.4-7.9c2.9-5,5.1-10.5,7-15.9c1.6-4.7,4.6-7.9,8.5-10.7c3.6-2.7,6.8-5.9,7.8-10.6
			c0.3-1.5,0.9-2.8,1.3-4.3c2-7,5.8-13,11.1-18c3.6-3.5,5.7-7.8,6.9-12.5c2.2-9,4-18.1,6.1-27.1c1.2-5,2.9-9.9,6.5-13.8
			c4.8-5,7.4-11,8.4-17.7c0.9-6,1.4-12.1,2.1-18.2c1-8.5,2.2-17.1,2.9-25.6c0.7-8.7,2.4-17,6.7-24.8c2.4-4.4,3.9-9.2,3.4-14.4
			c-0.4-3.8-0.9-7.6-1-11.4c-0.2-6.3-0.1-12.7,0-19c0-1.5,0.1-3,0.4-4.4c1.2-5.4,1.6-10.8,1.7-16.3c0.3-8.8-3.8-15.6-9.3-21.9
			c-1.3-1.5-3.5-2.5-5.4-3.3c-7.6-3-15.7-3.9-23.8-4.9c-10-1.2-20-2.5-29.8-5.3c-3.6-1-7.5-2.6-10.1-5.1c-5.6-5.6-12.4-8.1-19.8-9.7
			c-6.9-1.6-13.9-3-20.8-4.9c-5.5-1.6-10.2-4.7-13.5-9.7c-0.6-0.9-1.5-1.9-2.5-2.3c-4.1-1.8-8.2-3.5-12.4-5.1
			c-5.1-1.9-10.5-3.2-15.4-5.5c-9.8-4.7-19.6-5-29.3-0.4c-6.5,3.1-13.3,5.1-20.2,7c-4.1,1.1-8,2.8-10.6,6.2
			c-4.4,5.9-10.5,9.1-17.4,10.7c-6.6,1.6-13.3,2.5-19.9,4.1c-5.4,1.3-10.2,3.7-14.3,7.6c-3.8,3.6-8.3,6-13.4,7.3
			c-11.6,3.1-23.4,4.3-35.2,6.1c-6.2,1-12.3,2.6-18.4,3.9c-2.9,0.6-5.1,2.3-6.6,5c-1.8,3.2-3.5,6.4-5.3,9.6
			c-3.1,5.2-3,10.9-2.3,16.5c0.7,6.1,1.8,12.1,2.7,18.1c0.2,1.3,0.1,2.7,0,4c-0.3,3.6-0.6,7.2-0.9,10.9c-0.3,4.3-0.6,8.6-0.9,12.9
			c0,0.8-0.1,1.7,0.1,2.5c1,3.3,2.2,6.6,3.3,9.8c1.5,4.2,3.4,8.3,4.5,12.6c3.1,12.4,3.3,25.2,5,37.8c1,7.7,1.9,15.4,3.5,23
			c1,4.8,2.3,9.8,6.2,13.4c3.3,3.1,5,7,6.5,11c2.5,6.7,3.8,13.7,4.8,20.8c1.5,10.6,4.9,20.3,13.7,27.4c1.2,1,2.3,2.5,2.9,4
			c1.9,4.6,3.6,9.3,5.4,13.9c1.8,4.8,4.5,8.8,9.2,11.3c1.5,0.8,3.1,2.2,3.9,3.7c2.8,5.6,5.6,11.3,7.9,17.1c2.1,5.5,5,10,10.2,13.1
			c6.1,3.6,10.9,8.5,14.3,14.9c1.1,2.1,3.1,3.9,5,5.4c4.5,3.5,8.8,7,10.9,12.6c2.1,5.5,6.1,8.8,11.7,10.7c5.7,2,11.1,5,15,9.6
			c2.6,3.1,5.3,5.9,8.6,8.2C234.1,458.2,241.7,463.4,251.8,462.4z"/>
	</g>
	<g>
	</g>
</g>
</svg>
