<?xml version="1.0" encoding="utf-8"?>
<!-- Generator: Adobe Illustrator 19.1.0, SVG Export Plug-In . SVG Version: 6.00 Build 0)  -->
<svg version="1.1" id="Layer_1" xmlns="http://www.w3.org/2000/svg" xmlns:xlink="http://www.w3.org/1999/xlink" x="0px" y="0px"
	 viewBox="0 0 500 500" enable-background="new 0 0 500 500" xml:space="preserve">
<g>
	<g opacity="0.5">
		<path d="M1,392c0-7.7,0-15.3,0-23c3.1-3.5,6.1-7,7.5-11.7c0.6-1.9,1.8-3.6,2.6-5.4c2-4.5,5.8-6.7,10.2-8.1
			c5.3-1.6,8.5-5.4,9.3-10.7c0.7-5.3,0.1-10.6-2.3-15.6c-5-10.6-6.5-21.9-3.2-33c2.6-8.7,2.6-17.4,2.6-26.2c0-1.2-0.1-2.3,0-3.5
			c0.2-1.6,0.4-3.3,0.8-4.9c1.7-6.9,3.4-13.9,5.2-20.8c0.9-3.4,2.5-6.7,2.7-10.1c0.3-5.1,1.8-9.8,2.9-14.6
			c1.4-6.5,5.6-10.9,10.9-14.3c7.6-4.9,11-13,7.2-21.4c-2.6-5.6-4.9-11.1-5.6-17.3c0-0.3-0.2-0.6-0.3-1c-0.9-3.9-2.3-7.7-2.6-11.6
			c-0.4-5.5-0.4-11,0-16.5c0.5-6.7,2.1-13.3,7.7-17.8c4.4-3.6,9-6.9,13.4-10.3c1.6-1.2,3.1-2.5,4.4-4c2-2.4,4-4.9,5.7-7.5
			c3.6-5.6,9-8.3,15.3-9.1c11.7-1.5,21.6-7.2,31.7-12.7c1.3-0.7,2.5-1.7,3.6-2.7c3.3-2.9,5.4-6.6,4.5-11c-0.5-2.7,0.5-4.2,2.5-5.3
			c3.3-2,6.7-3.6,10-5.7c2.9-1.9,6-2.6,9.5-2.6c9,0.1,18-0.1,27,0.1c4,0.1,7.9,0.7,11.8,1.3c4.1,0.7,8.2,1.6,12.1,2.8
			c3.4,1.1,7,2.1,7.3,7c0.1,1.7,1.7,3.7,3.2,4.8c2.6,2,5.5,3.7,8.6,5c2.9,1.2,4.7,3,5.4,6c0.9,3.5,1.8,7.1,2.7,10.6
			c1.7,6.9,2.7,14.1,5.2,20.8c2.2,5.9,2.8,11.9,3.7,18c0.3,2.3,1.2,4.5,2.1,6.6c1.3,2.9,3.5,3.8,6.5,3.2c2.3-0.5,3.8-2,3.9-5.1
			c0.1-3.1-0.4-6.3-0.7-9.4c-0.3-3-0.9-5.9-1.2-8.9c-0.5-4.5,1.2-8.9,1.6-13.3c0.4-5.1,1.8-9.8,3.3-14.5c0.8-2.7,1.4-5.5,2.2-8.2
			c0.5-1.7,0.9-3.7,1.9-5.1c4.5-5.8,9.9-10.7,16.7-13.9c5.6-2.7,11.7-4.9,15.6-10.4c0.5-0.7,1.7-1.1,2.6-1.1c4.8-0.1,8.5-2.6,12.3-5
			c10.3,0,20.7,0,31,0c1.9,0.9,3.8,2.6,5.8,2.6c4.3,0.1,8,1.5,11.9,3.3c3.9,1.7,7.3,3.9,9.8,7.5c0.7,1.1,1.8,1.9,2.9,2.7
			c7.2,4.8,12.3,11.6,17.4,18.4c1.3,1.7,2.7,3.4,4.2,4.8c5.1,4.6,8.7,10.1,10.2,16.8c0.6,2.7,1.1,5.5,1.7,8.2
			c0.7,0.2,1.2,0.5,1.6,0.4c1.1-0.1,2.3-0.4,3.4-0.5c7-0.8,14.1-1.4,20,3.4c3.6,2.9,6.6,6.6,9.9,9.9c2.6,2.6,5,5.4,7.7,7.7
			c7.5,6.3,12.4,13.8,11.8,24.1c-0.2,2.8-0.7,5.9,0.2,8.4c2,5.2,1.8,10.5,1.3,15.8c-0.5,5.8,1.8,10.2,5.9,13.6
			c5.3,4.4,7.7,10.4,9.8,16.5c1,2.9,1.4,6.2-1.1,8.5c-3,2.8-1.9,5.1-0.5,7.9c4.2,8.3,6,17.2,6.2,26.5c0.2,12.6-0.6,25.2-3,37.6
			c-1.1,5.5-2.7,10.7-6.7,14.8c-2.2,2.3-4.9,4-7,6.4c-4.2,4.5-5.7,10.1-5,16.1c0.3,2.6,1.2,5.2,1.7,7.8c1.1,5.1,4,8.5,8.7,10.9
			c3.8,1.9,7.7,4,11.1,6.7c5.4,4.3,11.2,8.3,15.4,14c1,1.3,2.4,2.3,3.6,3.4c0,13.7,0,27.3,0,41c-2.2,5-3.1,10.4-5.7,15.3
			c-1.6,2.9-3,4.5-6.6,5c-8.1,1.1-15.1,4.1-20.3,11.2c-6.2,8.4-14.6,13.3-25.7,12.8c-10-0.5-20-0.1-30-0.1c-1.7,0-3.3-0.2-5-0.3
			c-2.1-0.1-4.3-0.3-6.4-0.1c-4.5,0.5-10.3-2.6-12.4-6.5c-3.2-6-4.3-12.6-5.2-19.1c-0.4-3.1-1-6.6,0.6-9.5c4.3,0,8.2,0.2,12.2,0
			c8.4-0.5,16.9-1.3,25.3-1.8c6.6-0.4,13.3-0.6,19.9-1c3.5-0.2,7-1.1,10.4-0.9c6.2,0.4,11.9-1.1,17.3-3.8
			c9.2-4.6,11.1-15.8,3.6-22.3c-0.9-0.7-2-1.4-2.4-2.4c-1.2-2.8-3.5-4.4-5.9-5.9c-5.3-3.1-10.7-6-16-9c-0.1-0.1-0.3-0.1-0.5-0.2
			c-4.7-1.6-8.3-4.7-11.3-8.7c-2.1-2.8-4.3-5.5-6.6-8.1c-3.2-3.5-5.5-7.5-7.2-11.8c-1.7-4.2-1.8-8.4,0.1-12.6
			c0.7-1.7,1.2-3.5,1.5-5.3c0.9-5.6,2-11.1,2.6-16.8c0.5-4.2,2.3-7.2,5.8-9.4c1-0.6,1.7-1.5,2.5-2.4c2.7-3,5.2-6.1,7.9-8.9
			c5.4-5.6,9.2-11.8,8.4-20c-0.3-3-0.1-6,0-9c0.1-8.7-3.2-16.3-7.8-23.4c-1.5-2.3-4-3.9-6.3-5.5c-3.6-2.4-7.4-4.5-11-6.9
			c-3.6-2.3-7.3-3.9-11.7-3.7c-4.8,0.2-9.7,0.2-14.5,0c-4-0.2-7.6,0.4-10.2,3.9c-0.5,0.6-1.3,1.1-2,1.4c-4.7,2-8.3,5.4-11.6,9.1
			c-8.7,9.7-9.3,26.5-1.2,36.9c1.3,1.7,2.5,3.6,3.9,5.2c5.4,5.9,6.7,13.1,7.7,20.6c0.7,5.4,1.3,10.9,2.6,16.2
			c0.9,3.6,1.4,7.1,1.4,10.8c0,5.2-0.2,10.3,0,15.5c0.3,6.4-1.7,12.1-4.8,17.5c-2.2,3.9-3.9,8.1-6.2,11.9c-3.1,5.2-5.8,11-13.3,11.4
			c-1.7,0.1-3.7,1-5,2.2c-3.7,3.4-7.8,3.7-12.4,2.6c-5.9-1.5-12.1-2-17.6-5.2c-6-3.5-6.6-6.4-2.4-12c0.6-0.8,1.3-1.5,2.1-2.2
			c3.4-2.9,7-5.5,10.3-8.6c3.5-3.3,7-6.7,9.9-10.4c5.2-6.5,6.5-14.5,6.8-22.5c0.1-4.5-0.3-9-1-13.4c-0.6-4.2-1.7-8.4-3-12.5
			c-0.5-1.6-1.8-3.2-3.1-4.4c-2.5-2.2-4.9-2.2-7.3-0.6c-2.5,1.7-3.3,4.1-2.1,7.4c1.7,4.8,3.3,9.5-0.4,14.1c-0.9,1.1-1.3,2.8-1.3,4.2
			c0,5.1,0,10.3,0.5,15.4c0.4,3.4,0.1,6.2-2.6,8.5c-6,5-11.8,10.3-17.8,15.2c-2.2,1.8-3.9,3.7-4.7,6.3c-1,3-2.3,6.1-2.2,9.1
			c0.2,4.7,0.9,9.3,5.2,12.8c7.1,5.7,15.3,8.6,23.8,11.1c1.7,0.5,3.6,0.9,5.1,1.8c6.6,4.1,11,9.9,13.2,17.5c1.9,6.7,4.2,13.3,6.2,20
			c1.1,3.8,2.2,7.7,2.6,11.6c0.4,3.6,0.4,7.5-0.6,10.9c-1.6,5.7-3.8,11.3-7.9,15.9c-1.8,2-3.5,3.7-6.1,4.9
			c-4.2,1.9-8.2,4.2-11.5,7.7c-4.1,4.3-8.9,8-14.7,10c-39,0-78,0-117,0c-1.2-0.6-2.3-1.6-3.5-1.7c-7.2-0.5-14-2.5-20.9-4.7
			c-4.3-1.4-7.8-3.4-11-6.5c-2.4-2.3-4.8-4.9-7.8-6.2c-4.1-1.9-7.1-4.9-10.6-7.4c-2.2-1.6-3.4-3.5-3.3-6.3c0.1-6.5,0-13,0.2-19.5
			c0.1-2.1,0.9-4.2,1.6-6.2c2.1-5.4,4.3-10.8,6.5-16.1c0.6-1.4,1-2.9,1.9-4c4.6-5.6,5.4-12.3,5.6-19.2c0.1-5.4-2.2-9.8-6.3-13
			c-5.3-4.2-11.1-7.9-16.7-11.8c-1.2-0.8-2.6-1.5-4.1-1.9c-4.8-1.2-9.7-2.2-14.5-3.3c-2.6-0.6-5.4-0.9-7.5-2.3
			c-3.8-2.5-6.4-6.3-8.3-10.4c-0.5-1.1-0.5-2.7-0.1-3.8c1.4-3.9,3-7.7,4.8-11.4c0.9-1.9,2.1-3.8,3.5-5.4c5.5-6,10.5-12.3,14.8-19.3
			c3.7-6.1,5.3-12.6,6.1-19.3c0.9-7.7,0.8-15.6,1.2-23.4c0-0.8,0-1.7,0.1-2.5c1.7-7.9,1.9-15.8,1.9-23.8c0-5.4-1.6-9.7-5.8-13.1
			c-3.3-2.8-6.2-6-9.6-8.7c-7.1-5.4-14.7-9.4-24.1-9.8c-5.6-0.2-11.2,0.1-16.8,0.2c-9.7,0.3-17.1,4.6-21.9,13.3
			c-4.4,7.9-7.5,16.2-10.9,24.5c-4.3,10.4-6.6,21.2-7.5,32.4c-0.4,4.7-0.8,9.2-2.9,13.5c-1.6,3.4-1.6,7.1-0.5,10.7
			c1.4,4.6,3.9,8.4,7.2,11.8c2.4,2.5,5.2,4.8,7,7.7c2.5,4,5.4,7.6,8.6,10.9c5.1,5.3,8.6,11.4,7.6,19.2c-0.5,3.9-0.2,3.9-4,5
			c-10.4,3-20.6,6.5-29.9,12.1c-5.9,3.5-7.7,8.1-5.5,14.7c0.7,2,1,4.2,1.5,6.2c1.4,5.4,3.7,9.9,9.3,12.2c3.1,1.3,6.2,2.1,9.7,2
			c25.7-0.1,51.3-0.1,77,0c3.1,0,6.3,0.4,9.4,0.9c3.9,0.6,5.5,2.5,5.5,6.4c0,1.8-0.5,3.6-1,5.4c-3.6,12.3-15.2,23.5-29.1,21.7
			c-3.7-0.5-7.2,0.5-10.8,1.7c-2.4,0.8-5.2,0.8-7.8,0.7c-5.3-0.2-10.6-0.8-15.9-1.2c-1-0.1-2,0-3-0.2c-7.4-1.7-14.8-1.8-22.3-1.9
			c-5.6,0-11.3-0.5-16.9-1.1c-1.4-0.1-2.8-1-4-1.8c-7.8-4.8-15.6-9.6-23.3-14.5c-5-3.1-9.2-7-11.2-12.9C3.4,394.5,2,393.3,1,392z
			 M285.7,457.4c0,0.1,0,0.2,0,0.4c4.8,0,9.7,0.3,14.5-0.1c3.4-0.3,6.7-1.6,10-2.7c2.6-0.9,5.1-2.4,7.8-3.2c4-1.2,6.6-3.7,7.8-7.7
			c0.4-1.4,0.9-2.9,1.7-4.1c3.8-4.7,4.7-10.1,4.4-15.9c-0.2-3.9-1.2-7.3-4.1-9.8c-2.7-2.4-5.6-4.7-8.7-6.5
			c-7.5-4.3-15.3-8-22.9-12.3c-4.8-2.7-9.4-5.5-11.2-11.4c-1.3-4.3-3.2-8.3-4.7-12.6c-0.7-1.8-1.6-3.9-1.2-5.7
			c1-5.2,2.3-10.3,3.9-15.4c2.2-7,5.3-13.7,5.7-21.1c0.3-5.3,2.5-9.6,5.5-13.6c6.9-9.1,12.6-18.6,14.8-30.1
			c1.1-5.7,0.6-10.8-1.3-16.1c-2-5.5-6.2-9.4-9-14.3c-4.8-8.2-11.6-13.9-19.8-18.3c-8.4-4.5-17.6-4.7-26.6-5.5
			c-4.6-0.4-9.3,0.5-13.9,0.9c-5.5,0.5-10.9,1.5-15.1,5.6c-0.7,0.7-1.6,1.2-2.5,1.7c-6.4,3.3-8.6,8.9-8.6,15.7
			c0,6.2-0.1,12.3,0,18.5c0.1,2.6,0.4,5.3,0.9,7.9c3.1,13.3,8.2,26,13.3,38.6c1.2,2.9,2.6,5.7,5.4,7.6c1,0.7,1.6,2.1,2.1,3.3
			c1.9,4.6,3.4,9.3,3.2,14.5c-0.2,5.3-0.2,10.7,0,16c0.1,4,0.4,8,0.9,11.9c0.7,5.3-0.5,10-4.7,13.5c-3.6,3-7.1,6-11,8.5
			c-4.2,2.7-8.7,4.8-13.1,7.2c-11.2,6.3-15.6,16.7-17.2,28.7c-0.7,5.2,0.8,10.2,2,15.2c1.1,4.7,5,8.4,10,9.1c3.3,0.5,6.6,0.5,9.9,1
			c5.1,0.8,10.1,1.8,15.1,2.8c2.1,0.4,4.2,1,6.3,1.2c7.8,0.5,15.5-0.9,23.3-1.8C267.7,457.9,276.7,457.9,285.7,457.4z M165.2,284.3
			c0,8,0,16,0,24c0,2,0,4.1,0.7,5.9c2,5.6,4.3,11.1,6.5,16.7c0.5,1.2,1.4,2.4,2.4,3.2c2.8,2.3,5.3,5.6,9.5,4.4
			c2.9-0.8,4.3,0.4,5.8,2.5c2.3,3.3,4.5,6.6,5.4,10.6c0.6,2.7,1.3,5.5,1.9,8.2c0.8,3.4,3.4,5.9,6.5,5.9c2.5,0,5.5-2.6,5.8-5.3
			c0.6-6.3,0.7-12.9-1.7-18.7c-2.3-5.4-5.9-10.6-10-14.8c-3.1-3.2-4.5-6.3-4.2-10.5c0.9-14.3-1.3-28.2-5.6-41.8
			c-2.4-7.5-2.8-15.1-2.3-22.7c0.6-8.2,3.4-15.7,9.9-21.1c4.3-3.6,9.2-6.6,13.9-9.6c2.4-1.6,4.7-3.1,6.1-5.7c1.1-1.9,2.6-3.1,4.8-4
			c5.2-2,10.4-4.3,15.3-7.1c3.7-2.1,7.3-3.1,11.4-2.2c1.1,0.3,2.3,0.6,3.4,0.5c7.3-0.5,14.1,0.8,20.9,3.6c3,1.2,5.8,2.4,8.1,4.6
			c8,8,18.2,12.9,27.7,18.7c0.6,0.3,1.2,0.7,1.8,0.8c4.1,0.6,7.4,2.5,10.4,5.4c1.8,1.8,4.3,3.4,7.2,2.4c5.4-1.7,9-8.1,7.3-13.6
			c-1.7-5.4-3.8-10.6-5.6-16c-1.8-5.1-5.3-8.2-10.7-9.2c-8.9-1.7-17.3-4.6-24.7-9.9c-0.5-0.4-1.2-0.6-1.7-1
			c-5.4-3.5-10.1-7.7-12.6-13.8c-3.7-9.3-10.6-16.4-16.6-24c-2.1-2.7-5.1-4.4-8.6-4.6c-10.2-0.5-20.3-0.3-29.4,5.6
			c-1.9,1.2-4.3,2.1-6.5,2.2c-3.2,0.2-5.8,1.3-8.3,3c-1.5,1-3,2.5-4.7,2.8c-6.4,1.1-10,6.3-15.1,9.4c-1,0.6-2,2.1-2.1,3.3
			c-0.3,3.7-2.4,6-4.9,8.3c-1,0.9-1.5,2.2-2.4,3.2c-3.7,4.6-4,10.5-5.8,15.8c-2.4,7.2-3.8,14.4-3.6,22.1c0.1,2.2-0.3,5-1.5,6.6
			c-4.5,5.6-5,12.2-5.1,18.9c-0.1,5,0.7,9.9,0.8,14.9C165.3,269.7,165.2,277,165.2,284.3z M388.7,89.8c-1.7-6-2.2-11.5-8.2-13.8
			c-0.7-0.3-1.2-1.2-1.9-1.6c-6.9-4.8-13.4-10.3-21.7-12.9c-1.6-0.5-3.3-1.2-4.4-2.3c-3.1-3.4-7.2-5.2-11-7.6
			c-7.6-4.8-15.2-5.3-22.9-0.2c-1,0.6-2,1.4-3.1,1.6c-5,0.8-7.5,4.4-9.8,8.4c-1.5,2.6-3,5.2-5.1,7.3c-4.3,4.4-7.5,9.5-9.3,15.2
			c-2.1,6.6-6,12.2-8.7,18.4c-0.9,2-1.7,3.9-1.6,6.1c0.3,5.6,0.7,11.3,0.7,16.9c0,7.5,2.3,14.3,7.7,19.4c4.6,4.4,6.4,10.1,8.2,15.7
			c1.2,3.7,3.4,6.5,5.9,9.1c3,3.1,7.9,1.6,9-2.6c0.2-0.8,0.3-1.6,0.3-2.5c0.5-5.2,1.7-10.1,5.3-14.2c2.9-3.3,3.7-7.3,3.6-11.6
			c-0.1-4.1,0-8.4,0.9-12.4c1.7-8.3,4.9-16.2,8.8-23.8c1.4-2.7,3.4-4.4,6.1-5.6c3-1.4,5.9-3,8.8-4.6c2.7-1.5,5.3-2.5,8.5-2.5
			c7.3,0.2,14.6,0.1,22,0.1C380.6,89.9,384.3,89.8,388.7,89.8z M454.6,183.4c-1.5-2-2.5-3.7-3.9-5c-2.9-2.8-4.6-6.2-5.4-10
			c-0.5-2.6-1.8-4.6-4-6.1c-1.6-1.1-3.3-2.2-4.8-3.6c-1-0.8-2.1-1.9-2.3-3.1c-0.9-4.9-1.9-9.8-2.2-14.8c-0.9-13-10-21.9-22.9-21.9
			c-3.7,0-7.3-0.4-10.7-2.1c-10.4-5.1-21.3-6-32.6-3.5c-3.2,0.7-6,2.2-8,4.8c-5.5,7.1-10.4,14.6-12.7,23.6
			c-1.6,6.3-3.5,12.5-5.3,18.7c-1.3,4.5-2.9,8.9-4.2,13.3c-1.1,3.9-0.1,7.4,3.2,9.8c1.8,1.3,3.1,2.7,4.1,4.7c1.8,3.8,5.9,5,9.6,2.9
			c1.7-1,3.2-2.3,4.6-3.8c4.3-4.6,8.5-9.3,12.8-14c1.5-1.6,3.1-3,5.6-2.8c2.3,0.2,4.2-0.8,5.7-2.5c1.9-2.2,4.4-3.2,7.4-3.7
			c9.5-1.7,19.1-2.1,28.8-1.8c1.4,0,3,0.5,4.2,1.3c3.6,2.4,7.1,4.9,10.5,7.6c3.8,2.9,7.4,6.2,11.2,9.1
			C446.5,183.1,450,184.3,454.6,183.4z M181.4,55.7c-4.8,0.6-9.9,0.2-14.2,2.1c-9.1,3.9-17.9,8.8-26.6,13.5
			c-3.1,1.7-4.3,4.7-4.5,8.4c-0.2,4.7,1.3,8.3,4.5,11.7c2.4,2.5,4.3,5.5,6.1,8.4c1.5,2.4,2.2,5.2,3.8,7.4c3.3,4.6,7.1,8.8,10.3,13.4
			c3.7,5.1,7.2,10.4,10.4,15.8c1.7,2.9,3.4,5.3,7,5.6c3.6,0.3,5.9-1.5,7.6-4.6c2-3.9,5.2-6.7,9.4-7.8c4.9-1.3,8.5-4.5,12.2-7.5
			c3.2-2.6,6.6-5.6,7.1-9.9c0.4-3.6,1.5-6.8,3.2-9.8c0.4-0.7,0.8-1.5,0.8-2.3c0.2-9.2,1.6-18.7-3.4-27.3c-4.1-7-9.3-12.4-17.5-14.6
			C192.4,56.6,187,55.9,181.4,55.7z M103.4,101.2c-3.3-0.4-6.1,0.9-8.7,3.4c-1.7,1.6-4.1,2.7-6.3,3.7c-2,0.9-4.1,1.3-6.2,1.9
			c-3.9,1.1-7,3.2-8.3,7.2c-1.9,5.8-3.8,11.7-3.9,17.9c0,6,0.1,11.9,0.2,17.9c0,2.7,1.2,4.8,3.1,6.5c2.7,2.3,5.8,2.2,9,1.7
			c1.5-0.2,2.9-0.5,4.4-0.5c3,0.1,5.9,0.7,8.9,0.7c10,0.1,20,0.2,30,0c4.5-0.1,8.1,1,11.1,4.5c1.4,1.6,3,3.2,4.8,4.4
			c4.6,3,7.5,6.9,8.7,12.3c0.9,3.9,3.3,5.9,6.4,5.9c3.3,0,5.6-1.8,6.7-5.6c0.4-1.5,0.5-3.3,0.2-4.9c-1.3-6.8-4.7-12.4-10.4-16.5
			c-7.6-5.4-12.3-12.9-16.1-21.1c-3.3-7.3-6.6-14.5-9.9-21.8c-1.8-4-4.4-7-9-7.9c-2-0.4-3.5-1.7-4.3-3.8
			C111.9,102.7,108.3,101,103.4,101.2z"/>
	</g>
	<g>
	</g>
</g>
</svg>
