<?xml version="1.0" encoding="utf-8"?>
<!-- Generator: Adobe Illustrator 19.1.0, SVG Export Plug-In . SVG Version: 6.00 Build 0)  -->
<svg version="1.1" id="Layer_1" xmlns="http://www.w3.org/2000/svg" xmlns:xlink="http://www.w3.org/1999/xlink" x="0px" y="0px"
	 viewBox="0 0 500 500" enable-background="new 0 0 500 500" xml:space="preserve">
<g>
	<g opacity="0.5">
		<path d="M250,1c3,0.6,6,1.5,9.1,1.8c11.5,1.1,23,2.8,34,6.5c5.5,1.9,11.4,3.5,16.3,7.2c2.3,1.7,5.5,2.3,8.3,3.2
			c2.3,0.7,4.4,1.5,5.7,3.7c0.5,0.8,1.5,1.3,2.3,1.9c4.4,3.2,8.8,6.4,13.2,9.7c0.5,0.4,0.9,0.9,1.3,1.4c3.3,3.7,6.5,7.5,9.9,11.2
			c2.3,2.5,3.9,5.2,5.5,8.2c2.4,4.5,5.2,8.9,8.6,12.7c3.5,3.9,6.4,8.1,8.4,12.8c0.8,1.9,1.4,4.1,1.4,6.2c-0.1,3.4,1.2,6.1,2.9,8.8
			c2.1,3.5,4.2,7.1,6.2,10.7c3.2,5.7,4,11.9,4,18.2c0.1,18.8,0,37.7,0.1,56.5c0,3-0.2,6-1.4,8.8c-1.3,3.1-1.7,6.4-1.6,9.7
			c0.1,3.7,0.1,7.3,0,11c-0.3,6.8-0.6,13.6-1,20.4c0,0.8-0.3,1.6-0.6,2.4c-3.6,9.4-6.6,19.1-8.9,28.9c-0.2,1-0.4,2-0.4,2.9
			c0,4.4-1.7,7.8-5.5,10.5c-2.4,1.7-4.1,4.7-5.5,7.5c-1.9,3.9-4.6,6.6-8,9.2c-5.8,4.3-12.6,6.7-18.5,10.6c-2.9,1.9-5.7,3.7-7.9,6.6
			c-2.8,3.8-6.4,7-9.9,10.3c-1.4,1.3-3.3,2.2-5.1,3.1c-6,2.8-12,5.5-18.1,8.1c-5.2,2.2-10.7,3.4-16.4,3.4c-8,0.1-16,0.1-23.8,1.1
			c-12.3,1.6-24.6,0.6-36.9,0.7c-4.4,0-9-0.9-13.1-2.5c-3.6-1.4-6.7-4.2-9.9-6.5c-5.5-4-10.9-8.1-16.2-12.3
			c-3.4-2.7-6.4-5.8-9.7-8.6c-3.6-3.1-7.4-6.1-11-9.2c-5-4.4-9.6-9.2-13.6-14.5c-3.4-4.5-7.1-8.7-12.3-11.5
			c-3.6-1.9-5.7-5.1-7.1-9.1c-3.5-10.1-5.4-20.5-7.7-30.8c-1.6-7.3-3.8-14.5-4.6-21.8c-0.7-6.3-1.7-12.9,1.1-19.2
			c0.6-1.3,0.5-2.9,0.4-4.4c-0.1-4.7,0.1-9.3,1.6-13.8c0.5-1.4,0.4-3,0.4-4.4c0-7.8-0.1-15.7,0.1-23.5c0-2.1,0.7-4.2,1.2-6.2
			c1.1-4.5,2.2-9,3.6-13.4c1.6-4.9,3.5-9.6,5.3-14.4c1.2-3.1,2.4-6.1,3.5-9.3c1.2-3.2,2.8-6.4,3.2-9.8c0.9-6.7,4.8-11.9,7.7-17.6
			c1.3-2.5,2.2-5.1,3.5-7.6c1-1.9,2-4,3.6-5.1c6.1-4.2,12.7-7.9,17.9-13.3c0.8-0.8,1.9-1.3,3-1.8c3.3-1.7,5.5-4.4,6.1-8
			c0.5-3,1.9-4.5,4.8-5.6c6-2.4,12.1-4.8,15.7-10.8c0.2-0.4,0.7-0.7,1.1-0.9c8.9-4.7,17.1-10.9,27.2-13.3c1.4-0.3,3-1,4-2
			c2.5-2.3,5.5-3.5,8.6-4.6C240.7,1,245.3,1,250,1z M149.1,174.2c0,7.3,0,14.7,0,22c0,1.3,0,2.7,0.2,4c0.6,4.7,1.2,9.5,1.8,14.2
			c0.9,6.6,2.1,13.1,4.8,19.2c0.8,1.8,1.9,3.5,3.2,5c5.2,6.1,9.7,12.6,12.1,20.4c1.7,5.5,5.2,9.9,10,13.2c3.3,2.3,6.1,5.1,7.8,8.9
			c2.2,5.1,6.4,8.5,11.6,9.4c7.2,1.3,12.3,5.7,17.3,10.2c4,3.5,8.5,5.8,13.5,7.1c11.6,3,23.3,2.8,35,1c7-1.1,13.7-3.5,18.7-8.6
			c4.5-4.6,9.6-7.5,15.6-9.3c4.9-1.5,9-4,11.3-9c2.3-5.1,6-9,10.9-11.9c1.9-1.1,3.7-2.9,4.8-4.9c1.7-3,2.8-6.3,4.1-9.5
			c1.5-4,2.4-8.3,5.2-11.8c1.8-2.2,3.5-4.4,5.3-6.6c5.1-6,7.4-13.2,8.4-20.9c0.5-3.8,0.7-7.6,1.1-11.3c0.6-6.1,1.8-12.1,1.8-18.2
			c0-11.4,0.6-22.9-0.7-34.4c-0.8-7-1.1-14.2-2.3-21.2c-1.3-7.8-3.1-15.6-8.8-21.8c-2.2-2.4-4.2-5.2-5.8-8c-2.3-4.2-4.4-8.6-6-13.1
			c-1.8-5-4.6-9.1-8.3-12.8c-5.7-5.8-12.1-11-16.2-18.2c-2.3-4-5.9-5.9-10.1-7.5c-5.6-2-11.3-3.7-17.2-4.8c-5.3-1-10.5-3.1-15.7-4.7
			c-4.6-1.4-9.3-2.7-14.2-1.9c-5.2,0.8-10.4,1.8-15.3,4.1c-2.8,1.3-6,2.4-9,2.6c-5.9,0.5-11.2,2.8-16.8,4.5
			c-4.9,1.5-8.8,4.4-11.6,8.9c-3.2,5.1-7.5,9.3-12.6,12.6c-4.7,3-7.7,7.3-9.8,12.3c-3.9,9.6-8.7,18.6-15.5,26.5
			c-1.8,2-3,4.8-3.8,7.4c-1.9,6.2-2.6,12.6-3.3,19c-1,8.9-2,17.8-1.8,26.7C149.2,166.6,149.1,170.4,149.1,174.2z"/>
		<path d="M1,421c0.9-1.4,2.1-2.7,2.5-4.2c1.2-4.8,4.2-8.5,7-12.4c2.5-3.4,4.5-7.3,6.2-11.2c4.3-9.8,9.2-19.1,16.6-27
			c6-6.4,12.5-12.2,19.3-17.6c2.8-2.2,5.4-5.1,7.3-8.1c3-4.8,7.3-7.1,12.4-8.5c5.5-1.5,10.7-3.4,14.9-7.5c2.7-2.6,5.8-5.1,9.1-6.8
			c2.7-1.4,5.9-2,9-2.5c8.5-1.6,17.1-1.8,25.7-0.3c3.4,0.6,6.9,0.8,10.4,1.2c4.8,0.6,7.2,2,10.7,6.2c0.8,9.1-3.8,15.9-10.6,21.6
			c-0.9,0.8-2.4,1.1-3.7,1.4c-9.3,1.7-18.6,2.9-27.8,5.2c-5.4,1.3-10.3,4.4-15.5,6.7c-1.4,0.6-2.5,1.7-3.9,2.2
			c-5,1.9-8.9,4.8-12,9.2c-1.2,1.7-3.2,2.8-5.1,3.8c-7.2,3.6-13,8.4-16.6,15.8c-0.9,1.9-2.5,3.5-3.8,5.2c-1.4,1.9-3.1,3.6-4,5.7
			c-4.3,10.1-12.5,17.5-18.9,26.1c-2.3,3-5.3,5.4-6.9,9.1c-2.2,5.2-1.9,10.1,1.1,14.7c2.1,3.2,4.8,5.9,6.8,9.2
			c1.5,2.6,3.7,4.4,6.2,5.6c3.4,1.5,5.7,4,7.4,7.1c1.5,2.8,3.9,4.6,6.8,5.5c1.8,0.6,3.9,0.7,5.9,0.7c38,0,76,0,114,0
			c20,0,40-0.1,60,0c22.3,0.2,44.6-0.1,66.8,1.2c21.3,1.2,42.6,0.4,63.9,0.7c17.3,0.3,34.7,0.2,52,0c5.6-0.1,11.2-1.1,16.7-1.7
			c2.6-0.3,5.3-0.2,7.9-0.6c5.8-0.9,10.4-4.2,14.9-7.7c0.8-0.6,1.5-1.4,2.3-1.8c6.3-3.4,10.1-8.9,13.1-15.2
			c4.6-9.6,3.8-22.6-1.9-31.4c-1.9-2.9-3.6-6-5.3-9c-5-9.1-11.5-16.9-19-24.1c-1.1-1-1.7-2.5-2.6-3.6c-2.4-2.7-4.6-5.9-7.4-8
			c-4.5-3.3-8.7-6.7-12.4-10.7c-3-3.3-6.8-5.2-10.8-6.8c-6.9-2.8-13.8-5.7-20.7-8.6c-4-1.7-7.9-3.4-12-4.9c-1.2-0.5-2.6-0.4-3.9-0.5
			c-2.2-0.1-4.5,0.4-6.5-0.2c-2.9-0.9-6.3-0.1-8.7-3c-3.8-4.5-6.9-9.4-8-15.2c-0.1-0.5-0.1-1,0-1.5c0.4-1.3,0.5-2.9,1.4-3.6
			c4.6-4,9.2-8.5,15.8-8.6c13.1-0.3,25.8,1.6,37.5,7.9c8.1,4.4,16.1,9.2,24,14c6,3.6,12,7.1,17.8,10.9c6,3.9,12.1,7.5,16.9,13.1
			c4.1,4.8,8.5,9.3,12.6,14.1c5.4,6.4,7.6,14.3,9.9,22.1c0.8,2.8,2.2,5.1,4,7.3c1.2,1.6,2.5,3.1,3.3,4.9c1.5,3.3,2.8,6.7,3.9,10.2
			c0.9,3.1,1.2,6.2,0.5,9.7c-0.9,4.7-0.1,9.6-0.4,14.4c-0.3,5.3-1.1,10.5-1.6,15.8c-0.2,1.5-0.3,3-0.3,4.5c0,3.8,0,7.6,0,11.7
			c-3.2,2.4-6.4,4.7-9.5,7.1c-3.7,2.8-7.4,5.6-11.1,8.3c-6.1,4.5-12.8,7.2-20.4,8.1c-6.5,0.7-13.2,1.4-19,4.8
			c-128.7,0-257.3,0-386,0c-1.2-0.4-2.4-0.9-3.6-1.3c-6.3-2.3-12.7-4.6-19-7c-0.9-0.3-1.9-0.8-2.6-1.4c-4.5-4.2-9.7-7.8-11.5-14.3
			c-0.3-1.1-1.3-1.9-1.8-2.9c-1.1-2-2.7-3.9-3.1-6.1c-0.9-4.8-3.3-8.6-6.5-12C1,444.3,1,432.7,1,421z"/>
	</g>
	<g>
	</g>
</g>
</svg>
