<?xml version="1.0" encoding="utf-8"?>
<!-- Generator: Adobe Illustrator 19.1.0, SVG Export Plug-In . SVG Version: 6.00 Build 0)  -->
<svg version="1.1" id="Layer_1" xmlns="http://www.w3.org/2000/svg" xmlns:xlink="http://www.w3.org/1999/xlink" x="0px" y="0px"
	 viewBox="0 0 500 500" enable-background="new 0 0 500 500" xml:space="preserve">
<g>
	<g opacity="0.5">
		<path d="M1,329c0-10.3,0-20.7,0-31c0.6-1.3,1.5-2.6,1.9-4c1.1-4.1,2.1-8.3,3-12.4c4.8-2.2,6.6-6.6,9-10.3
			c2.7-4.1,6.3-6.6,11.1-7.8c8-1.9,14.5-6.6,20.5-11.8c5.4-4.7,5.6-13.9-1-18c-1.5-1-2.9-2.2-4.3-3.4c-2.2-1.9-3.8-4.3-4.3-7.1
			c-0.6-3.4-1-6.9-1.1-10.4c-0.2-6.3,0.2-12.7-0.1-19c-0.5-11.6,4.2-21.3,10.3-30.6c2.9-4.4,5.6-9.1,7.7-13.9
			c2.4-5.5,5.9-9.5,11.4-11.8c4.4-1.8,7.8-4.8,10.8-8.6c2-2.6,4.5-5.1,7.3-6.6c5.6-2.9,11.7-4.8,18.2-4.7c6.5,0.1,13,0.1,19.5,0
			c5.5-0.1,10.6,1.3,15,4.6c7.3,5.5,14.3,11.3,21.5,17c9.3,7.4,14.1,17.4,16.7,28.7c0.7,3.2,1.3,6.5,2.2,9.7
			c0.5,1.7,1.4,3.7,2.7,4.6c3.4,2.3,7.1,4.3,10.9,5.9c2.5,1.1,3,0.6,4.8-3.2c-1.7-1.4-3.4-2.9-5.2-4.3c-4.5-3.4-7.5-7.4-6.8-13.5
			c0.4-3.3,0.1-6.7-0.1-10c-0.5-8.3-1.5-16.5-1.7-24.8c-0.2-6.1,0.4-12.3,1-18.4c0.5-5.1,1.4-10.3,5.5-14
			c5.2-4.8,8.8-10.7,12.5-16.7c3.2-5.2,7.3-9.9,14.6-9.8c6.1,0.1,10.6-3.4,14.5-7.7c16.7,0,33.3,0,50,0c1.1,0.7,2.1,1.7,3.3,2.1
			c5.4,1.9,10,4.9,14.3,8.9c3.1,2.9,5.8,5.8,7.8,9.5c2.3,4.2,5.2,8,8.8,11.4c3.6,3.4,5.9,7.7,6.7,12.6c0.8,4.6,1.2,9.2,1.2,13.9
			c-0.2,15-0.6,29.9-0.9,44.9c-0.1,3.7-1.6,6.8-4.2,9.3c-1.8,1.7-3.9,3.1-5.9,4.5c-1.4,1-2.4,2.1-1.7,3.7c0.8,1.8,2.4,2,4.2,1.4
			c6.9-2.2,12.3-6,14.1-13.4c1.9-7.6,3.4-15.3,7.4-22.1c2.4-4.2,4.7-8.4,8.5-11.6c6.6-5.3,13.1-10.7,19.7-16
			c5.7-4.6,12.1-7.5,19.6-7.4c6.3,0.1,12.7-0.2,19,0.1c10.3,0.4,19.6,3.3,26.2,12c3,3.9,6.9,6.7,11.5,8.4c3.9,1.4,6.6,3.9,8.2,7.6
			c3.7,8.6,8.4,16.6,13.3,24.4c2,3.2,4,6.7,4.8,10.4c1.5,6.3,2.7,12.7,2.3,19.2c-0.4,6.6-0.6,13.3-1.1,19.9
			c-0.5,5.2-2.5,9.6-7.2,12.5c-1.4,0.9-2.5,2.2-3.8,3.2c-4.6,3.5-3.5,13.7,1.5,17.3c6.4,4.6,12.8,8.9,20.5,11.1
			c5.1,1.4,9,4.7,11.8,9.5c1.7,2.9,4.1,5.5,6.2,8.3c0.3-0.1,0.7-0.3,1-0.4c0.7,3.9,1.2,7.8,2.2,11.6c0.6,2.2,1.9,4.2,2.8,6.2
			c0,6.3,0,12.7,0,19c-1.7,1.6-2,3.8-2,6c0,3.5,0,7,0,10.5c0,7.7-3.5,12.2-11.1,13.4c-4.6,0.7-9.2,1.2-13.9,1.2
			c-33.2,0.1-66.3,0.1-99.5,0c-15.1-0.1-30.3,1.1-45.3-1.9c-0.9-0.2-2,0-3,0.2c-2.8,0.6-5.6,0.9-8.2,1.9c-2.8,1-6.3,1.6-6.8,5.6
			c1.4,2.7,3.6,4.3,6.2,5.7c3.2,1.7,6.2,3.8,9.5,5.5c2.8,1.5,4.5,3.9,5.6,6.8c1,2.6,1.7,5.4,2.7,8c0.6,1.7,1.3,3.3,2.1,4.9
			c1.7,3.4,3.9,6.6,5.2,10.2c1.8,5.2,1.8,10.8,1.5,16.3c-0.2,3.9-4.2,9.1-7.8,10.1c-2.4,0.7-4.9,1.4-7.3,1.4c-1.9,0-3.9-0.6-5.6-1.5
			c-1.7-0.9-3.2-2.4-5.2-4c0-1.7,0.1-3.7,0-5.6c-0.3-4.3-0.5-8.6-1.1-12.9c-0.2-1.5-1.1-3.1-2.2-4.2c-2.3-2.4-4.8-4.6-7.4-6.7
			c-1.5-1.2-3.2-2.3-5-3.2c-1.9-1-17.3-1.9-19.2-1.1c-6.7,2.5-13.4,4.9-18.5,10.4c-6.8,7.3-20.1,6.7-27.2,0
			c-2.5-2.4-5.3-4.6-8.4-6.1c-4.7-2.4-9.2-5.2-15-4.7c-6.8,0.6-13.5,1.6-20,3.8c-2.9,1-4.6,3-5.7,5.8c-1.1,3-2.1,6-3.7,8.7
			c-1.8,3.2-2.9,6.4-2.6,10c0.3,3.8-1,6.8-3.9,9.4c-3.8,1.1-7.7,1.7-11.7,0.6c-5.5-1.6-7.3-4-7.4-9.6c-0.2-5.9,0.3-11.6,2-17.3
			c0.4-1.3,0.8-2.6,0.7-3.9c-0.4-5.9,1.6-11.1,3.9-16.3c2-4.7,4.7-8.8,9.8-10.6c2.3-0.9,4.6-1.9,6.8-3.1c3.5-2,7.9-3,9.4-7.7
			c-1-2.5-3.1-3.7-5.5-4.6c-6.2-2.5-12.6-2.6-19.1-1.4c-4.6,0.8-9.2,1.3-13.8,1.3c-40.5,0.1-81,0.1-121.5,0c-4.6,0-9.3-0.8-13.9-0.9
			c-3.9-0.1-6-2.2-6.7-5.5C9.7,336.7,5.6,332.7,1,329z M291.8,310.4c0-1.1,0-1.8,0-2.4c-0.1-6.8-2.1-12.6-7.4-17.2
			c-2.7-2.3-4.3-5.8-6.5-8.7c-2.3-3.2-4.4-6.7-7.1-9.5c-3.7-3.7-7.6-7.3-11.1-11.4c-4.7-5.6-11.8-5.9-16.9-0.3
			c-1,1.1-1.8,2.4-2.8,3.5c-1.7,1.8-3.2,3.9-5.2,5.3c-4.8,3.3-8.3,7.6-10.8,12.8c-1.3,2.7-3.2,4.9-5.5,7c-2.3,2.1-4.7,4.5-5.8,7.3
			c-3.4,9-2.8,18.2,0.5,27.2c0.4,1.2,1.1,2.5,1.9,3.5c2.4,2.9,5.2,5.6,7.5,8.7c2.4,3.2,4.4,6.6,6.5,10c0.8,1.4,1.3,3,1.9,4.6
			c0.8,2.1,2.3,3.6,4.4,4.5c8.3,3.6,16.7,4.6,25.7,2.1c6.7-1.8,10.6-5.7,12.7-12c0.5-1.4,1-2.8,1.7-4.1c0.6-1.2,1.4-2.3,2.3-3.3
			c2.1-2.4,4.1-4.8,6.3-7.1C289.7,324.9,292.3,318,291.8,310.4z M292.1,140c-0.2-9.8-2.2-13.3-8-18.5c-2.8-2.5-4.8-5.9-7-9
			c-4-5.5-7.5-11.4-11.8-16.6c-7.9-9.6-21.9-8.6-29.4,0.9c-1.3,1.7-2.5,3.5-3.8,5.2c-5.6,7-9.9,15-16.6,21.2c-1.9,1.8-3,4.2-3.7,6.9
			c-1.2,5.2-1.7,10.3-0.9,15.7c0.9,6.5,3.2,11.8,8.3,15.8c0.9,0.7,1.7,1.6,2.4,2.5c3.3,5,6.8,9.9,9.9,15
			c5.5,9.1,16.1,13.5,26.2,10.3c3.3-1,6.6-2.4,8.7-5.4c3.5-5,7.1-10,10.4-15.2c2.4-3.6,4.7-7.2,8.1-10c3.3-2.7,5.7-6,6-10.5
			C291.2,145.5,291.8,142.8,292.1,140z M392.2,249.2c2.9-0.4,6.2-0.2,8.7-1.4c9.9-4.7,17.8-11.8,21.5-22.4
			c1.8-5.1,2.9-10.5,4.1-15.9c0.6-2.7,1.2-5.6,0.9-8.4c-1-9.8-3.9-19.2-7.3-28.4c-1.3-3.4-3.4-6-6.8-7.5c-5-2.1-9.3-5.1-12.9-9.2
			c-2.5-2.8-5.9-3.7-9.1-2.6c-4.2,1.4-8.3,3.3-11.9,5.8c-4.3,3-7.9,7.2-12.1,10.4c-5.7,4.3-8.3,10.4-10,16.8
			c-2.3,9-3.1,18.3-1.2,27.6c1.3,6.7,3.2,12.7,8.6,17.4c3.6,3.1,6.3,7.2,9.5,10.8c0.8,0.9,1.5,1.7,2.4,2.4
			C381.2,248.4,386.6,249.1,392.2,249.2z M102,320.8c22.5,0,45,0,67.4,0c1.5,0,3,0.1,4.5-0.1c3.7-0.3,5.9-2.3,7-6
			c1.5-4.9,1.3-9.9,0.7-14.8c-0.5-4.3-3.7-7.1-7.9-7.7c-8.6-1.2-15.6-4.8-20.8-12.2c-5.1-7.3-16.9-6.4-21.4,1.3
			c-2.2,3.7-5,7.1-9.2,8c-5.3,1.1-10.8,1.4-16.2,1.6c-2.4,0.1-4.9-0.8-7.3-1.4c-4.1-1-6.3-4.4-8.2-7.6c-2.5-4.2-6.2-5.2-10.4-5.6
			c-1.7-0.1-3.3,0-5,0c-4.9,0-8.3,1.9-11,6.3c-3.2,5.2-7.4,9.2-14.2,9.8c-4.1,0.4-7.3,2.8-10.1,5.9c-2.9,3.4-5.7,6.8-10,8.7
			c-1.8,0.8-3.4,2.8-4.4,4.6c-2.6,4.8,0,9,5.5,9.3c1.2,0.1,2.3,0,3.5,0C57.1,320.8,79.5,320.8,102,320.8z M108.7,248.8
			c2.1,0,3.5,0.1,4.8,0c7-0.6,12.8-2.9,16.4-9.5c1.7-3.1,3.9-6,7.2-8.1c5.2-3.4,7.7-8.7,8.6-14.6c1.3-8.3,1.9-16.7,0.3-25.2
			c-1.5-7.6-4.1-14.3-9.8-19.7c-3.6-3.4-7.5-6.5-11-10.1c-3-3.1-6.4-5.2-10.2-7c-5.1-2.4-9.9-2.1-13.7,2c-3.9,4.1-8.5,6.9-13.5,9.2
			c-2.7,1.3-4.5,3.4-5.4,6.2c-1.1,3.1-2.3,6.2-3.3,9.4c-2.1,6.8-3.9,13.8-3.8,21c0.1,5.8,1.6,11.4,2.9,17.1
			c2.3,10.3,6.8,18.9,16.1,24.7C99,247.1,103.6,249.8,108.7,248.8z M400.5,320.8c22.5,0,45,0,67.5,0c1.3,0,2.7,0.1,4,0
			c4.1-0.2,6.7-3.7,5.4-7.5c-1-2.9-2.4-5.5-5.5-6.7c-3.7-1.4-6.3-4.1-8.6-7.3c-2.4-3.5-5.8-6.3-10.1-6.8c-6.6-0.9-11.6-3.8-14.9-9.6
			c-2.8-4.9-6.9-6.9-12.4-6.6c-1.5,0.1-3-0.1-4.5,0.1c-4.2,0.6-8.2,1.5-10.1,6.1c-0.6,1.3-1.7,2.4-2.7,3.5
			c-3.1,3.4-7.2,4.1-11.6,4.9c-5.8,1.1-11.2-0.8-16.8-1.1c-0.5,0-0.9-0.4-1.4-0.6c-3.3-1.5-5.6-4-7.6-7c-1.3-1.9-2.8-3.9-4.6-5
			c-5.9-3.7-13.4-2.2-17.7,3.7c-4.8,6.6-11.3,10.1-19.1,11.4c-2.8,0.5-5,1.9-6.7,4c-3.9,4.8-4,16-0.4,20.9c2.2,3,5.2,3.8,8.8,3.8
			C354.5,320.8,377.5,320.8,400.5,320.8z M259.2,223.1c3.2,3.8,7.2,4.5,10.9,5.6c4.1,1.2,7.7,2.9,10.9,5.7c3.7,3.2,6.4,7.5,11.4,9.4
			c5.5,2,9.3,6.2,12.1,11.3c2.5,4.5,5.6,5.9,10.4,4.3c3.8-1.3,7.5-2.8,10.8-5c4.2-2.8,5.9-7.3,4.8-12.2c-1-4.6-3.9-7.2-8.9-8.1
			c-8.7-1.6-16.5-5-22.2-12.2c-1.1-1.4-2.7-2.5-4.1-3.7c-3.8-3.2-7.8-5.1-12.7-2.4c-0.6,0.3-1.3,0.4-1.9,0.5
			c-5.8,1.5-11.6,3-17.3,4.6C262.1,221.2,260.8,222.2,259.2,223.1z M242.7,224.8c-0.6-3.3-2.6-3.6-4.3-4.1
			c-5.9-1.6-12.1-2.5-17.7-4.8c-7.1-3-11.7,0.2-16.5,4.4c-1.2,1.1-2.3,2.4-3.5,3.5c-1.9,1.8-3.8,3.7-5.9,5.3
			c-4.4,3.5-9.6,5-15.1,6.1c-3.8,0.7-6.9,2.8-7.4,7c-0.6,4.9-0.3,9.9,4.7,12.6c4.5,2.5,8.9,5.2,14.2,5.7c4.7-2,4.9-1.9,6.1-4.5
			c2.5-5.2,6.3-8.8,11.3-11.5c3.8-2.1,7.2-4.6,10.2-7.8c3.6-3.7,7.8-6.6,13-8C235.5,227.7,239,226.2,242.7,224.8z"/>
	</g>
	<g>
	</g>
</g>
</svg>
