<?xml version="1.0" encoding="utf-8"?>
<!-- Generator: Adobe Illustrator 19.1.0, SVG Export Plug-In . SVG Version: 6.00 Build 0)  -->
<svg version="1.1" id="Layer_1" xmlns="http://www.w3.org/2000/svg" xmlns:xlink="http://www.w3.org/1999/xlink" x="0px" y="0px"
	 viewBox="0 0 500 500" enable-background="new 0 0 500 500" xml:space="preserve">
<g>
	<g opacity="0.5">
		<path d="M501,114c-3.5,4.4-7,8.8-10.6,13.1c-1.4,1.6-3,3.1-4.8,4.1c-5,2.8-8.3,6.8-10.5,12.2c-2.5,6.4-5.6,12.5-12.1,16
			c-2,1.1-4.3,1.8-6.4,2.7c-6.3,2.7-11.6,6.4-14.5,12.9c-0.3,0.6-0.6,1.2-0.8,1.8c-2.5,7.5-7.6,12.3-15.1,14.7
			c-6.5,2.1-10.1,7.3-13.1,12.9c-1.3,2.3-2.3,4.8-3.4,7.2c-2.8,6.1-7.6,10.1-13.8,12.3c-8.8,3-14.6,8.7-17.9,17.4
			c-2.1,5.3-5.9,9.7-11.6,11.6c-8.8,2.8-13.8,9.1-17.3,17.3c-3.4,8-8.5,14.3-17.6,17.1c-8.1,2.4-13.3,8.5-16.2,16.4
			c-2.3,6.1-6.4,10.5-12.7,12.3c-7.2,2-11.2,7.3-14.5,13.4c-1.3,2.3-2.3,4.8-3.4,7.2c-2.8,6.1-7.6,10.1-13.8,12.2
			c-9,3.1-14.8,9-18,17.9c-2,5.5-6,9.7-11.8,11.3c-9.2,2.6-14.7,8.8-18.5,17.4c-3.5,7.8-9.3,13.5-17.5,16.8
			c-4.8,1.9-9.3,4.5-13.6,7.2c-2,1.3-3.4,3.6-4.7,5.7c-2,3-4.6,4.1-8.1,4c-4-0.1-8,0-11.6-2.4c-0.9-0.6-2.2-0.8-3.3-1
			c-2.5-0.5-4.5-1.7-6.3-3.7c-4-4.4-9.5-6.6-14.7-9.2c-4.8-2.5-10.4-4-13.9-8.5c-2-2.6-4.1-5.3-5.3-8.3c-3.5-8.4-10-13.5-18.1-16.9
			c-5.7-2.4-9.8-6.1-12.3-11.6c-2.4-5.1-4.4-10.5-9.2-14c-2.2-1.6-4.6-3.4-7.2-4.2c-6.4-2-11.8-5-14.7-11.6c-1.3-3-3.2-5.9-4.7-8.8
			c-2.3-4.6-5.7-8.1-10.4-10.4c-1.6-0.8-3.2-1.8-4.9-2.4c-6.9-2.6-10.8-7.9-13.5-14.4c-2.4-6-5.6-11.3-12.2-13.7
			c-1-0.4-1.8-1.4-2.6-2.2c-3.1-3.5-6-7.1-9.2-10.5c-1.1-1.2-2.5-2.2-3.7-3.3c0-16,0-32,0-48c0.9-0.4,1.8-1,2.8-1.1
			c9.9-0.5,18.9,1.9,25.3,9.9c2.2,2.7,4.6,4.9,7.3,6.6c4.1,2.5,8.6,4.3,12.9,6.4c3.3,1.6,6.7,3,9.7,5c1.8,1.2,3.3,3.3,4.5,5.2
			c1.7,2.8,3.1,5.9,4.5,8.9c2.6,5.3,6.7,9,12.2,11.2c2.5,1,4.9,2,7.3,3.2c6.1,3,8.7,8.9,11.7,14.4c2.2,4.1,4.5,8.1,7.3,11.8
			c1.4,1.9,3.9,2.9,6.1,4.1c2.2,1.2,4.5,2.1,6.8,3c4,1.6,6.3,4.8,7.8,8.5c2.8,6.9,6.6,13,13.3,16.9c0.9,0.5,1.7,1.2,2.6,1.4
			c8.8,2.2,13.9,8.6,18.1,16c1.1,1.9,2,3.9,3.4,5.5c5.8,6.4,11.7,6.5,17.2-0.2c2.4-2.9,4.2-6.4,5.9-9.8c2.5-4.9,6.3-8.1,11.4-9.7
			c8.6-2.7,14.1-8.7,17.2-16.8c2.8-7.3,7.7-12,14.9-15c6.2-2.6,11.5-6.6,14.4-13.1c1.2-2.9,2.8-5.6,4.2-8.5c2.3-4.8,6-8,11-9.4
			c9.2-2.6,15.1-8.5,18.5-17.3c2.3-5.9,6.1-10.6,12.2-13.2c3.2-1.4,6-3.5,9.1-5.2c3.4-1.9,5.2-5,6.9-8.3c1.8-3.5,3.4-7.2,5.5-10.6
			c2.9-4.8,7.4-7.7,12.7-9c6.3-1.6,10.3-5.8,13.6-10.9c1.7-2.7,2.9-5.6,4.3-8.5c2.4-5.1,6.2-8.5,11.4-10.5c7.9-3.1,13.7-8.2,17-16.4
			c2.1-5.3,4.7-10.8,10.4-13.5c1.9-0.9,3.9-1.7,6-2.4c7.4-2.5,12.4-7.6,15.3-14.7c2.8-6.9,6.7-12.6,13.9-15.4
			c2.3-0.9,4.5-2.2,6.6-3.5c4.1-2.5,7-6.1,8.9-10.5c0.3-0.8,0.8-1.5,1.1-2.2c3.8-10.3,11.5-15.8,21.7-18.7c3.6-1,7-2.9,10.5-4.5
			c0.7-0.3,1.7-0.7,2.1-1.3c2.4-3.9,6.7-5,10.2-7.3c4.6-3.1,8.3-7.6,12.3-11.5c3.3,0,6.7,0,10,0C501,80,501,97,501,114z"/>
	</g>
	<g>
	</g>
</g>
</svg>
