<?xml version="1.0" encoding="utf-8"?>
<!-- Generator: Adobe Illustrator 19.1.0, SVG Export Plug-In . SVG Version: 6.00 Build 0)  -->
<svg version="1.1" id="Layer_1" xmlns="http://www.w3.org/2000/svg" xmlns:xlink="http://www.w3.org/1999/xlink" x="0px" y="0px"
	 viewBox="0 0 500 500" enable-background="new 0 0 500 500" xml:space="preserve">
<g>
	<g opacity="0.5">
		<path d="M18,501c-5.7,0-11.3,0-17,0c0-6.3,0-12.7,0-19c1.5-1.6,3.1-3,4.3-4.8c4.3-6.5,8.6-13,12.6-19.7c2.6-4.4,5.2-9,7-13.7
			c3.3-8.9,8.6-16.2,16-21.8c5.4-4,11.5-7.1,17.2-10.8c1.8-1.1,3.7-2.5,4.9-4.2c2.4-3.4,4.6-7,6.4-10.7c4.4-8.8,10.9-15.7,19.4-20.1
			c7.2-3.7,12.9-8.3,16.9-15.4c6-10.6,13.8-19.5,24.6-25.6c6-3.4,10-8.5,13.6-14.2c2.5-4.1,5.8-7.7,8.8-11.4
			c5.4-6.5,13-10.3,19.7-15.2c3.3-2.4,6.7-5.1,9.4-8.2c6.1-7,12-14.3,17.7-21.6c2.3-3,4.1-6.4,6-9.7c1.5-2.5,1.2-5.2-0.2-7.6
			c-2.1-3.5-4.3-7.1-6.8-10.3c-5.2-6.7-10.4-13.4-15.9-19.8c-3-3.5-6.2-6.8-10.3-9.2c-10.6-6.1-20.3-13.4-26.7-24.1
			c-4.7-7.9-10.8-14.2-18.8-18.8c-9.1-5.2-15.5-13.1-20.2-22.2c-3.9-7.5-9.7-12.6-16.9-16.3c-8.3-4.2-14.4-10.6-19-18.4
			c-1.7-2.9-3.3-5.8-4.9-8.7c-2.2-4-5.4-7.1-9.4-9.3c-2.9-1.6-5.8-3.2-8.7-4.8c-9.5-5.2-16.3-13-21.1-22.6
			c-2.6-5.1-5.5-9.8-10.3-13.2c-3.3-2.4-5-5.8-6.1-9.9c-1.9-7-3.8-14.2-9-19.8C1,13.7,1,7.3,1,1c6.7,0,13.3,0,20,0
			c3.3,1.6,6.5,3.4,9.9,4.7c5,1.9,10,3.5,15.1,5.1c2,0.7,3.7,1.7,4.1,3.9c0.8,3.9,3.3,6.3,6.7,8.2c2.8,1.5,5.5,3.1,8.3,4.6
			c6.7,3.8,12.9,8.3,17.3,14.7c2.8,4.1,5.2,8.5,7.6,12.9c2.5,4.6,5.5,8.7,10.4,11c13,6.1,22.6,15.6,28.9,28.5
			c2.5,5.2,6.7,8.6,11.6,11.2c10.1,5.4,19.1,12,25.1,22.1c3.9,6.5,8.7,12.1,15.3,16.1c11.6,6.9,20.3,16.5,26.8,28.2
			c2.6,4.6,6.1,8.2,10.1,11.6c6,5.2,11.9,10.6,17.9,15.8c3.1,2.7,6.4,5.3,9.6,7.9c3.9,3,8,3,11.9,0c3.4-2.7,6.8-5.4,10-8.2
			c6.1-5.4,11.9-11.2,18.2-16.3c3.8-3.1,7-6.6,9.3-10.9c6.8-12.4,16.4-22,28.4-29.3c4.2-2.5,7.8-5.9,10.6-10.3
			c5.2-8.3,10.8-16.4,19.7-21.5c2.9-1.6,5.7-3.3,8.5-5.1c3.6-2.4,7.4-4.4,9.7-8.3c2.1-3.6,4-7.3,6.3-10.7c5-7.2,10.9-13.3,18.7-17.6
			c4.2-2.3,8.3-5,11.8-8.1c2.5-2.3,4.1-5.6,5.7-8.7c6.2-12.1,15.4-21.1,27.7-26.8c3.6-1.7,7-3.8,9.6-7c1.1-1.3,2.9-2.3,4.6-2.6
			c4.6-0.9,8.4-3,11.8-6.2c4.2-3.9,9-6.9,14.7-7.9c0.5-0.1,0.9-0.4,1.3-0.6c5.7,0,11.3,0,17,0c0,11,0,22,0,33
			c-1.7,3.2-3.7,6.3-5.2,9.6c-1.3,3-3.3,4.9-6.4,5.7c-5.8,1.6-9.1,5.7-11.4,10.8c-2.6,5.6-6.1,10.6-10.2,15.3
			c-5.6,6.3-12.7,10.5-20.1,14.4c-3.7,1.9-7.1,4.3-9.2,8.1c-1.8,3.2-3.8,6.3-5.5,9.5c-4.5,8.3-10.8,14.7-19.2,18.9
			c-8,4.1-13.8,9.9-18,17.9c-3.9,7.5-9.3,14.2-16.7,18.9c-8.6,5.5-16.4,11.6-21.6,20.8c-6.1,10.9-16.1,18.1-26.7,24.2
			c-4.6,2.7-8.2,6.1-11.3,10.3c-2.9,3.9-6.1,7.4-9.1,11.2c-3.9,4.9-7.9,9.8-11.5,15c-2.6,3.7-3.3,8-0.9,12.2c1.1,2,2.1,4.2,3.5,6
			c5.1,6.3,10.4,12.5,15.6,18.8c2.1,2.5,3.9,5.5,6.5,7.5c5,4.1,10.3,7.8,15.7,11.3c8.5,5.6,15.2,12.9,20.2,21.7
			c3.2,5.7,7.6,10.2,13.1,13.4c10.3,6,18.4,14.1,24,24.7c3.9,7.4,9.8,12.2,17.1,16.1c9,4.8,15.9,11.8,20.3,21.2
			c3.4,7.3,8.3,13.1,16.1,16.8c12.3,5.8,21.7,15.2,27.4,27.8c1.9,4.2,5,7.3,8,10.6c5.6,6.1,10,12.7,11.5,21.2
			c0.6,3.5,2.6,6.7,3.9,10.1c0,5.7,0,11.3,0,17c-6.3,0-12.7,0-19,0c-2-1.2-3.8-2.7-5.9-3.5c-7.5-3.1-15.1-6.1-22.4-9
			c-2.8-6.6-8.5-9.1-13.8-12.2c-4.1-2.5-8.1-5.1-11.9-8c-7.3-5.6-11.8-13.5-16.1-21.4c-2.5-4.7-6.1-7.7-10.5-10.3
			c-3.8-2.3-7.9-4.3-11.4-7c-6.8-5.5-12.3-12.1-16.1-20.1c-2.3-4.8-5.6-8.6-10.3-11.2c-3.5-1.9-6.8-4.2-10.2-6.2
			c-8.5-5-14-12.7-19.1-20.7c-3.2-5.1-7.6-8.6-12.5-11.8c-4.8-3.2-9.8-6.5-13.9-10.5c-5.3-5.3-9.7-11.4-13.3-18
			c-1.6-2.9-3.2-6.1-5.7-8c-8.2-6.3-15.7-13.3-23.1-20.5c-2-2-4.2-3.8-6.5-5.5c-6.5-4.8-9.6-4.8-16.1,0.2c-2.6,2-5.1,4.3-7.6,6.5
			c-6,5.3-11.7,10.8-18,15.8c-4,3.2-7.2,6.7-9.7,11.2c-6.6,12-15.8,21.7-27.5,29c-3.9,2.5-7.5,5.6-10.6,9c-3.1,3.4-5.2,7.6-7.9,11.5
			c-4.7,6.7-11.3,11.2-18.3,15c-6.4,3.5-11.9,7.4-15.3,14.3c-6.1,12.2-15.4,21.5-28,27.3c-3.7,1.7-6.6,4.3-8.7,7.9
			c-2.6,4.5-5.2,8.9-7.9,13.3c-5,7.9-12.2,13.6-20.3,18c-5.8,3.1-11.4,6.2-14.9,12.1C37.3,489.2,27.1,494,18,501z"/>
	</g>
	<g>
	</g>
</g>
</svg>
