<?xml version="1.0" encoding="utf-8"?>
<!-- Generator: Adobe Illustrator 19.1.0, SVG Export Plug-In . SVG Version: 6.00 Build 0)  -->
<svg version="1.1" id="Layer_1" xmlns="http://www.w3.org/2000/svg" xmlns:xlink="http://www.w3.org/1999/xlink" x="0px" y="0px"
	 viewBox="0 0 500 500" enable-background="new 0 0 500 500" xml:space="preserve">
<g>
	<g opacity="0.5">
		<path d="M45.2,129.9c-0.3-4.4-0.7-9.1-1.1-13.7c-0.3-4-0.8-7.9-1.1-11.9c-0.4-4.8-0.7-9.6-1.2-14.4c-0.5-5.3-1.2-10.5-1.7-15.8
			c-0.3-2.8-0.7-5.7-0.2-8.5c1.4-9.1,7-11.3,14.8-9.2c5.4,1.5,10.6,3.8,15.9,5.8c3.1,1.2,5.2,3.5,6.7,6.4
			c7,13.3,13.9,26.6,20.9,39.8c7.1,13.3,13.6,27,21.8,39.8c5.9,9.1,13.6,15.5,24.1,19c20.8,7,41.3,14.8,61.9,22.2
			c1.5,0.6,3.1,1,5.1,1.6c0.3-1.3,0.6-2.4,0.6-3.4c0.1-2.8,0-5.7,0.1-8.5c0.3-11.6,0.7-23.3,1.1-34.9c0.3-8,0.2-16,1.1-23.9
			c0.8-7,0.7-13.9,0.9-20.9c0.1-3.5,0.5-6.9,1-10.4c0.8-6.4,6.7-10.8,12.8-9.3c4.3,1.1,8.5,2.7,12.6,4.5c2.6,1.1,4.4,3.2,5.4,6.1
			c3.9,11.1,8.1,22.2,12.2,33.2c7.9,21.7,15.8,43.4,23.8,65.1c3.6,9.8,7.3,19.6,10.7,29.5c0.9,2.5,2.2,3.8,4.6,4.7
			c20.9,7.7,41.8,15.4,62.7,23.1c9.2,3.4,18.6,6.2,27.6,10.1c11,4.7,21.9,9.9,32.4,15.5c8.3,4.5,16.2,9.9,23.9,15.3
			c6,4.2,12,8.5,17,13.8c7.5,7.8,13.8,16.5,15.7,27.8c1.3,7.6-2.2,13.3-7,16.3c-4.3,2.7-9,4.1-14.1,4.4c-15.7,1-30.7-2.3-45.6-6.6
			c-18.2-5.3-35.7-12.6-53.6-18.9c-5.2-1.8-10.3-3.7-15.5-5.6c-24.5-8.9-49-17.9-73.5-26.8c-9.1-3.3-18.1-6.8-27.1-10
			c-12.4-4.4-24.8-8.7-37.1-13.1c-16.4-5.9-32.8-11.9-49.1-18c-3.1-1.2-6-2.9-8.8-4.7c-17-11-33.7-22.5-49.8-34.9
			c-8-6.2-15.7-12.8-23.5-19.3c-8.4-7-16.8-14-25.1-21.2c-5-4.4-9.9-8.9-14.6-13.6c-4.1-4.1-5.6-9.2-4.2-15.1
			c0.9-3.8,2.8-6.4,6.2-7.9C38,132.2,41.2,131.3,45.2,129.9z M64.1,91.9c0.4,5.9,0.7,10.6,1.2,15.4c0.5,5.1,1.2,10.2,1.6,15.3
			c0.5,5.3,0.4,10.6,1.3,15.8c1.1,6.2,1.5,12.2-2.6,18c5.1,4.4,9.9,8.7,14.9,12.8c5.1,4.2,10.4,8.3,15.6,12.4
			c6.3,5.1,12.5,10.4,19,15.3c8.2,6.2,16.7,12,25.2,17.9c6.4,4.4,13,8.7,19.5,13c1.2,0.8,2.6,1.4,4,2c17.9,6.7,35.8,13.3,53.7,19.9
			c5.8,2.1,11.7,3.8,17.5,5.9c12.7,4.6,25.3,9.2,37.9,13.9c18.1,6.7,36.1,13.5,54.2,20.1c11.7,4.3,23.5,8.2,35.3,12.4
			c8,2.8,16,5.6,23.9,8.7c18.7,7.4,37.9,13.2,57.7,17c3.4,0.6,6.8,0.9,10.5,1.4c-2.1-5.9-5.2-10.7-10.7-15.4
			c-9.6-8.2-19.8-15.7-31-21.6c-13.7-7.1-27.6-13.9-42.3-18.9c-17.6-6-35-12.7-52.4-19.2c-11.7-4.3-23.4-8.7-35-13
			c-4.1-1.6-6.9-4.4-8.2-8.8c-0.7-2.4-1.5-4.7-2.4-7.1c-6-16.5-12.2-33.1-18.2-49.6c-4.6-12.6-9.1-25.3-13.7-38
			c-1.2-3.3-2.6-6.4-4.1-10.2c-0.5,8.3-1,15.7-1.4,23.2c-0.4,7.5-0.7,14.9-1,22.4c-0.3,7.5-0.8,14.9-1,22.4
			c-0.3,10-0.1,19.9-1.1,29.9c-0.6,5.7-4.3,10.5-9.6,11c-6.9,0.7-10.6-1.6-12-8.3c-0.6-3-0.2-6.2-0.2-9.4c0-1.1,0.2-2.2,0.3-3.1
			c-0.5-0.5-0.8-0.8-1-0.9c-15.6-5.8-31.2-11.6-46.8-17.3c-10.6-3.9-21.3-7.4-31.9-11.4c-10.7-4.1-19.3-11-26.2-20.1
			c-6-8-10.8-16.7-15.3-25.6C82.9,127,76.1,114.1,69.4,101C68,98.2,66.3,95.6,64.1,91.9z"/>
		<path d="M344,458.9c44.5,0,88.9,0,133.4,0c2.3,0,4.7,0.3,6.8,1.1c6.8,2.5,8.4,10.8,3.8,16.6c-2.6,3.3-6,4.4-10.1,4.4
			c-13.2,0-26.3,0-39.5,0c-75.4,0-150.9,0-226.3,0c-2,0-4.1,0.1-5.9-0.5c-6.8-2.1-8.8-8.3-8.2-12.7c0.7-4.9,5.9-8.9,11.6-8.9
			C254.4,458.9,299.2,458.9,344,458.9z"/>
	</g>
	<g>
	</g>
</g>
</svg>
