<?xml version="1.0" encoding="utf-8"?>
<!-- Generator: Adobe Illustrator 19.1.0, SVG Export Plug-In . SVG Version: 6.00 Build 0)  -->
<svg version="1.1" id="Layer_1" xmlns="http://www.w3.org/2000/svg" xmlns:xlink="http://www.w3.org/1999/xlink" x="0px" y="0px"
	 viewBox="0 0 500 500" enable-background="new 0 0 500 500" xml:space="preserve">
<g>
	<g opacity="0.5">
		<path d="M45.2,129.3c8.1-2.7,13.7-8.4,19.9-13c6.8-5.1,13.7-8.1,22.2-5.5c0.5,0.1,1,0.1,1.5,0.2c0.5,0.1,1,0.2,1.6,0.3
			c1.3,2.6,2.7,5.2,3.8,8c0.6,1.5,0.9,3.2,1,4.8c0.1,3.9,1.4,6.9,4.5,9.5c2.2,1.8,3.9,4.6,5.2,7.2c3,5.8,6,11.5,8.2,17.6
			c1.5,4.1,2,8.8,1.9,13.2c-0.2,7.9,1.2,15.5,2.8,23.2c0.9,4.5,0.2,9-1.2,13.2c-0.8,2.4-2.6,4.1-5,5.2c-2.2,1-4.3,2.5-6.1,4.1
			c-3.1,2.8-5.9,5.8-8.8,8.7c-0.8,0.8-1.6,1.8-1.9,2.9c-1.1,3.8-3.9,6-7,8.1c-2.6,1.7-5.3,3.5-7.7,5.5c-5.2,4.3-11.5,5.1-17.7,5.6
			c-5.1,0.4-10.3,0-15.5,0.1c-2.7,0-4.7-1-6.8-2.5c-5.7-4-10-9.2-13.2-15.3c-1.7-3.4-3.3-6.9-4.9-10.3c-2-4.2-4.5-8.1-7.9-11.4
			c-4.7-4.7-6-10.7-4.9-17.1c1.1-6.7,2.7-13.3,4.2-19.9c0.1-0.6,0.3-1.3,0.6-1.9c3.8-6.8,7.5-13.6,11.6-20.3
			c1.2-1.9,3.3-3.2,5.1-4.6C36.3,140.4,42.7,136.8,45.2,129.3z M74.2,157.8c-2.4,0.4-5.2,0.4-7.5,1.5c-4.9,2.4-9.7,5.2-14.3,8.1
			c-3.6,2.3-5.8,5.8-7.4,9.8c-3.1,7.6-3.4,15.6-2.9,23.5c0.2,3.4,1.5,6.3,3.9,8.9c3.6,3.8,8,6,12.9,7c8.3,1.6,15.6-2.7,18.1-9
			c3.2-7.9,6.8-15.6,5.7-24.4c-0.3-2.5,0.1-5-0.1-7.5C82.4,168.8,79.8,163,74.2,157.8z"/>
		<path d="M253.3,110.9c1.6,0.1,3-0.1,4.2,0.4c5.7,2.2,11.4,4.5,17,6.9c4.3,1.8,8.5,3.7,12.6,5.9c3.8,2.2,6.6,5.6,8.1,9.8
			c2.4,6.7,4.5,13.6,6.9,20.3c1,2.8,2.3,5.4,3.6,8.1c1.6,3.1,3.5,6,5,9.2c3.1,6.2,3.7,13.2,2.1,19.5c-3.5,14.3-7.8,28.4-19.2,39.2
			c-4,3.8-8,7.2-12.7,10.1c-2.2,1.3-4.1,3.4-5.6,5.5c-3.1,4.3-6.9,6.6-12.2,6.3c-5.8-0.3-11.6-0.2-17.4-1
			c-6.2-0.9-11.2-4.2-14.7-9.9c-2.9-4.6-6.3-8.9-9.6-13.3c-0.8-1-1.8-2-3-2.6c-5.4-3.2-9.7-7.5-12.8-13c-1.3-2.3-2.9-4.4-3.9-6.8
			c-1.7-4.1-1.1-8.2,1.2-11.9c3.4-5.5,4.7-11.5,5-18c0.4-8.8,1.7-17.5,4.3-25.9c1-3.3,2.9-5.9,6.7-7.5c4.4-1.8,8.2-4.9,12.1-7.7
			c4.4-3.2,8.7-6.6,13-10c3.2-2.6,5.5-5.8,7-9.5C251.5,113.7,252.3,112.6,253.3,110.9z M247.4,214.8c5,0.6,9.7-0.1,13.6-3.5
			c2.2-1.9,4.4-4.1,6-6.6c3.7-5.3,7.2-10.8,10.6-16.3c1.1-1.8,1.9-3.9,2.6-5.9c2.3-7.2,0.1-13.3-5.8-18c-3.5-2.8-7.1-5.5-8.2-10.3
			c-0.1-0.6-0.6-1.2-0.9-1.8c-1.9-3.5-4.6-5.6-8.8-5.4c-4.4,0.2-7,3-7.6,6.7c-0.8,4.5-3.9,7.6-5.5,11.5c-0.4,0.9-1,1.8-1.8,2.3
			c-7.8,5.8-12.4,13.7-14.8,22.9c-2,7.7,0,17.4,9.1,22C239.6,214.3,243.3,215.3,247.4,214.8z"/>
		<path d="M154,263c7.7,5.5,15.3,9.7,21.4,15.4c8.7,8.1,16.6,16.9,18,30c1.1,10.9,2.7,21.7,2.8,32.6c0,10.6-3.3,20.2-7.9,29.5
			c-1.6,3.2-4.4,5-7.4,6.4c-6,2.9-11.7,6.1-16.2,11.3c-1,1.2-3.2,1.8-4.9,1.8c-3.8,0-7.6-0.6-11.4-1c-2.6-0.3-5.2-0.7-7.9-0.9
			c-5.5-0.4-11-0.2-16.3-1.2c-9.4-1.8-17.4-6-22.4-14.9c-2.6-4.7-6.4-8.9-9.6-13.3c-1.8-2.6-3.7-5.1-5.3-7.8
			c-1.9-3.1-1.4-6.6-0.9-9.8c0.9-6.7,2.2-13.4,3.8-20c1.5-6.3,4.4-12.2,8.7-17.2c4.4-5.2,8.8-10.4,13.5-15.3
			c2.5-2.6,5.5-4.8,8.4-6.9c3.9-2.8,7.9-5.5,12-8c2.1-1.3,4.5-2,6.7-3.1c3.3-1.6,6.6-3.1,9.8-4.8C150.8,265,152.6,263.8,154,263z
			 M155.7,317.7c0.3-1.7,0.6-3.6,1-5.5c0.7-3.8-0.4-6.9-3.4-9.3c-2.9-2.2-6.2-2.6-9.4-0.7c-2.2,1.3-4.5,2.9-6.2,4.9
			c-3.8,4.3-7.5,8.8-10.2,14c-0.7,1.3-1.8,2.3-2.7,3.6c-4.7,7.1-9,14.2-6.9,23.5c1.1,5,3.8,8,8.3,9.6c2.6,0.9,5.4,1.6,8.2,2
			c8.3,1.2,15.9-0.7,22.1-6.6c2-1.9,4.3-4.2,5-6.7C164.2,336.4,163.8,326.8,155.7,317.7z"/>
		<path d="M481.6,228.7c-5.4,3.9-10.5,7.6-15.5,11.4c-2,1.5-3.8,3.2-5.6,5c-2.9,2.8-6.1,4-10.2,4.3c-7.9,0.5-15.3-1.1-22.3-4.2
			c-6.8-3-13.2-6.9-19.7-10.5c-1.1-0.6-2.1-1.7-2.9-2.8c-6.6-9.6-12.5-19.6-16.8-30.5c-0.9-2.2-0.6-4.9-0.6-7.3
			c0-0.8,0.6-1.6,0.6-2.4c-0.2-5.7,0.8-11.1,2.9-16.5c1.7-4.4,2.3-9.3,3.8-13.9c0.8-2.5,2.1-4.9,3.7-6.9c3.3-4.3,7-8.4,10.5-12.6
			c3.1-3.7,6-7.6,9.2-11.1c1.5-1.7,3.6-3.2,5.7-3.9c8.4-2.8,14.4-8.6,19.7-15.3c2.5-0.6,4.9-1.2,7.8-2c3.4,3.8,7.5,7.5,10.6,12
			c3.3,4.9,7.5,8.9,11.5,13.1c1.9,1.9,3.7,3.9,5.7,5.6c4.6,4,7.1,9.1,8.4,14.9c0.3,1.3,0.4,2.8,1.1,3.8c2.9,4.3,3,9,2.9,13.9
			c-0.1,5.3,0.1,10.7-0.1,16c-0.1,2.6-0.3,5.4-1,7.9c-2.4,8.1-5,16.1-6.6,24.4C483.9,223.8,482.5,226.3,481.6,228.7z M444.2,211.9
			c1.5,0,2.2,0,2.8,0c7.9,0.7,13-3.3,14.2-11.3c0.9-5.8,3.2-11.1,5.5-16.4c2.7-6.5,2.1-16.6-6.4-20c-3.6-1.5-7.1-3.2-9.6-6.7
			c-1.9-2.6-5.2-2.8-8.3-2c-3.8,1.1-6.9,3.1-9.3,6.3c-1.6,2.3-3.2,4.7-5.2,6.7c-4.9,5.1-7.9,11.2-9.4,17.9
			c-2,9.2,0.6,17.5,10.2,21.9C433.9,210.5,439.1,213,444.2,211.9z"/>
		<path d="M337.4,259.2c2.7,0,4.9,0,6.7,0c3.1,3.3,5.7,6.3,8.6,9c4.8,4.5,8.1,10,11.3,15.7c4.3,7.7,8.6,15.4,13.5,22.7
			c2.8,4.2,3.8,8.9,4.5,13.6c0.8,6.1,0.8,12.2,1.2,18.3c0.2,3.4-0.7,6.6-2.1,9.6c-2,4.2-3.7,8.6-5.9,12.6c-3.8,6.9-8.5,13.1-14.7,18
			c-2.9,2.4-6.3,4.4-9.2,6.8c-4.1,3.3-8.7,4.6-13.8,4.6c-4.2,0-8.3-0.1-12.5,0c-3.8,0.1-7.1-1.2-10.4-2.9c-5.8-3-10.4-7.7-15.5-11.6
			c-3.4-2.7-6.4-5.7-9.7-8.6c-2.5-2.2-4.9-4.6-7.6-6.4c-3.7-2.4-5.7-5.9-5.8-9.9c-0.3-11.6-0.1-23.3-0.1-34.9
			c4.4-5.1,9.4-9.1,14.8-12.7c4.3-2.8,8.2-5.9,11.7-9.8c6.6-7.2,12.6-15,18.7-22.6c0.6-0.8,1.4-1.5,2.2-1.9
			C328.6,266.3,333.7,263.4,337.4,259.2z M350.9,334C350.9,334,350.9,334,350.9,334c0-3.3,0-6.7,0-10c0-3.7-0.9-7.2-3.1-10.3
			c-0.8-1.1-1.4-2.2-1.9-3.4c-2.6-5.8-7.3-7.8-14-5.1c-7,2.9-12.6,7.9-18.4,12.6c-4.3,3.5-6.7,7.8-8.1,12.8
			c-2.2,7.7,0.4,14.2,6.1,19.2c2.3,2.1,4,4.1,5,7.1c1.5,4.4,6.8,7.7,11.7,5.1c2.4-1.3,5.4-2,8.1-2c7.7,0.1,14.3-7.5,14.5-15
			C350.9,341.3,350.9,337.7,350.9,334z"/>
	</g>
	<g>
	</g>
</g>
</svg>
