<?xml version="1.0" encoding="utf-8"?>
<!-- Generator: Adobe Illustrator 19.1.0, SVG Export Plug-In . SVG Version: 6.00 Build 0)  -->
<svg version="1.1" id="Layer_1" xmlns="http://www.w3.org/2000/svg" xmlns:xlink="http://www.w3.org/1999/xlink" x="0px" y="0px"
	 viewBox="0 0 500 500" enable-background="new 0 0 500 500" xml:space="preserve">
<g>
	<g opacity="0.5">
		<path d="M114.7,364.4c0-0.2,0.1-1.3,0.2-3.4c-2.7,4.2-5.9,5.2-9.9,5.2c-3.4,0-6.9,0.8-10.8,1.4c-6,4.1-6.1,10.9-6.4,17.5
			c-2.3,1.9-4.9,2-7.6,2.1c-9.8,0.3-19.6,0.5-29.4,1c-4.2,0.2-7.7,2-9.5,6.2c-0.5,1.1-1.1,2.1-1.7,3.3c-1.7,0.5-3.4,0.9-4.4,1.2
			c-9.3-0.7-14.3-6.5-18.8-12.9c-2.1-3-2.1-6.4-1-9.6c1.3-3.9,1.6-7.8,1.5-11.8c-0.2-3.7,0.9-7,3.2-9.7c1.2-1.4,3-2.5,4.7-3.5
			c1-0.6,2.4-0.3,3.3-1c5.2-3.5,11.3-4.5,17.2-6.2c4.1-1.2,7.8-2.9,10.3-6.3c7.9-2.2,15-6.7,23.6-4.4c1.8-2.1,3.3-4,5.1-6.2
			c-1.4-1.9-2.4-3.6-3.7-5c-6.1-6.7-13.4-12-21-16.7c-2.8-1.8-5.9-3-9.5-1.8c-1.7,0.6-3.6,0.3-5.5,0.3c-7.2,0-14.3,0.2-21.5,0
			c-10.5-0.3-11.9-1.7-12.2-12.3c-0.2-6.2-0.2-12.3,0-18.5c0.4-10.4,1.7-12.1,12.4-12.2c23-0.2,46-0.1,69,0c3.3,0,6.6,0.6,9.9,1
			c2.2,0.3,3.5,1.7,3.8,4c0.2,1.8,0.5,3.6,0.7,5.4c0.5,6.6,5.8,10.3,13,10.5c6.2,0.1,12.3,0,18.5,0c4.8,0,9.7,0,14.5,0
			c5.6,0,6.6-0.8,8.4-5.9c1.1-3.2,2.1-6.3,1.9-9.7c-0.1-1.1,0.3-2.2,0.6-3.9c2.6-0.5,5.1-1.2,7.7-1.4c3.8-0.2,7.7,0.1,11.5-0.1
			c3.5-0.2,7-0.5,10.4-1.2c4.5-0.9,6.9-5,6.6-10.8c-2.2-5.2-6.5-6.7-11.6-6.9c-6.8-0.3-13.6-0.6-20.4-1c-1.4-0.1-2.8-0.7-4.2-1.1
			c-1.5-6.6,0-13.8-6.1-18.9c-2.7,0-5.5,0-8.4,0c-10.2,0-20.3,0.1-30.5,0c-2.8,0-5.2,0.7-7.6,2c-2,1.1-3.2,2.9-3.7,5.1
			c-0.4,1.8-0.8,3.6-1.1,5.4c-1,6-2.4,7.3-8.3,7.5c-1.8,0.1-3.7,0-5.5,0c-18.6,0.3-37.3,0.8-55.9,0.9c-6.1,0.1-12.3-0.5-18.4-1
			c-4.6-0.4-7-3.6-7.1-9.2c-0.1-7.8,0-15.7,0-23.5c0-0.3,0-0.7,0-1c0.8-5.6,3.3-8.3,9.2-8.3c7.3-0.1,14.6-0.7,21.9-0.9
			c2.1-0.1,4.3,0.4,6.4,0.9c4.9,1.3,9.7,1.7,14.6-0.4c3.8-1.6,7.8-2.6,11.6-4.1c1.2-0.4,2.2-1.4,3.2-2.3c0.9-0.9,1.7-2,2.1-2.6
			c0.7-0.3,0.9-0.4,1-0.4c6.8-0.8,8.3-1.8,9-5.9c1.1-7-1.1-11.9-6.4-14.2c-0.6-0.3-1.3-0.4-1.8-0.8c-5.1-3.8-10.8-4.9-16.9-4.3
			c-1.1,0.1-2.5-0.2-3.3-0.9c-4.3-3.7-9.7-4.2-14.9-4.9c-4.3-0.6-7.9-2.1-11.1-5.1c-2-1.9-4.7-3.2-7.3-4.1c-3.3-1.2-5.5-3.4-6.3-6.6
			c-1.2-4.3-1.9-8.7-2.8-13.1c-0.3-1.6-0.6-3.3-0.8-4.9c-0.4-3.4-0.9-6.9-1.2-10.3c-0.3-3,1.1-5.4,4-6.1c5-1.2,10-2.2,15.1-2.9
			c2.5-0.4,4.5,0.9,5.6,3.3c1.3,2.9,3.7,4.6,6.7,5.6c1.5,0.5,2.9,1.5,4.4,2.3c0.7,0.4,1.3,1.1,2,1.4c6.5,2.5,12.9,5.1,19.5,7.4
			c1.8,0.7,3.9,0.8,6.3,1.3c0.4,0.3,1.3,0.8,1.9,1.5c5,5.9,11.5,9.4,18.7,11.9c2.3,0.8,4.1,1.9,5.4,4.1c1.5,2.4,3.7,3.9,7.1,2.6
			c1.7-1.5,2.5-3.4,1.6-6c-0.4-1.2-0.4-2.6-0.4-3.9c0.1-3-0.6-5.5-2.7-7.8c-1.1-1.2-2-2.8-2.2-4.4c-0.7-5.6-3.2-10.6-6.6-14.8
			c-4.1-5-5.2-10.4-5.7-16.5c-0.3-4.4-1.7-8.8-2.8-13.1c-0.7-2.6-1.2-5-0.5-7.8c0.7-2.8,0.2-6,0.4-8.9c0.2-2.8,0.7-5.5,1-7.9
			c3-2,5.7-2.6,8.6-2.4c0.5,0,1,0.1,1.5,0c11-2,17.6,4.7,23.9,12.1c2.7,3.2,5.4,6.3,8.1,9.5c4.3,5.3,8.7,10.5,12.8,15.9
			c2.1,2.8,4,5.7,5.6,8.8c0.9,1.7,1.4,3.8,1.4,5.7c0.1,12.7,0.1,25.3,0.1,38c0,1.3-0.1,2.7-0.5,3.9c-0.9,3.4-0.7,6.6,1.1,9.7
			c1.9,0.5,3.8,0.9,5.8,1.4c4.7,1.2,5.3,1.8,5.7,6.7c0.4,5.1,2.6,9.1,7.1,11.9c2.3,1.4,4.7,1.4,7.2,1.5c3.1,0.1,6.4-0.9,9.4,1.8
			c0.6,4.8-0.1,10.1,2.6,14.7c0.7,1.2,2,2.2,2.8,3.1c6.8,0.4,13.2,0.8,19.4,1.2c3.5-3.8,2.8-8.2,2-12.1c-1.9-9.4-1.8-18.8-1.5-28.3
			c0.1-3.3,1-6.6,2-9.7c1.4-4.3,0.2-7.8-2.2-11.1c-3.6-0.4-7.1-0.6-10.4-1.3c-5-1-5.4-1.6-5.5-6.6c-0.1-4.9-1-9.6-4.8-13.3
			c-4.8-1-10,0.9-14.7-1.9c-1.9-1.8-1.5-4.2-1.6-6.6c-0.2-4.8-1.1-9.2-4.9-12.7c-1.6-0.1-3.3-0.2-5-0.3c-3.1-1.4-4.4-4.4-6.1-7
			c-3.8-6-7.4-12.2-12.7-17.2c-1.3-1.2-2.2-2.9-3.4-4.3c-2.9-3.3-5.7-6.9-9-9.9c-4.6-4.1-4.2-9.2-3.7-14.3c0.2-2.2,1.5-4.4,2.2-6.4
			c6-2.9,12.1-3.7,18.2-3.9c10.7-0.3,21.3-0.1,32-0.1c1.9,0,3.8,0.5,6.1,0.8c0.5,3.8,0.8,7.3,1.4,10.7c0.5,2.7,1.2,5.4,1.9,8.1
			c5.8,0.7,11,1.3,16.2,2c2.9,6.2,1.2,13.2,4.9,19.1c2,0,3.9,0,5.9,0c-0.1,0.2-0.2,0.4-0.4,0.6c2.9,1.8,5.8,3.6,8.7,5.4
			c1.1,0.7,2.4,1.4,3.2,2.4c3.5,4.4,8.2,5.5,13.4,4.9c3.9-0.4,7.9-1.1,11.7-2c3.2-0.8,6-2.5,7.9-5.6c2.6-4.1,7-5.4,11.8-5.6
			c4-5.6,3.1-12.4,4-19.1c5.7-0.7,11.2-1.4,16.5-2.1c3.2-5.7,3.2-11.7,3.1-17.3c1.7-2.2,3.7-2.3,5.7-2.3c11.2,0,22.3-0.1,33.5,0.1
			c3.6,0,7.3,0.5,10.9,1.2c6.3,1.2,8.4,3.7,8.9,10.1c0.3,4,0.1,8,0.1,12c-5.7,4.2-10.3,9.2-13.6,15.3c-1,1.9-3.4,3-5.7,4.9
			c-2.9,5.8-6.3,12.5-9.7,19.4c-3.7,0-7.2,0-10.5,0c-5.3,5.4-4.7,12.2-5.9,18.7c-4.3,4.4-10.1,1.2-15.4,2.8
			c-4.1,4.9-5,11.1-5.4,17.5c-4.5,4.3-10.4,2.5-15.5,3.2c-3.6,4-2.6,8.5-2,12.6c0.6,4.1,1.3,8,0.8,12.2c-0.5,4.8,0,9.7-0.2,14.5
			c-0.1,3.6-0.7,7.3-0.8,10.9c-0.1,3.7-1.1,7.7,2.3,11.4c6.4-0.4,13.1-0.8,20.1-1.2c3.7-2.7,4-7,4.3-11.1c0.5-8.6,0.4-8.6,8.9-8.6
			c2.2,0,4.3,0,6.6,0c3.9-3.7,7-7.4,6.7-13.3c-0.3-5.3,0.3-5.8,5.6-7c2.4-0.5,4.9-0.7,8-1.1c0.4-1.4,1.2-3,1.2-4.7
			c0-3.3-0.6-6.6-0.7-9.9c-0.2-5-0.3-10-0.2-15c0.1-4.3-0.3-8.9,1.2-12.8c2.5-6.8,3-14.4,7.1-20.6c2.4-3.7,5.1-7.3,7.7-10.9
			c2.1-3,4.1-6.1,6.3-9c1.4-1.8,2.9-3.8,4.8-5c4.3-2.7,6.7-6.8,9.5-10.8c1-1.5,2-3,3.3-4.8c5.6,0,11.2-0.1,16.9,0.1
			c3.7,0.1,5.6,1.9,6.5,5.7c0.5,2.1,0.8,4.2,0.9,6.4c0.1,4.3,0,8.7,0.1,13c0.1,2.9-1,5.3-2.3,8c-3.2,6.5-6.2,13.3-8.7,20.1
			c-2.4,6.5-4.3,13.2-9.1,18.7c-1.1,1.3-1.7,3.3-1.9,5c-0.3,3.8-0.1,7.6-0.1,11.1c5.2,6.6,11,7.1,16.9,1.7c1.2-1.1,2.7-1.8,4.1-2.8
			c3.4-2.4,6.6-5,10-7.3c2.6-1.8,5.2-3.6,8-4.9c6.9-3.2,14-6.1,21-9.2c3.2-1.4,6.3-3,9.3-4.7c1.1-0.6,2.1-1.6,3-2.5
			c1.6-1.7,3.2-3.4,4.5-4.9c6-0.8,11.1-0.5,15.8,2.9c3.5,2.5,7.3,4.5,11.1,6.8c0,6.3,0,12.4,0,18.5c-0.7,0.6-1.1,1.1-1.7,1.4
			c-9.4,5.3-18.8,10.7-29.5,13c-3.8,0.8-7.1,2.2-10.2,4.9c-2.2,1.9-5.2,2.9-7.9,4.1c-6.2,2.8-12.5,5.3-18.6,8.3
			c-2.1,1.1-3.7,3.2-5.9,5.1c0,2.6-0.4,5.4,0.1,7.9c0.6,2.7,1.6,5.6,3.4,7.5c2.6,2.9,6,5.2,9.2,7.5c3.1,2.2,6.6,2.7,10.4,2.8
			c10,0.1,19.9,0.5,29.9,0.9c4.8,0.2,9.6,0.6,14.4,1c4.5,0.4,7.5,3.2,7.6,7.8c0.2,8.8,0.2,17.7,0,26.5c-0.1,4.7-3.2,7.4-8,7.8
			c-17.6,1.3-35.3,1.5-52.9,0.8c-8.6-0.3-17.3-0.5-25.9-0.9c-2.2-0.1-4.4-1-6.7-1.5c-1-7.4-1.5-14.6-9.6-18.3c-13.6,0-27.8,0-42.1,0
			c-4,2.2-5.2,6.1-5.8,10.3c-0.2,1.1,0,2.3-0.1,3.5c-0.2,4.1-1.8,5.7-5.8,6c-7,0.4-13.9,0.7-20.9,1c-2.9,0.1-5.6,0.7-7.7,2.9
			c-2.3,2.3-4.5,4.6-3,8.3c1.5,3.8,3.7,6.6,8.3,6.8c6.6,0.2,13.3,0.6,19.9,1c2.5,0.2,4.9,0.7,7.1,1.1c2.2,1.8,2.1,4,2.2,6.1
			c0.2,2.5,0.3,5,1,7.3c1.5,4.9,3.6,6.4,8.8,6.4c10.8,0.1,21.7,0,32.5,0c3.8,0,7-1.6,8.8-4.7c1.4-2.5,2.3-5.5,2.7-8.4
			c0.7-5.8,0.6-6,6.1-7.3c1.6-0.4,3.3-0.6,4.9-0.6c25.2,0,50.3,0,75.5,0c1.6,0,3.3,0.2,4.9,0.6c3.9,1.1,5.5,3.1,5.8,7.1
			c0.3,4.6,0.8,9.3,0.8,13.9c0,4.5-0.5,8.9-0.8,13.4c-0.3,4.2-1.9,6.4-6,7.4c-1.6,0.4-3.3,0.6-4.9,0.6c-10.7,0-21.3,0.2-32-0.1
			c-4.3-0.1-7.8,1.1-10.7,4.2c-1.5,1.6-3.2,2.6-5.5,3.2c-3.1,0.7-5.9,2.3-7.7,5.5c-0.1,0.7-0.1,1.7-0.2,2.7
			c-1,6.6,2.7,10.5,7.8,13.8c4,2.6,7.9,5.5,11.6,8.6c5.3,4.5,11.4,7.4,18,9.2c1.9,0.5,3.9,0.8,5.9,0.8c2.8,0,5.3,0.9,7.4,2.5
			c3.4,2.6,6.5,5.6,9.8,8.4c2.7,2.3,4.1,5.4,4.3,8.8c0.4,4.9,0.1,9.9,0.1,15.2c-6.7,3-13.2,5.9-20,8.9c-3.6-1.7-7.9-2.7-10.9-6.1
			c-0.3-0.4-0.8-0.6-1.3-0.8c-6.5-3.4-12.9-6.8-19.4-10.1c-0.9-0.4-1.9-0.7-2.9-0.7c-7.6,0.3-12.2-4.5-16.4-9.9
			c-1.3-1.7-2.5-3.5-3.6-5.4c-2.2-3.8-5.6-5.6-9.9-5.7c-2.5-0.1-4.6-0.7-6.4-2.3c-5.5-4.5-12.5,0.4-12.2,6.5c0.2,3.8,0.2,7.7,0,11.5
			c-0.3,3.8,1.1,6.9,3.8,9.3c4,3.6,6.4,7.9,8.3,12.8c4.1,10.7,7.8,21.6,9.6,33c0.7,4.4,0.5,9,0.2,13.5c-0.2,2.8-1.2,5.6-4.7,7.3
			c-1.3,0.3-3.2,0.9-5.2,1.2c-5.6,0.8-10.3-0.8-13.4-5.6c-3.4-5.2-7.9-8.7-13.5-11.4c-4.4-2.2-8.3-5-10.9-9.7
			c-3.1-5.7-7.4-10.6-10.8-16.1c-2.8-4.6-3.9-9.7-4.6-15.1c-1.2-9-0.8-17.9-0.8-26.9c0-4.3,0.6-8.6,0.9-12.9c0.1-1.6,0-3.3,0-4.7
			c-2.8-1.9-5.3-2.5-8-2.4c-2.4,0.1-4.6-0.4-7-2.8c0-1.2,0.2-3.1-0.1-4.8c-0.3-2.3-0.8-4.6-1.6-6.7c-1.7-4.1-4.6-6.1-9.3-5.8
			c-3.2,0.2-6.5-0.7-9.4-1.1c-2.4-2.5-1.4-5.1-1.5-7.5c-0.2-4.7-1.3-8.9-5.5-12c-6.4,0-13.1,0-19.7,0c-2.8,3.3-1.6,7.1-1.5,10.6
			c0.1,3,0.7,5.9,0.8,8.9c0.1,7.3,0.2,14.7,0,22c-0.1,4.1-0.7,8.3-0.9,12.4c-0.2,2.4,0.3,4.6,2.3,6.5c3.5,0.4,7.1,0.9,10.7,1.4
			c3.5,0.4,4.5,1.3,5,5c0.4,2.6,0.4,5.3,1.2,7.8c0.8,2.5,2.3,4.7,3.6,7.2c2.6,0,4.7-0.1,6.9,0c1.8,0.1,3.6,0.5,5.4,0.9
			c2.6,0.6,3.8,2.2,4.1,5c0.4,3.3,1.1,6.5,2,9.7c0.5,1.8,1.8,3.5,2.6,5.1c3.1,0.2,5.7,0.3,8.3,0.5c2.2,3.7,4.2,7.3,6.5,10.7
			c2.6,3.8,5.4,7.5,8.1,11.3c1.7,2.4,3.5,4.8,5.2,7.3c2.2,3.2,5.2,5.6,8.6,7.3c2.5,1.2,3.8,3,3.6,5.9c-0.4,4.3-0.6,8.6-1,12.9
			c-0.3,3.3-2.6,5-5.3,6c-2,0.8-4.2,1.3-6.3,1.5c-7.6,0.5-15.2,0.8-22.9,1c-5.2,0.2-10.3,0.2-15.5,0c-2.6-0.1-5.1-0.9-7.8-1.5
			c-0.8-6.8,0.4-13.6-4.1-19.2c-5.2-0.9-10.7,1-15.7-2.3c-0.5-3.9-1.2-7.8-1.5-11.7c-0.4-3.8-1.3-6.8-5.8-7.5
			c-1-0.2-1.8-1.4-2.9-1.8c-2.8-1.3-5.7-2.5-8.1-3.5c-2.8-3.5-5.3-6.8-7.6-9.7c-4.4-1.2-8.1-2.1-12.3-1.2c-5.2,1.1-9.4,3.8-12.3,8
			c-3.9,5.7-9.2,8.4-15.9,8.8c-4.6,5.6-1.8,13-4.3,18.8c-5.3,2.8-10.8,1.5-16.2,2.1c-4.2,5.8-1.8,13-4.6,19.7
			c-2.5,0.3-5.4,1-8.3,1.1c-7.7,0.2-15.4,0.6-23-0.1c-6.7-0.7-13.6,0.1-20.1-2.5c-4.8-1.9-7.5-6.9-6-12c0.5-1.9,0.7-4,1.5-5.8
			c1.4-3.1,2.9-6.3,4.9-9.1c1.8-2.5,4.5-4.5,6.6-6.8c1.6-1.8,2.9-3.9,3.9-6.2c1-0.6,2-1.1,2.9-1.7c0.5-1.8,1.2-3.4,1.3-5
			c0.3-2.6,1.8-4.1,3.6-5.7c2.5-2.2,4.7-4.6,7-7c0.7-0.7,1.2-1.6,1.7-2.1c2.5-0.2,4.5-0.3,6.6-0.5c2.9-3.7,4.4-7.7,4.4-12.4
			c0-6.2,1.7-8,7.9-8.3c3-0.2,5.9,0,8.6,0c4.4-5.4,4.5-11.5,4.7-17.2c3.8-3.1,3.8-3.1,16.4-4.1c0.8-2.2,1.6-4.6,2.5-7.1
			c-3.6-10.3-3.3-21-3-31.6c0.1-3.4,0.9-6.9,1.6-10.3c0.8-4.2,0.4-7.9-1.3-11.3c-6.5,0-13.1,0-20,0c-5.5,5-4.7,12.2-5.7,19.2
			c-3.6,0.5-7,1.3-10.4,1.4c-6.7,0.3-11.4,3.9-13.1,10.6c-0.6,2.2-0.9,4.5-1.4,7c-2.2,3.5-6.3,1.9-9.3,3c-2.6,2.7-2.4,5.8-1.9,9
			c0.3,1.6,0.7,3.3,0.7,4.9c0.1,12.7-0.1,25.3,0.1,38c0,3.6-1.2,6-4.3,7.8c-1.7,1-3.3,2.3-4.9,3.4c-4.5,3.2-5.7,8.5-7.5,13.3
			c-1,2.4-2.1,4.4-3.9,6.2c-3.9,3.8-8.2,7.4-10,12.9c-0.6,1.7-1.1,3.4-1.6,5.2c-0.7,2.7-1.7,3.8-4.4,3.9c-7,0.1-14,0.6-20.9-1
			c-3.7-0.8-5.4-2.7-5.7-6.5c-1.3-17.8-1.2-35.6-0.9-53.4c0.1-2.9,1.5-6.2,3.2-8.7c2.6-3.8,5.9-7.2,9.3-10.4
			C108.8,367.9,111.6,366.5,114.7,364.4z"/>
	</g>
	<g>
	</g>
</g>
</svg>
