<?xml version="1.0" encoding="utf-8"?>
<!-- Generator: Adobe Illustrator 19.1.0, SVG Export Plug-In . SVG Version: 6.00 Build 0)  -->
<svg version="1.1" id="Layer_1" xmlns="http://www.w3.org/2000/svg" xmlns:xlink="http://www.w3.org/1999/xlink" x="0px" y="0px"
	 viewBox="0 0 500 500" enable-background="new 0 0 500 500" xml:space="preserve">
<g>
	<g opacity="0.5">
		<path d="M1,281c0.6-1.7,1.8-3.4,1.8-5c-0.1-4.7,2.3-8.6,3.7-12.9c0.4-1,1.3-1.9,2-2.8c1.9-2.5,4.3-4.7,5.8-7.4
			c2.6-4.8,4.6-9.9,6.8-15c1.8-4,4.5-7,8.5-8.7c5.2-2.2,10.4-4.4,15.8-6.2c4.5-1.5,8.3-4.1,10.7-7.8c3.8-6.1,8.8-10.8,14.8-14.4
			c3-1.8,4.8-4.6,5.9-7.7c1.3-3.7,3.5-6.8,6.2-9.5c3.7-3.6,7.6-7.1,10.9-11c6.5-7.6,15.3-10.1,24.7-11.6c3.4-0.5,6.9-0.8,10.2-1.8
			c6.3-1.9,12.7-2.6,19.2-2.2c3.3,0.2,6.3-0.6,8.7-2.8c1-0.9,2-1.8,2.7-2.8c2.8-4.6,6.9-7.7,11.7-9.7c5.4-2.3,9.6-5.7,11.9-11.3
			c2.7-6.4,8.5-9.2,14.6-11.1c2.9-0.9,5-2.3,6.4-5c0.8-1.5,1.9-2.7,2.7-4.2c2.5-4.7,6.7-6.9,11.5-7.9c7.1-1.6,14.3-2.7,21.5-4.1
			c4.7-1,9.4-2.1,13.4-5c7-4.9,15-6.7,23.3-8.1c8.8-1.5,17.6-1,26.4-0.8c8.6,0.2,17.1,2,24.9,6.2c0.7,0.4,1.6,0.6,2.2,1.2
			c5.5,5.8,12.9,7,20.3,8.5c6.5,1.3,12.9,3.1,18.6,6.8c1.6,1.1,3.5,2.4,4.2,4.1c3,6.5,8.7,9.3,14.8,10.8c6.9,1.7,11.4,5.4,13.6,11.8
			c1.7,5.1,5.1,8.4,9.9,10.5c5.1,2.2,8.2,6.2,9.9,11.3c2.6,7.9,6.5,14.7,12.4,20.8c4.7,4.8,7.3,11.1,8.6,17.7
			c0.8,3.9,0.8,7.9,1.1,11.9c0.4,4.6,0.3,9.3,1.2,13.9c1,5.1,3.1,9.8,8.3,12.3c1.4,0.7,2.7,1.9,3.8,3.2c1.7,2,3.1,4.3,5,6.9
			c3.4,1.5,7.1,3.5,11,4.6c7.7,2.2,11.5,7.8,13.4,14.8c1.4,5.2,4.1,9,8.9,11.9c0,7.7,1.6,15.3,6.3,21.8c0,15,0,30,0,45
			c-1.8,2.1-2.6,4.5-3.1,7.2c-1.1,5.9-2.6,11.6-3.9,16.8c-3.7,3.2-4.1,3-6.6,9.4c-3.6,9.2-10.8,15.4-17.4,22.1
			c-5,5-11.5,7.1-18.2,8.6c-5.2,1.1-10.5,2.1-14.8,5.5c-8.3,6.5-18,8.4-28.1,8.4c-103,0.1-206,0.1-308.9,0c-5.3,0-10.6-0.4-15.9-1.1
			c-6.1-0.8-11.9-2.6-16.7-6.9c-3.8-3.4-8.1-5.6-13.2-6.5c-1.8-0.3-3.5-1-5.3-1.3c-5.7-1.1-10.4-4.1-13-9.2
			c-2.5-4.8-6.4-7.4-10.6-10c-4.2-2.6-7.5-6.1-9.3-10.7c-1.9-4.7-4-9.1-8.8-11.7c0.5-6-1.6-10.9-6.1-14.6C1,324.3,1,302.7,1,281z
			 M51.6,259.5c-1.5,3.4-2.7,6.5-4.1,9.5c-1.5,3.3-3,6.7-5,9.7c-2.3,3.5-4.8,6.8-7.6,9.8c-5,5.3-5.9,11.8-5.6,18.5
			c0.2,4.7,1.5,9.5,3,14c3.2,9.2,7.1,18.2,12.8,26.3c4.1,5.7,7.7,11.6,13,16.4c3.8,3.5,8.1,5.9,12.9,7.1c3.5,0.9,7.2,0.8,10.8,1.6
			c10.1,2.1,20.3,3.3,30.6,3.3c97.5,0.2,194.9,0.1,292.4,0.1c1.5,0,3,0,4.5-0.2c5.7-0.9,11.4-1.7,17.1-2.8
			c5.9-1.1,11.7-2.5,17.5-3.8c4.6-1,7.5-3.9,9-8.4c2.3-6.7,5.6-12.7,11.2-17.4c2.1-1.8,3.9-4.1,5.4-6.4c4.6-7.4,4-15.7,3-23.8
			c-0.8-6.3-3.7-11.5-8.5-15.9c-2.5-2.3-3.9-5.7-5.6-8.7c-0.9-1.6-1.4-3.4-2.1-5.1c-1.7-4.5-4.9-7.2-9.6-8.5
			c-3.3-0.9-6.9-2.2-9.3-4.4c-5-4.7-10.3-8.9-16.1-12.4c-3.9-2.3-6.5-5.8-7.2-10.3c-0.9-5.5-1.8-11.1-1.9-16.7
			c-0.2-6-0.4-11.9-2-17.7c-0.9-3.3-2.3-6.1-4.8-8.6c-2-2-3.8-4.2-5.6-6.3c-4.2-4.8-5.9-10.8-7.5-16.7c-1.6-5.6-4.8-9.6-9.4-13
			c-3.4-2.4-6.3-5.4-8-9.4c-1.9-4.4-5.5-7.3-10.1-8.2c-6.8-1.3-11.3-5.2-14.2-11.3c-1.8-3.8-4.7-6.4-9.1-7
			c-3.8-0.5-7.5-1.4-11.3-1.8c-9.5-1.1-19.2-1.6-28.6-3.3c-8.4-1.6-16.5,0.2-24.8,0.6c-7.6,0.4-15.1,1.6-22.6,2.7
			c-5.7,0.8-11.4,2-17.1,3.1c-3.5,0.6-6.2,2.7-8,5.5c-2.1,3.2-4.9,5.3-8,7.3c-4.8,3.2-9.8,6.3-14.3,9.9c-7.4,5.9-12.7,13.7-17,21.9
			c-3.5,6.7-8.6,10.8-15.9,12.4c-3.9,0.8-7.8,1.8-11.7,2.2c-4.6,0.5-9.4,1.1-13.9,0.3c-9.2-1.7-17.8,0.1-26.4,2.9
			c-3.6,1.2-6.3,3.6-7.8,7.2c-2,4.7-4.6,9.2-6.4,14.1c-2.3,6.4-6.5,11.1-12.1,14.7c-4.7,3.1-9.1,6.6-12.4,11.3
			c-1.8,2.5-4.3,4.8-7,6.2c-4.7,2.4-9.8,4-14.8,5.9C58.3,257.3,55.1,258.3,51.6,259.5z"/>
	</g>
	<g>
	</g>
</g>
</svg>
