<?xml version="1.0" encoding="utf-8"?>
<!-- Generator: Adobe Illustrator 19.1.0, SVG Export Plug-In . SVG Version: 6.00 Build 0)  -->
<svg version="1.1" id="Layer_1" xmlns="http://www.w3.org/2000/svg" xmlns:xlink="http://www.w3.org/1999/xlink" x="0px" y="0px"
	 viewBox="0 0 500 500" enable-background="new 0 0 500 500" xml:space="preserve">
<g>
	<g opacity="0.5">
		<path d="M1,436c8.7-16.1,17-32.4,26.1-48.3c24.4-42.7,49.1-85.2,73.6-127.7c30.3-52.5,60.6-105.1,90.9-157.6
			c11.7-20.3,23.4-40.7,35.5-60.9c2.8-4.6,6.5-9,10.6-12.4c9.2-7.4,21-6.8,28.8,1.9c5.6,6.2,10.2,13.6,14.4,20.9
			c29.5,50.9,58.7,101.9,88.1,152.8c22.7,39.2,45.4,78.4,68.1,117.6c19.6,33.9,39.2,67.8,58.7,101.7c2,3.4,3.4,7.2,5.1,10.8
			c0,4.7,0,9.3,0,14c-5.1,13.4-16.3,17-28.9,17c-40,0.3-79.9,0.1-119.9,0.1c-69.6,0-139.2,0-208.8,0c-38,0-75.9,0-113.9-0.1
			C14.1,466,6.1,460.7,1,448C1,444,1,440,1,436z M437.7,418.5C375.3,310.4,313.4,203.2,251,95.2c-62.4,108-124.3,215.3-186.7,323.3
			C189.2,418.5,312.8,418.5,437.7,418.5z"/>
		<path d="M227.8,253.7c0-24.8,0-49.6,0-74.5c0-7.4,0-7.5,7.2-7.6c11.1-0.1,22.3,0.1,33.4-0.1c4.1-0.1,5.6,1.4,5.6,5.5
			c-0.1,33.2-0.1,66.3-0.1,99.5c0,17.7-0.1,35.3,0.1,53c0,4.4-1,6.2-5.8,6.1c-11.5-0.3-23-0.3-34.5,0c-4.5,0.1-6.1-1.2-6-5.9
			C227.9,304.3,227.8,279,227.8,253.7z"/>
		<path d="M250.9,353.7c6.2,0,12.3,0.1,18.5-0.1c3.2-0.1,4.6,1,4.6,4.2c-0.1,12.3-0.1,24.6,0,36.9c0,3.4-1.3,4.8-4.7,4.8
			c-12.6-0.1-25.3,0-37.9-0.3c-1.2,0-3.4-2.3-3.4-3.5c-0.3-12.6-0.1-25.3-0.2-37.9c0-3,1.2-4.2,4.2-4.2
			C238.3,353.7,244.6,353.7,250.9,353.7C250.9,353.7,250.9,353.7,250.9,353.7z"/>
	</g>
	<g>
	</g>
</g>
<g>
</g>
<g>
</g>
<g>
</g>
<g>
</g>
<g>
</g>
<g>
</g>
</svg>
